<svg width="607" height="606" viewBox="0 0 607 606" fill="none" xmlns="http://www.w3.org/2000/svg">
<g clip-path="url(#clip0_309_5860)">
<path opacity="0.15" d="M578.016 456.318L507.452 48.4799L489.242 33.9359L172.388 344.814L59.0431 455.445C34.7632 480.303 63.7229 480.606 118.972 512.07C277.399 550.292 233.088 539.077 472.246 519.342C588.183 474.498 580.857 497.538 578.016 456.318Z" fill="#BCBFE3"/>
<path d="M315.033 538.128C461.531 538.128 580.292 510.183 580.292 475.71C580.292 441.237 461.531 413.292 315.033 413.292C168.535 413.292 49.7741 441.237 49.7741 475.71C49.7741 510.183 168.535 538.128 315.033 538.128Z" fill="white"/>
<path d="M489.738 22.2876L494.009 17.6541L500.371 38.0706L496.093 42.6844L489.738 22.2876Z" fill="#263238"/>
<path opacity="0.1" d="M489.738 22.2876L494.009 17.6541L500.371 38.0706L496.093 42.6844L489.738 22.2876Z" fill="black"/>
<path d="M475.672 54.343L488.267 75.2441L470.798 92.2756L450.64 61.9004L475.672 54.343Z" fill="#455A64"/>
<path d="M495.073 77.9071L479.284 97.2049L479.551 98.8944L512.845 96.3144L510.502 73.7856L495.073 77.9071Z" fill="#BCBFE3"/>
<path d="M494.832 76.231L479.284 97.2048L512.585 94.6445L510.502 73.7855L494.832 76.231Z" fill="#455A64"/>
<path d="M508.403 28.5515C512.352 29.6645 515.983 31.6921 519 34.4694C522.017 37.2467 524.335 40.6954 525.766 44.5353C526.342 45.878 526.551 47.349 526.371 48.7983C526.191 50.2477 525.629 51.6235 524.743 52.7854L513.807 64.5892C512.202 66.3847 509.31 67.1097 505.672 66.2727C501.726 65.1548 498.1 63.1245 495.086 60.3465C492.073 57.5684 489.758 54.1207 488.328 50.2827C487.754 48.9375 487.548 47.4644 487.731 46.0137C487.915 44.5631 488.481 43.1871 489.371 42.0264L500.281 30.2091C501.369 29.2436 502.693 28.5819 504.119 28.2908C505.545 27.9998 507.023 28.0897 508.403 28.5515Z" fill="#263238"/>
<path d="M501.217 33.3548C505.855 34.6753 510.115 37.0695 513.651 40.3427C517.188 43.616 519.901 47.6759 521.57 52.1928C522.872 56.3707 522.32 59.7409 520.381 61.856L507.573 75.711C505.608 77.8125 502.296 78.6466 498.013 77.6856C493.384 76.3759 489.129 73.9954 485.594 70.7372C482.058 67.479 479.342 63.4348 477.665 58.9326C476.363 54.7547 476.935 51.3783 478.874 49.2632L491.688 35.4279C493.602 33.234 496.934 32.3937 501.217 33.3548Z" fill="#455A64"/>
<path d="M488.49 47.12C493.114 48.4289 497.364 50.8079 500.895 54.0638C504.426 57.3198 507.139 61.361 508.812 65.8595C511.434 74.2744 506.574 79.5227 497.983 77.5871C493.353 76.2774 489.099 73.8969 485.563 70.6387C482.028 67.3805 479.312 63.3363 477.634 58.8341C475.019 50.4389 479.878 45.1905 488.49 47.12Z" fill="#E0E0E0"/>
<path d="M489.166 49.288C493.115 50.407 496.744 52.4399 499.758 55.2216C502.773 58.0032 505.088 61.4554 506.516 65.2977C508.751 72.4711 504.606 76.957 497.271 75.3013C493.319 74.1856 489.686 72.1549 486.668 69.3742C483.65 66.5935 481.331 63.1411 479.901 59.2977C477.678 52.1638 481.823 47.6778 489.166 49.288Z" fill="white"/>
<path d="M504.103 48.7993L494.925 54.5025L516.045 86.5029L517.382 85.7203L513.98 66.3949L504.103 48.7993Z" fill="#BCBFE3"/>
<path d="M504.102 48.7992L496.267 53.7395L517.381 85.7202L515.316 65.6122L504.102 48.7992Z" fill="#263238"/>
<path d="M492.629 46.1591L483.745 51.2088L451.862 58.0407L451.625 56.515L477.116 48.5555L492.385 44.6136L492.629 46.1591Z" fill="#BCBFE3"/>
<path d="M492.385 44.6137L483.508 49.6832L451.625 56.5151L476.879 47.0299L492.385 44.6137Z" fill="#263238"/>
<path d="M521.812 51.9237L526.07 47.3161L518.554 23.1947L494.009 17.6541L489.738 22.2876L514.296 27.8023L521.812 51.9237Z" fill="#263238"/>
<path opacity="0.05" d="M523.951 49.6168C524.558 48.8541 524.976 47.9591 525.171 47.0045C525.367 46.05 525.334 45.0629 525.075 44.1235L518.554 23.1947L494.009 17.6541L489.738 22.2876L514.296 27.8023L520.817 48.7312C521.37 50.5048 522.767 50.892 523.951 49.6168Z" fill="black"/>
<path d="M523.312 47.5672C523.643 47.1602 523.876 46.6819 523.99 46.1698C524.105 45.6578 524.099 45.1262 523.973 44.6169C523.69 43.7104 522.922 43.5382 522.274 44.2367C521.937 44.6368 521.7 45.1115 521.584 45.6212C521.468 46.131 521.476 46.661 521.607 47.1673C521.895 48.0935 522.643 48.2718 523.312 47.5672Z" fill="white"/>
<path d="M232.741 503.05C240.051 503.05 245.977 500.831 245.977 498.094C245.977 495.357 240.051 493.139 232.741 493.139C225.43 493.139 219.504 495.357 219.504 498.094C219.504 500.831 225.43 503.05 232.741 503.05Z" fill="#2F2E41"/>
<path d="M264.508 502.389C271.818 502.389 277.744 500.17 277.744 497.434C277.744 494.697 271.818 492.478 264.508 492.478C257.198 492.478 251.272 494.697 251.272 497.434C251.272 500.17 257.198 502.389 264.508 502.389Z" fill="#2F2E41"/>
<path d="M306.68 419.097C319.189 411.898 327.494 402.884 325.23 398.964C322.966 395.044 310.991 397.702 298.483 404.901C285.975 412.099 277.67 421.113 279.934 425.033C282.197 428.954 294.172 426.296 306.68 419.097Z" fill="#2F2E41"/>
<path d="M294.939 436.749C299.564 408.293 280.208 381.482 251.705 376.864C223.202 372.246 196.347 391.571 191.721 420.026C187.096 448.482 206.452 475.293 234.955 479.911C263.458 484.529 290.313 465.204 294.939 436.749Z" fill="#2F2E41"/>
<path d="M235.388 469.353H219.504V497.764H235.388V469.353Z" fill="#2F2E41"/>
<path d="M267.155 469.353H251.272V497.764H267.155V469.353Z" fill="#2F2E41"/>
<path d="M244.654 433.012C254.522 433.012 262.523 425.025 262.523 415.173C262.523 405.32 254.522 397.333 244.654 397.333C234.785 397.333 226.784 405.32 226.784 415.173C226.784 425.025 234.785 433.012 244.654 433.012Z" fill="white"/>
<path d="M244.654 421.119C247.943 421.119 250.61 418.457 250.61 415.173C250.61 411.888 247.943 409.226 244.654 409.226C241.364 409.226 238.697 411.888 238.697 415.173C238.697 418.457 241.364 421.119 244.654 421.119Z" fill="#3F3D56"/>
<path d="M192.613 379.845C188.391 360.97 201.886 341.897 222.755 337.245C243.623 332.592 263.963 344.123 268.185 362.998C272.406 381.874 258.576 388.835 237.707 393.487C216.839 398.139 196.835 398.721 192.613 379.845Z" fill="#CCCCCC"/>
<path d="M208.061 415.351C210.003 411.263 201.003 402.941 187.958 396.764C174.913 390.588 162.763 388.895 160.821 392.983C158.879 397.072 167.879 405.393 180.924 411.57C193.969 417.747 206.119 419.44 208.061 415.351Z" fill="#2F2E41"/>
<path d="M217.648 456.081C217.648 450.972 230.824 440.884 245.445 440.884C260.065 440.884 273.774 455.267 273.774 460.376C273.774 465.484 260.065 459.385 245.445 459.385C230.824 459.385 217.648 461.19 217.648 456.081Z" fill="white"/>
<path d="M425.639 503.05C432.949 503.05 438.875 500.831 438.875 498.094C438.875 495.357 432.949 493.139 425.639 493.139C418.329 493.139 412.403 495.357 412.403 498.094C412.403 500.831 418.329 503.05 425.639 503.05Z" fill="#2F2E41"/>
<path d="M393.872 502.389C401.182 502.389 407.108 500.17 407.108 497.434C407.108 494.697 401.182 492.478 393.872 492.478C386.561 492.478 380.635 494.697 380.635 497.434C380.635 500.17 386.561 502.389 393.872 502.389Z" fill="#2F2E41"/>
<path d="M378.446 425.033C380.71 421.113 372.405 412.099 359.897 404.9C347.389 397.701 335.414 395.044 333.15 398.964C330.886 402.884 339.191 411.898 351.699 419.097C364.207 426.295 376.182 428.953 378.446 425.033Z" fill="#2F2E41"/>
<path d="M415.05 480.585C443.926 480.585 467.334 457.215 467.334 428.387C467.334 399.559 443.926 376.189 415.05 376.189C386.175 376.189 362.766 399.559 362.766 428.387C362.766 457.215 386.175 480.585 415.05 480.585Z" fill="#2F2E41"/>
<path d="M438.876 469.353H422.992V497.764H438.876V469.353Z" fill="#2F2E41"/>
<path d="M407.108 469.353H391.225V497.764H407.108V469.353Z" fill="#2F2E41"/>
<path d="M402.801 433.012C412.669 433.012 420.67 425.025 420.67 415.173C420.67 405.32 412.669 397.333 402.801 397.333C392.932 397.333 384.931 405.32 384.931 415.173C384.931 425.025 392.932 433.012 402.801 433.012Z" fill="white"/>
<path d="M398.495 416.938C400.829 414.61 400.844 410.847 398.528 408.533C396.213 406.22 392.444 406.231 390.11 408.559C387.776 410.887 387.761 414.65 390.077 416.964C392.392 419.277 396.161 419.266 398.495 416.938Z" fill="#3F3D56"/>
<path d="M420.673 393.487C399.804 388.835 385.974 381.874 390.195 362.998C394.417 344.123 414.757 332.592 435.625 337.245C456.494 341.897 469.989 360.97 465.767 379.845C461.545 398.72 441.541 398.139 420.673 393.487Z" fill="#505798"/>
<path d="M469.724 468.176C474.105 467.014 474.652 454.779 470.945 440.848C467.239 426.917 460.683 416.566 456.303 417.727C451.922 418.889 451.376 431.124 455.082 445.055C458.788 458.986 465.344 469.337 469.724 468.176Z" fill="#2F2E41"/>
<path d="M403.205 459.385C393.606 459.385 384.607 465.485 384.607 460.376C384.607 455.268 393.606 440.885 403.205 440.885C412.804 440.885 421.454 450.973 421.454 456.082C421.454 461.19 412.804 459.385 403.205 459.385Z" fill="white"/>
<path d="M332.159 332.088H328.896C325.973 332.085 323.17 330.921 321.103 328.852C319.036 326.783 317.873 323.978 317.87 321.051V318.309C317.87 311.517 319.156 305.83 321.692 301.406C324.765 296.26 328.35 291.438 332.393 287.014C335.077 284.313 337.512 281.375 339.669 278.236C341.216 275.797 342.015 272.958 341.967 270.069C341.967 263.256 337.532 259.944 328.409 259.944C323.348 260.001 318.319 260.756 313.464 262.189C311.592 262.724 309.621 262.816 307.707 262.459C305.793 262.103 303.988 261.306 302.434 260.132C300.88 258.959 299.619 257.44 298.75 255.695C297.882 253.951 297.43 252.029 297.43 250.08V244.529C297.419 242.139 298.101 239.798 299.394 237.788C300.686 235.779 302.533 234.188 304.71 233.208C313.284 229.545 322.53 227.725 331.851 227.863C341.616 227.863 350.43 229.505 358.051 232.742C365.685 235.987 371.717 240.562 375.978 246.342C380.226 252.08 382.484 259.051 382.408 266.193C382.408 273.862 380.316 280.542 376.191 286.046C372.111 291.495 366.262 297.459 358.806 303.776C354.877 307.046 351.155 310.556 347.66 314.286C345.402 316.72 343.807 319.693 343.026 322.921C342.591 325.489 341.26 327.819 339.271 329.498C337.281 331.176 334.761 332.094 332.159 332.088Z" fill="#505798"/>
<path d="M331.588 385.416H331.234C326.775 385.413 322.5 383.624 319.348 380.442C316.197 377.26 314.426 372.946 314.426 368.448C314.426 363.95 316.197 359.635 319.348 356.454C322.5 353.272 326.775 351.483 331.234 351.48H331.588C333.798 351.479 335.986 351.916 338.028 352.768C340.07 353.621 341.925 354.87 343.488 356.446C345.051 358.022 346.291 359.893 347.137 361.952C347.983 364.011 348.418 366.219 348.418 368.448C348.418 370.677 347.983 372.885 347.137 374.944C346.291 377.003 345.051 378.874 343.488 380.45C341.925 382.026 340.07 383.275 338.028 384.128C335.986 384.98 333.798 385.417 331.588 385.416Z" fill="#505798"/>
<path d="M508.99 370.86L507.953 370.328C507.025 369.851 506.325 369.025 506.006 368.031C505.687 367.037 505.776 365.957 506.253 365.026L506.701 364.155C507.811 361.997 509.149 360.4 510.677 359.407C512.495 358.273 514.422 357.325 516.429 356.577C517.723 356.156 518.977 355.619 520.175 354.973C521.065 354.451 521.783 353.679 522.239 352.753C523.353 350.588 522.485 348.814 519.586 347.328C517.969 346.522 516.248 345.943 514.471 345.607C513.789 345.472 513.148 345.181 512.598 344.756C512.048 344.331 511.605 343.784 511.303 343.158C511.001 342.532 510.848 341.844 510.857 341.148C510.867 340.453 511.037 339.768 511.355 339.149L512.262 337.385C512.65 336.624 513.249 335.992 513.988 335.564C514.727 335.136 515.573 334.931 516.425 334.974C519.748 335.207 522.983 336.134 525.921 337.696C529.024 339.286 531.556 341.243 533.448 343.513C535.344 345.787 536.513 348.223 536.922 350.753C537.334 353.268 536.913 355.851 535.721 358.107C534.468 360.544 532.712 362.325 530.502 363.402C528.316 364.469 525.483 365.412 522.082 366.204C520.299 366.603 518.543 367.112 516.823 367.728C515.708 368.134 514.716 368.819 513.94 369.717C513.382 370.462 512.579 370.986 511.673 371.195C510.766 371.404 509.816 371.285 508.99 370.86Z" fill="#1B1E44"/>
<path d="M500.095 387.71L499.983 387.652C498.566 386.925 497.501 385.661 497.019 384.136C496.538 382.612 496.68 380.953 497.415 379.524C498.15 378.095 499.417 377.013 500.939 376.515C502.46 376.017 504.11 376.145 505.528 376.87L505.64 376.928C506.342 377.287 506.966 377.783 507.475 378.386C507.985 378.989 508.37 379.689 508.609 380.444C508.848 381.199 508.937 381.995 508.869 382.787C508.801 383.579 508.579 384.352 508.215 385.06C507.85 385.768 507.351 386.398 506.746 386.915C506.141 387.431 505.441 387.824 504.687 388.07C503.933 388.316 503.14 388.411 502.352 388.349C501.564 388.287 500.797 388.07 500.095 387.71Z" fill="#1B1E44"/>
<path d="M160.158 356.427L159.117 356.95C158.184 357.417 157.103 357.494 156.111 357.165C155.118 356.836 154.297 356.127 153.825 355.194L153.385 354.319C152.293 352.152 151.789 350.132 151.888 348.314C152.041 346.179 152.41 344.067 152.989 342.008C153.411 340.716 153.716 339.388 153.9 338.041C154.002 337.015 153.801 335.981 153.321 335.067C152.226 332.893 150.278 332.547 147.367 334.008C145.762 334.837 144.279 335.884 142.96 337.118C142.448 337.589 141.835 337.934 141.166 338.127C140.498 338.32 139.794 338.355 139.11 338.229C138.425 338.103 137.779 337.821 137.222 337.403C136.664 336.986 136.211 336.445 135.898 335.823L135.006 334.052C134.618 333.291 134.46 332.435 134.549 331.587C134.638 330.738 134.972 329.935 135.509 329.273C137.656 326.731 140.314 324.669 143.31 323.221C146.426 321.657 149.502 320.769 152.454 320.581C155.411 320.393 158.071 320.887 160.36 322.049C162.637 323.199 164.478 325.062 165.602 327.353C166.834 329.8 167.24 332.266 166.808 334.683C166.382 337.075 165.474 339.915 164.111 343.125C163.383 344.798 162.759 346.514 162.243 348.264C161.914 349.402 161.883 350.606 162.152 351.761C162.426 352.65 162.376 353.607 162.011 354.461C161.646 355.316 160.99 356.012 160.158 356.427Z" fill="#868AC3"/>
<path d="M168.546 373.534L168.433 373.591C167.01 374.304 165.359 374.418 163.842 373.908C162.325 373.397 161.066 372.304 160.343 370.869C159.621 369.434 159.492 367.773 159.986 366.253C160.481 364.733 161.557 363.478 162.98 362.763L163.093 362.706C163.797 362.351 164.566 362.141 165.354 362.085C166.143 362.03 166.936 362.132 167.688 362.384C168.44 362.637 169.136 363.035 169.737 363.557C170.338 364.078 170.831 364.713 171.189 365.424C171.548 366.135 171.764 366.909 171.825 367.702C171.886 368.495 171.791 369.29 171.545 370.043C171.3 370.796 170.909 371.492 170.394 372.091C169.879 372.69 169.252 373.18 168.546 373.534Z" fill="#868AC3"/>
<path d="M522.02 503.596H144.466C144.144 503.596 143.835 503.469 143.608 503.241C143.38 503.014 143.252 502.706 143.252 502.384C143.252 502.063 143.38 501.755 143.608 501.527C143.835 501.3 144.144 501.172 144.466 501.172H522.02C522.342 501.172 522.651 501.3 522.878 501.527C523.106 501.755 523.234 502.063 523.234 502.384C523.234 502.706 523.106 503.014 522.878 503.241C522.651 503.469 522.342 503.596 522.02 503.596Z" fill="#CCCCCC"/>
<path d="M217.574 298.328C221.91 298.328 225.425 294.819 225.425 290.49C225.425 286.162 221.91 282.653 217.574 282.653C213.238 282.653 209.723 286.162 209.723 290.49C209.723 294.819 213.238 298.328 217.574 298.328Z" fill="#F2F2F2"/>
</g>
<defs>
<clipPath id="clip0_309_5860">
<rect width="607" height="606" fill="white"/>
</clipPath>
</defs>
</svg>
