<svg width="475" height="358" viewBox="0 0 475 358" fill="none" xmlns="http://www.w3.org/2000/svg">
<g clip-path="url(#clip0_3_15)">
<path d="M289.217 206.543L294.309 224.144L299.401 241.744H289.217H279.032L284.125 224.144L289.217 206.543Z" fill="#3AD29F"/>
<path d="M299.244 204.159L304.332 221.759L309.424 239.365H299.244H289.06L294.152 221.759L299.244 204.159Z" fill="#3AD29F"/>
<path d="M309.267 204.159L314.359 221.759L319.451 239.365H309.267H299.082L304.174 221.759L309.267 204.159Z" fill="#3AD29F"/>
<path d="M386.691 214.905L391.783 232.506L396.876 250.112H386.691H376.506L381.599 232.506L386.691 214.905Z" fill="#3AD29F"/>
<path d="M60.9911 197.588L69.7099 213.711L78.4287 229.833L68.4825 231.99L58.5311 234.151L59.7586 215.867L60.9911 197.588Z" fill="#3AD29F"/>
<path d="M0 357.934L19.2737 267.323L33.4753 248.593L47.677 224.295L74.0515 208.603L93.8324 197.466L101.948 221.764L117.539 232.182L127.308 246.569L142.524 241.507L161.798 225.814L176.506 221.764L197.302 208.603L216.575 213.665L236.356 206.578L249.544 197.466L262.224 212.653L269.324 232.395L270.846 239.482H289.105H309.393L322.073 225.814L341.854 221.764H361.128L374.315 225.814L397.647 232.395L449.381 357.934H0Z" fill="#E0E0E0"/>
<g opacity="0.3">
<path opacity="0.3" d="M144.512 90.4998H81.4973C77.2787 90.4998 73.8588 93.9129 73.8588 98.1232C73.8588 102.334 77.2787 105.747 81.4973 105.747H144.512C148.731 105.747 152.151 102.334 152.151 98.1232C152.151 93.9129 148.731 90.4998 144.512 90.4998Z" fill="#E0E0E0"/>
<path opacity="0.3" d="M125.416 105.747H62.4011C58.1825 105.747 54.7626 109.16 54.7626 113.37C54.7626 117.581 58.1825 120.994 62.4011 120.994H125.416C129.635 120.994 133.054 117.581 133.054 113.37C133.054 109.16 129.635 105.747 125.416 105.747Z" fill="#E0E0E0"/>
<path opacity="0.3" d="M144.512 120.994H81.4973C77.2787 120.994 73.8588 124.407 73.8588 128.617C73.8588 132.828 77.2787 136.241 81.4973 136.241H144.512C148.731 136.241 152.151 132.828 152.151 128.617C152.151 124.407 148.731 120.994 144.512 120.994Z" fill="#E0E0E0"/>
</g>
<g opacity="0.5">
<path opacity="0.5" d="M216.575 340.374H114.628L120.597 72.6053H210.606L216.575 340.374Z" fill="url(#paint0_linear_3_15)"/>
</g>
<path d="M214.587 340.374H116.722L122.449 72.6053H208.856L214.587 340.374Z" fill="white"/>
<g opacity="0.05">
<path opacity="0.05" d="M140.115 340.374H116.722L122.449 72.6053H134.383L140.115 340.374Z" fill="black"/>
</g>
<path d="M101.922 239.365H229.864C229.864 244.168 227.953 248.773 224.55 252.169C221.148 255.565 216.533 257.472 211.721 257.472H120.065C115.253 257.472 110.639 255.565 107.236 252.169C103.834 248.773 101.922 244.168 101.922 239.365Z" fill="#2F3476"/>
<path d="M101.922 149.331H229.864C229.864 154.133 227.953 158.739 224.55 162.135C221.148 165.531 216.533 167.438 211.721 167.438H120.065C115.253 167.438 110.639 165.531 107.236 162.135C103.834 158.739 101.922 154.133 101.922 149.331Z" fill="#2F3476"/>
<path d="M165.891 134.307C178.81 134.307 189.283 123.854 189.283 110.961C189.283 98.0669 178.81 87.6144 165.891 87.6144C152.972 87.6144 142.498 98.0669 142.498 110.961C142.498 123.854 152.972 134.307 165.891 134.307Z" fill="#FFFFA5"/>
<path opacity="0.1" d="M212.675 257.467H118.63V258.895H212.675V257.467Z" fill="black"/>
<path opacity="0.1" d="M210.768 167.418H120.065V168.37H210.768V167.418Z" fill="black"/>
<path d="M191.672 340.374H161.595V299.158C161.595 295.178 163.179 291.36 165.999 288.545C168.82 285.731 172.645 284.149 176.633 284.149C180.621 284.151 184.446 285.732 187.266 288.547C190.086 291.361 191.67 295.178 191.672 299.158V340.374Z" fill="#E0E0E0"/>
<path d="M448.027 358H0.233307C0.233307 358 29.1438 291.687 72.9661 279.953C79.2829 278.226 85.8791 277.76 92.3767 278.581C102.947 279.923 112.508 285.455 119.299 293.651C133.663 310.983 177.653 348.752 265.667 305.592C265.667 305.592 297.175 274.147 347.778 311.307C350.913 312.863 354.13 314.249 357.415 315.458C372.941 321.315 403.997 329.475 426.075 312.259C456.624 288.437 448.027 358 448.027 358Z" fill="#4D8AF0"/>
<g opacity="0.3">
<path opacity="0.3" d="M353.479 20.1369H290.465C286.246 20.1369 282.826 23.5501 282.826 27.7604C282.826 31.9708 286.246 35.3839 290.465 35.3839H353.479C357.698 35.3839 361.118 31.9708 361.118 27.7604C361.118 23.5501 357.698 20.1369 353.479 20.1369Z" fill="#E0E0E0"/>
<path opacity="0.3" d="M334.383 35.3839H271.368C267.15 35.3839 263.73 38.7971 263.73 43.0074C263.73 47.2177 267.15 50.6309 271.368 50.6309H334.383C338.602 50.6309 342.022 47.2177 342.022 43.0074C342.022 38.7971 338.602 35.3839 334.383 35.3839Z" fill="#E0E0E0"/>
<path opacity="0.3" d="M353.479 50.6309H290.465C286.246 50.6309 282.826 54.044 282.826 58.2543C282.826 62.4647 286.246 65.8778 290.465 65.8778H353.479C357.698 65.8778 361.118 62.4647 361.118 58.2543C361.118 54.044 357.698 50.6309 353.479 50.6309Z" fill="#E0E0E0"/>
</g>
<g opacity="0.3">
<path opacity="0.3" d="M418.401 126.44H355.386C351.168 126.44 347.748 129.854 347.748 134.064C347.748 138.274 351.168 141.687 355.386 141.687H418.401C422.62 141.687 426.04 138.274 426.04 134.064C426.04 129.854 422.62 126.44 418.401 126.44Z" fill="#E0E0E0"/>
<path opacity="0.3" d="M399.305 141.687H336.29C332.072 141.687 328.652 145.101 328.652 149.311C328.652 153.521 332.072 156.934 336.29 156.934H399.305C403.524 156.934 406.944 153.521 406.944 149.311C406.944 145.101 403.524 141.687 399.305 141.687Z" fill="#E0E0E0"/>
<path opacity="0.3" d="M418.401 156.934H355.386C351.168 156.934 347.748 160.348 347.748 164.558C347.748 168.768 351.168 172.181 355.386 172.181H418.401C422.62 172.181 426.04 168.768 426.04 164.558C426.04 160.348 422.62 156.934 418.401 156.934Z" fill="#E0E0E0"/>
</g>
<g opacity="0.3">
<path opacity="0.3" d="M321.997 131.209H338.705C338.705 131.209 332.41 142.325 321.997 131.209Z" fill="#030B44"/>
<path opacity="0.3" d="M323.007 135.937L333.962 123.348C333.962 123.348 338.243 135.38 323.007 135.937Z" fill="#030B44"/>
</g>
<g opacity="0.3">
<path opacity="0.3" d="M262.325 165.99H279.032C279.032 165.99 272.738 177.107 262.325 165.99Z" fill="#030B44"/>
<path opacity="0.3" d="M263.334 170.718L274.285 158.129C274.285 158.129 278.571 170.162 263.334 170.718Z" fill="#030B44"/>
</g>
<g opacity="0.3">
<path opacity="0.3" d="M240.713 35.4396H258.633C258.633 35.4396 251.882 47.3861 240.713 35.4396Z" fill="#030B44"/>
<path opacity="0.3" d="M241.793 40.5168L253.545 27.0062C253.545 27.0062 258.141 39.9144 241.793 40.5168Z" fill="#030B44"/>
</g>
<g opacity="0.05">
<path opacity="0.05" d="M117.539 257.396C118.046 257.442 118.579 257.467 119.106 257.467H137.366L136.98 239.365H117.94L117.539 257.396Z" fill="black"/>
</g>
<g opacity="0.05">
<path opacity="0.05" d="M136.027 149.316H120.811L120.42 167.418H136.412L136.027 149.316Z" fill="black"/>
</g>
<path d="M474.265 232.941C474.466 232.941 474.66 232.861 474.803 232.719C474.945 232.577 475.025 232.384 475.025 232.182C475.025 231.981 474.945 231.788 474.803 231.645C474.66 231.503 474.466 231.423 474.265 231.423C474.063 231.423 473.869 231.503 473.727 231.645C473.584 231.788 473.504 231.981 473.504 232.182C473.504 232.384 473.584 232.577 473.727 232.719C473.869 232.861 474.063 232.941 474.265 232.941Z" fill="#4D8AF0"/>
<path d="M230.102 53.7643C230.102 71.5777 201.248 86.0148 165.652 86.0148C130.057 86.0148 101.202 71.5777 101.202 53.7643C101.202 35.9509 130.057 0 165.652 0C201.248 0 230.102 35.9559 230.102 53.7643Z" fill="#2F3476"/>
<g opacity="0.05">
<path opacity="0.05" d="M100.827 53.7643C100.827 71.5777 129.681 86.0148 165.277 86.0148V0C129.681 0 100.827 35.9559 100.827 53.7643Z" fill="black"/>
</g>
</g>
<defs>
<linearGradient id="paint0_linear_3_15" x1="165.602" y1="340.374" x2="165.602" y2="72.6053" gradientUnits="userSpaceOnUse">
<stop stop-color="#808080" stop-opacity="0.25"/>
<stop offset="0.54" stop-color="#808080" stop-opacity="0.12"/>
<stop offset="1" stop-color="#808080" stop-opacity="0.1"/>
</linearGradient>
<clipPath id="clip0_3_15">
<rect width="475" height="358" fill="white"/>
</clipPath>
</defs>
</svg>
