<svg width="429" height="429" viewBox="0 0 429 429" fill="none" xmlns="http://www.w3.org/2000/svg">
<path d="M429 328.099H0V328.314H429V328.099Z" fill="#E0E0E0"/>
<path d="M325.465 336.01H295.95V336.224H325.465V336.01Z" fill="#E0E0E0"/>
<path d="M360.188 335.401H343.578V335.615H360.188V335.401Z" fill="#E0E0E0"/>
<path d="M212.218 335.907H190.184V336.122H212.218V335.907Z" fill="#E0E0E0"/>
<path d="M228.134 338.953H213.084V339.167H228.134V338.953Z" fill="#E0E0E0"/>
<path d="M124.127 333.736H78.6614V333.951H124.127V333.736Z" fill="#E0E0E0"/>
<path d="M203.346 289.832H37.6748C36.3769 289.83 35.133 289.313 34.2161 288.394C33.2992 287.476 32.7842 286.231 32.7842 284.933V52.0462C32.7955 50.7558 33.3154 49.522 34.2311 48.6127C35.1468 47.7034 36.3843 47.1922 37.6748 47.1899H203.346C204.645 47.1899 205.891 47.7061 206.81 48.6249C207.729 49.5437 208.245 50.7898 208.245 52.0891V284.933C208.245 286.233 207.729 287.479 206.81 288.397C205.891 289.316 204.645 289.832 203.346 289.832ZM37.6748 47.3615C36.4338 47.3638 35.2445 47.8584 34.3678 48.7367C33.4911 49.615 32.9987 50.8053 32.9987 52.0462V284.933C32.9987 286.174 33.4911 287.364 34.3678 288.243C35.2445 289.121 36.4338 289.616 37.6748 289.618H203.346C204.588 289.616 205.778 289.121 206.656 288.243C207.534 287.365 208.028 286.175 208.031 284.933V52.0462C208.028 50.8045 207.534 49.6142 206.656 48.7362C205.778 47.8581 204.588 47.3638 203.346 47.3615H37.6748Z" fill="#E0E0E0"/>
<path d="M388.94 289.832H223.26C221.962 289.83 220.717 289.313 219.798 288.395C218.88 287.477 218.363 286.232 218.361 284.933V52.0462C218.375 50.755 218.896 49.5212 219.814 48.6122C220.731 47.7031 221.969 47.1921 223.26 47.1899H388.94C390.229 47.1944 391.464 47.7067 392.378 48.6157C393.292 49.5247 393.811 50.7573 393.822 52.0462V284.933C393.822 286.23 393.308 287.473 392.393 288.391C391.478 289.31 390.236 289.828 388.94 289.832ZM223.26 47.3615C222.018 47.3638 220.828 47.8581 219.95 48.7362C219.072 49.6142 218.578 50.8045 218.576 52.0462V284.933C218.578 286.175 219.072 287.365 219.95 288.243C220.828 289.121 222.018 289.616 223.26 289.618H388.94C390.182 289.616 391.372 289.121 392.25 288.243C393.128 287.365 393.622 286.175 393.625 284.933V52.0462C393.622 50.8045 393.128 49.6142 392.25 48.7362C391.372 47.8581 390.182 47.3638 388.94 47.3615H223.26Z" fill="#E0E0E0"/>
<path d="M372.398 68.0137H243.097V179.176H372.398V68.0137Z" fill="#E0E0E0"/>
<path d="M375.272 68.0137H245.971V179.176H375.272V68.0137Z" fill="#F0F0F0"/>
<path d="M370.115 173.959V73.2302L251.128 73.2302V173.959H370.115Z" fill="#FAFAFA"/>
<path d="M332.089 173.959V73.2302H324.315V173.959H332.089Z" fill="#E0E0E0"/>
<path d="M291.197 173.959V73.2302H283.423V173.959H291.197Z" fill="#E0E0E0"/>
<path d="M334.826 177.263V69.3435H327.052V177.263H334.826Z" fill="#F0F0F0"/>
<path d="M293.925 177.271V69.3521H286.152V177.271H293.925Z" fill="#F0F0F0"/>
<path d="M370.115 173.951V73.2217H367.945V173.951H370.115Z" fill="#E0E0E0"/>
<path d="M152.158 155.804C152.158 155.804 136.422 128.7 158.258 107.087C158.258 107.087 163.955 110.802 163.869 115.796C163.784 120.789 157.76 122.05 159.056 126.22C160.352 130.39 166.023 134.466 162.299 137.915C158.576 141.364 162.9 144.418 162.651 148.64C162.402 152.861 152.158 155.804 152.158 155.804Z" fill="#E0E0E0"/>
<path d="M154.629 160.24C154.629 160.24 161.012 129.541 133.488 115.933C133.488 115.933 129.249 121.252 130.914 125.963C132.578 130.673 138.679 129.97 138.764 134.337C138.85 138.704 134.757 144.367 139.374 146.461C143.99 148.554 140.858 152.827 142.428 156.757C143.998 160.686 154.629 160.24 154.629 160.24Z" fill="#E6E6E6"/>
<path d="M140.618 152.441C140.618 152.441 140.892 178.945 151.488 178.945C162.085 178.945 162.351 152.441 162.351 152.441H140.618Z" fill="#F0F0F0"/>
<path d="M76.954 168.974C76.954 168.974 77.546 178.944 100.171 178.944C122.797 178.944 123.398 168.974 123.398 168.974H76.954Z" fill="#E6E6E6"/>
<path d="M315.487 229.086H303.543C302.055 229.086 300.849 230.292 300.849 231.78V251.531C300.849 253.019 302.055 254.225 303.543 254.225H315.487C316.975 254.225 318.181 253.019 318.181 251.531V231.78C318.181 230.292 316.975 229.086 315.487 229.086Z" fill="#F0F0F0"/>
<path d="M347.164 237.306H339.125C338.125 237.306 337.314 238.116 337.314 239.116V252.415C337.314 253.415 338.125 254.225 339.125 254.225H347.164C348.164 254.225 348.974 253.415 348.974 252.415V239.116C348.974 238.116 348.164 237.306 347.164 237.306Z" fill="#E6E6E6"/>
<path d="M348.365 235.667H337.923C337.587 235.667 337.314 235.939 337.314 236.276V236.962C337.314 237.299 337.587 237.572 337.923 237.572H348.365C348.702 237.572 348.974 237.299 348.974 236.962V236.276C348.974 235.939 348.702 235.667 348.365 235.667Z" fill="#F0F0F0"/>
<path d="M273.204 240.24C273.204 240.24 273.633 254.225 290.013 254.225C306.392 254.225 306.829 240.24 306.829 240.24H273.204Z" fill="#E6E6E6"/>
<path d="M232.467 221.767H257.254V216.876H232.467V221.767Z" fill="#E0E0E0"/>
<path d="M380.489 216.885H257.254V221.776H380.489V216.885Z" fill="#F0F0F0"/>
<path d="M232.467 259.116H257.254V254.225H232.467V259.116Z" fill="#E0E0E0"/>
<path d="M380.489 254.225H257.254V259.116H380.489V254.225Z" fill="#F0F0F0"/>
<path d="M241.398 221.767H236.825V328.09H241.398V221.767Z" fill="#E0E0E0"/>
<path d="M261.827 221.767H257.254V328.09H261.827V221.767Z" fill="#F0F0F0"/>
<path d="M364.633 221.767H360.06V328.09H364.633V221.767Z" fill="#E0E0E0"/>
<path d="M380.489 221.767H375.916V328.09H380.489V221.767Z" fill="#F0F0F0"/>
<path d="M76.954 185.165H53.5134V321.664H76.954V185.165Z" fill="#E6E6E6"/>
<path d="M173.608 321.656H58.0179V328.099H173.608V321.656Z" fill="#E6E6E6"/>
<path d="M76.954 321.656H178.104L178.104 185.156H76.954L76.954 321.656Z" fill="#F0F0F0"/>
<path d="M86.169 270.081H168.889V236.739H86.169V270.081Z" fill="#E6E6E6"/>
<path d="M86.169 309.498H168.889V276.156H86.169V309.498Z" fill="#E6E6E6"/>
<path d="M136.817 240.394H118.241C117.636 240.392 117.057 240.151 116.63 239.723C116.202 239.296 115.961 238.717 115.959 238.112C115.959 237.506 116.199 236.925 116.627 236.495C117.054 236.066 117.635 235.824 118.241 235.821H136.817C137.423 235.824 138.003 236.066 138.431 236.495C138.859 236.925 139.099 237.506 139.099 238.112C139.097 238.717 138.856 239.296 138.428 239.723C138 240.151 137.421 240.392 136.817 240.394Z" fill="#F0F0F0"/>
<path d="M86.169 230.656H168.889V197.314H86.169V230.656Z" fill="#E6E6E6"/>
<path d="M136.817 200.978H118.241C117.635 200.976 117.054 200.733 116.627 200.304C116.199 199.875 115.959 199.293 115.959 198.687C115.961 198.082 116.202 197.503 116.63 197.076C117.057 196.648 117.636 196.407 118.241 196.405H136.817C137.421 196.407 138 196.648 138.428 197.076C138.856 197.503 139.097 198.082 139.099 198.687C139.099 199.293 138.859 199.875 138.431 200.304C138.003 200.733 137.423 200.976 136.817 200.978Z" fill="#F0F0F0"/>
<path d="M136.817 279.811H118.241C117.636 279.809 117.057 279.567 116.63 279.14C116.202 278.712 115.961 278.133 115.959 277.529C115.959 276.923 116.199 276.341 116.627 275.912C117.054 275.482 117.635 275.24 118.241 275.238H136.817C137.423 275.24 138.003 275.482 138.431 275.912C138.859 276.341 139.099 276.923 139.099 277.529C139.097 278.133 138.856 278.712 138.428 279.14C138 279.567 137.421 279.809 136.817 279.811Z" fill="#F0F0F0"/>
<path d="M181.227 178.944H76.954V185.165H181.227V178.944Z" fill="#E6E6E6"/>
<path d="M50.2359 185.156H76.954V178.936H50.2359V185.156Z" fill="#E0E0E0"/>
<path d="M103.08 73.2302H65.1565V114.878H103.08V73.2302Z" fill="#E6E6E6"/>
<path d="M107.19 73.2302H68.0137V114.878H107.19V73.2302Z" fill="#F0F0F0"/>
<path d="M103.904 111.591V76.5078H71.2912V111.591H103.904Z" fill="#FAFAFA"/>
<path d="M96.0016 103.089V85.0105H79.202V103.089H96.0016Z" fill="#F0F0F0"/>
<path d="M143.063 60.9351H114.303V91.8316H143.063V60.9351Z" fill="#E6E6E6"/>
<path d="M146.117 60.9351H117.057V91.8316H146.117V60.9351Z" fill="#F0F0F0"/>
<path d="M143.681 89.395V63.3718H119.494V89.395H143.681Z" fill="#FAFAFA"/>
<path d="M131.583 69.7983L124.968 81.2612H138.198L131.583 69.7983Z" fill="#F0F0F0"/>
<path d="M214.5 366.847C306.377 366.847 380.858 362.498 380.858 357.134C380.858 351.77 306.377 347.421 214.5 347.421C122.623 347.421 48.1424 351.77 48.1424 357.134C48.1424 362.498 122.623 366.847 214.5 366.847Z" fill="#F5F5F5"/>
<path d="M360.188 125.114H276.019C271.579 125.114 267.979 128.713 267.979 133.153V156.044C267.979 160.484 271.579 164.084 276.019 164.084H360.188C364.628 164.084 368.228 160.484 368.228 156.044V133.153C368.228 128.713 364.628 125.114 360.188 125.114Z" fill="#505798"/>
<path d="M343.492 131.686H277.743C276.966 131.686 276.336 132.316 276.336 133.093V134.637C276.336 135.414 276.966 136.044 277.743 136.044H343.492C344.269 136.044 344.899 135.414 344.899 134.637V133.093C344.899 132.316 344.269 131.686 343.492 131.686Z" fill="#505798"/>
<path d="M322.668 142.188H277.743C276.966 142.188 276.336 142.818 276.336 143.595V145.139C276.336 145.916 276.966 146.546 277.743 146.546H322.668C323.445 146.546 324.075 145.916 324.075 145.139V143.595C324.075 142.818 323.445 142.188 322.668 142.188Z" fill="#505798"/>
<path d="M310.622 152.69H277.743C276.966 152.69 276.336 153.32 276.336 154.097V155.641C276.336 156.418 276.966 157.048 277.743 157.048H310.622C311.399 157.048 312.029 156.418 312.029 155.641V154.097C312.029 153.32 311.399 152.69 310.622 152.69Z" fill="#505798"/>
<path d="M351.368 152.69H318.49C317.712 152.69 317.082 153.32 317.082 154.097V155.641C317.082 156.418 317.712 157.048 318.49 157.048H351.368C352.145 157.048 352.775 156.418 352.775 155.641V154.097C352.775 153.32 352.145 152.69 351.368 152.69Z" fill="#505798"/>
<g opacity="0.5">
<path opacity="0.5" d="M343.492 131.686H277.743C276.966 131.686 276.336 132.316 276.336 133.093V134.637C276.336 135.414 276.966 136.044 277.743 136.044H343.492C344.269 136.044 344.899 135.414 344.899 134.637V133.093C344.899 132.316 344.269 131.686 343.492 131.686Z" fill="white"/>
<path opacity="0.5" d="M322.668 142.188H277.743C276.966 142.188 276.336 142.818 276.336 143.595V145.139C276.336 145.916 276.966 146.546 277.743 146.546H322.668C323.445 146.546 324.075 145.916 324.075 145.139V143.595C324.075 142.818 323.445 142.188 322.668 142.188Z" fill="white"/>
<path opacity="0.5" d="M310.622 152.69H277.743C276.966 152.69 276.336 153.32 276.336 154.097V155.641C276.336 156.418 276.966 157.048 277.743 157.048H310.622C311.399 157.048 312.029 156.418 312.029 155.641V154.097C312.029 153.32 311.399 152.69 310.622 152.69Z" fill="white"/>
<path opacity="0.5" d="M351.368 152.69H318.49C317.712 152.69 317.082 153.32 317.082 154.097V155.641C317.082 156.418 317.712 157.048 318.49 157.048H351.368C352.145 157.048 352.775 156.418 352.775 155.641V154.097C352.775 153.32 352.145 152.69 351.368 152.69Z" fill="white"/>
</g>
<path d="M292.767 116.027H197.228C190.718 116.027 185.44 121.305 185.44 127.816V161.381C185.44 167.892 190.718 173.17 197.228 173.17H292.767C299.278 173.17 304.556 167.892 304.556 161.381V127.816C304.556 121.305 299.278 116.027 292.767 116.027Z" fill="#505798"/>
<path d="M296.147 125.663H199.76C198.618 125.663 197.692 126.589 197.692 127.731V129.987C197.692 131.129 198.618 132.055 199.76 132.055H296.147C297.289 132.055 298.215 131.129 298.215 129.987V127.731C298.215 126.589 297.289 125.663 296.147 125.663Z" fill="#505798"/>
<path d="M265.611 141.064H199.76C198.618 141.064 197.692 141.989 197.692 143.132V145.388C197.692 146.53 198.618 147.456 199.76 147.456H265.611C266.753 147.456 267.679 146.53 267.679 145.388V143.132C267.679 141.989 266.753 141.064 265.611 141.064Z" fill="#505798"/>
<path d="M247.953 156.465H199.76C198.618 156.465 197.692 157.391 197.692 158.533V160.789C197.692 161.931 198.618 162.857 199.76 162.857H247.953C249.095 162.857 250.021 161.931 250.021 160.789V158.533C250.021 157.391 249.095 156.465 247.953 156.465Z" fill="#505798"/>
<path d="M299.657 156.465H259.502C258.36 156.465 257.434 157.391 257.434 158.533V160.789C257.434 161.931 258.36 162.857 259.502 162.857H299.657C300.799 162.857 301.724 161.931 301.724 160.789V158.533C301.724 157.391 300.799 156.465 299.657 156.465Z" fill="#505798"/>
<g opacity="0.5">
<path opacity="0.5" d="M296.147 125.663H199.76C198.618 125.663 197.692 126.589 197.692 127.731V129.987C197.692 131.129 198.618 132.055 199.76 132.055H296.147C297.289 132.055 298.215 131.129 298.215 129.987V127.731C298.215 126.589 297.289 125.663 296.147 125.663Z" fill="white"/>
<path opacity="0.5" d="M265.611 141.064H199.76C198.618 141.064 197.692 141.99 197.692 143.132V145.388C197.692 146.53 198.618 147.456 199.76 147.456H265.611C266.753 147.456 267.679 146.53 267.679 145.388V143.132C267.679 141.99 266.753 141.064 265.611 141.064Z" fill="white"/>
<path opacity="0.5" d="M247.953 156.465H199.76C198.618 156.465 197.692 157.391 197.692 158.533V160.789C197.692 161.931 198.618 162.857 199.76 162.857H247.953C249.095 162.857 250.021 161.931 250.021 160.789V158.533C250.021 157.391 249.095 156.465 247.953 156.465Z" fill="white"/>
<path opacity="0.5" d="M299.657 156.465H259.502C258.36 156.465 257.434 157.391 257.434 158.533V160.789C257.434 161.931 258.36 162.857 259.502 162.857H299.657C300.799 162.857 301.724 161.931 301.724 160.789V158.533C301.724 157.391 300.799 156.465 299.657 156.465Z" fill="white"/>
</g>
<path d="M233.367 183.526H187.353C184.311 183.526 181.845 185.993 181.845 189.035V257.966C181.845 261.009 184.311 263.475 187.353 263.475H233.367C236.41 263.475 238.876 261.009 238.876 257.966V189.035C238.876 185.993 236.41 183.526 233.367 183.526Z" fill="#505798"/>
<path opacity="0.4" d="M233.367 183.526H187.353C184.311 183.526 181.845 185.993 181.845 189.035V257.966C181.845 261.009 184.311 263.475 187.353 263.475H233.367C236.41 263.475 238.876 261.009 238.876 257.966V189.035C238.876 185.993 236.41 183.526 233.367 183.526Z" fill="black"/>
<path d="M231.257 191.866H189.455C188.896 191.866 188.443 192.319 188.443 192.878V194.397C188.443 194.956 188.896 195.41 189.455 195.41H231.257C231.816 195.41 232.269 194.956 232.269 194.397V192.878C232.269 192.319 231.816 191.866 231.257 191.866Z" fill="#FAFAFA"/>
<path d="M217.949 200.395H189.455C188.896 200.395 188.443 200.848 188.443 201.407V202.926C188.443 203.485 188.896 203.938 189.455 203.938H217.949C218.508 203.938 218.962 203.485 218.962 202.926V201.407C218.962 200.848 218.508 200.395 217.949 200.395Z" fill="#FAFAFA"/>
<path d="M231.257 208.932H189.455C188.896 208.932 188.443 209.385 188.443 209.944V211.463C188.443 212.022 188.896 212.475 189.455 212.475H231.257C231.816 212.475 232.269 212.022 232.269 211.463V209.944C232.269 209.385 231.816 208.932 231.257 208.932Z" fill="#FAFAFA"/>
<path d="M204.993 217.46H189.455C188.896 217.46 188.443 217.913 188.443 218.473V219.991C188.443 220.55 188.896 221.004 189.455 221.004H204.993C205.553 221.004 206.006 220.55 206.006 219.991V218.473C206.006 217.913 205.553 217.46 204.993 217.46Z" fill="#FAFAFA"/>
<path d="M226.735 217.46H211.197C210.638 217.46 210.184 217.913 210.184 218.473V219.991C210.184 220.55 210.638 221.004 211.197 221.004H226.735C227.294 221.004 227.748 220.55 227.748 219.991V218.473C227.748 217.913 227.294 217.46 226.735 217.46Z" fill="#FAFAFA"/>
<path d="M231.257 225.997H189.455C188.896 225.997 188.443 226.451 188.443 227.01V228.528C188.443 229.088 188.896 229.541 189.455 229.541H231.257C231.816 229.541 232.269 229.088 232.269 228.528V227.01C232.269 226.451 231.816 225.997 231.257 225.997Z" fill="#FAFAFA"/>
<path d="M231.257 234.526H189.455C188.896 234.526 188.443 234.979 188.443 235.538V237.057C188.443 237.616 188.896 238.069 189.455 238.069H231.257C231.816 238.069 232.269 237.616 232.269 237.057V235.538C232.269 234.979 231.816 234.526 231.257 234.526Z" fill="#FAFAFA"/>
<path d="M223.844 243.063H189.455C188.896 243.063 188.443 243.516 188.443 244.075V245.594C188.443 246.153 188.896 246.607 189.455 246.607H223.844C224.403 246.607 224.856 246.153 224.856 245.594V244.075C224.856 243.516 224.403 243.063 223.844 243.063Z" fill="#FAFAFA"/>
<path d="M205.5 251.591H189.455C188.896 251.591 188.443 252.045 188.443 252.604V254.122C188.443 254.682 188.896 255.135 189.455 255.135H205.5C206.059 255.135 206.512 254.682 206.512 254.122V252.604C206.512 252.045 206.059 251.591 205.5 251.591Z" fill="#FAFAFA"/>
<path d="M245.817 183.037H181.99L210.21 205.491L253.479 221.793V190.682C253.474 188.653 252.665 186.708 251.229 185.275C249.792 183.842 247.846 183.037 245.817 183.037Z" fill="#505798"/>
<path opacity="0.4" d="M245.817 183.037H181.99L210.21 205.491L253.479 221.793V190.682C253.474 188.653 252.665 186.708 251.229 185.275C249.792 183.842 247.846 183.037 245.817 183.037Z" fill="black"/>
<path d="M243.028 194.603H196.328C195.626 194.603 195.058 195.172 195.058 195.873V198.241C195.058 198.942 195.626 199.511 196.328 199.511H243.028C243.73 199.511 244.298 198.942 244.298 198.241V195.873C244.298 195.172 243.73 194.603 243.028 194.603Z" fill="#FAFAFA"/>
<path d="M356.199 243.818V198.927C356.199 195.487 353.41 192.698 349.97 192.698H272.02C268.58 192.698 265.791 195.487 265.791 198.927V243.818C265.791 247.258 268.58 250.047 272.02 250.047H349.97C353.41 250.047 356.199 247.258 356.199 243.818Z" fill="#505798"/>
<path d="M370.433 229.592V184.702C370.433 181.262 367.644 178.473 364.204 178.473H286.255C282.814 178.473 280.025 181.262 280.025 184.702V229.592C280.025 233.033 282.814 235.821 286.255 235.821H364.204C367.644 235.821 370.433 233.033 370.433 229.592Z" fill="#505798"/>
<path opacity="0.5" d="M370.433 229.592V184.702C370.433 181.262 367.644 178.473 364.204 178.473H286.255C282.814 178.473 280.025 181.262 280.025 184.702V229.592C280.025 233.033 282.814 235.821 286.255 235.821H364.204C367.644 235.821 370.433 233.033 370.433 229.592Z" fill="white"/>
<path d="M362.522 214.208V186.572C362.522 185.042 361.281 183.801 359.751 183.801H334.277C332.746 183.801 331.505 185.042 331.505 186.572V214.208C331.505 215.739 332.746 216.98 334.277 216.98H359.751C361.281 216.98 362.522 215.739 362.522 214.208Z" fill="#505798"/>
<path opacity="0.7" d="M362.522 214.208V186.572C362.522 185.042 361.281 183.801 359.751 183.801H334.277C332.746 183.801 331.505 185.042 331.505 186.572V214.208C331.505 215.739 332.746 216.98 334.277 216.98H359.751C361.281 216.98 362.522 215.739 362.522 214.208Z" fill="white"/>
<path d="M326.649 227.576V206.401C326.649 205.225 325.697 204.273 324.521 204.273H305.002C303.827 204.273 302.874 205.225 302.874 206.401V227.576C302.874 228.751 303.827 229.704 305.002 229.704H324.521C325.697 229.704 326.649 228.751 326.649 227.576Z" fill="#505798"/>
<path opacity="0.3" d="M326.649 227.576V206.401C326.649 205.225 325.697 204.273 324.521 204.273H305.002C303.827 204.273 302.874 205.225 302.874 206.401V227.576C302.874 228.751 303.827 229.704 305.002 229.704H324.521C325.697 229.704 326.649 228.751 326.649 227.576Z" fill="white"/>
<path d="M314.757 93.3161V81.8789C314.757 78.3818 311.922 75.5469 308.425 75.5469L98.9617 75.5469C95.4646 75.5469 92.6297 78.3818 92.6297 81.8789V93.3161C92.6297 96.8132 95.4646 99.6481 98.9617 99.6481L308.425 99.6481C311.922 99.6481 314.757 96.8132 314.757 93.3161Z" fill="#505798"/>
<path opacity="0.5" d="M314.757 93.3161V81.8789C314.757 78.3818 311.922 75.5469 308.425 75.5469L98.9617 75.5469C95.4646 75.5469 92.6297 78.3818 92.6297 81.8789V93.3161C92.6297 96.8132 95.4646 99.6481 98.9617 99.6481L308.425 99.6481C311.922 99.6481 314.757 96.8132 314.757 93.3161Z" fill="white"/>
<path d="M275.126 103.681V95.3838H214.852V103.681H275.126Z" fill="#505798"/>
<path opacity="0.5" d="M275.126 103.681V95.3838H214.852V103.681H275.126Z" fill="white"/>
<path d="M336.37 57.7091V46.272C336.37 42.7749 333.535 39.9399 330.038 39.9399L120.575 39.9399C117.078 39.9399 114.243 42.7749 114.243 46.272V57.7091C114.243 61.2062 117.078 64.0412 120.575 64.0412L330.038 64.0412C333.535 64.0412 336.37 61.2062 336.37 57.7091Z" fill="#505798"/>
<path d="M111.849 166.675C111.094 168.391 110.262 170.244 109.532 172.055C108.803 173.865 108.048 175.727 107.387 177.58C106.032 181.193 104.945 184.901 104.135 188.674L103.887 190.047L103.801 190.562C103.801 190.708 103.801 190.896 103.749 191.068C103.717 191.903 103.734 192.74 103.801 193.573C103.964 195.384 104.256 197.323 104.659 199.262C105.38 203.149 106.298 207.155 107.233 211.102L102.831 212.818C100.78 209.078 99.0321 205.179 97.6061 201.158C96.8548 199.065 96.247 196.924 95.7871 194.749C95.5294 193.545 95.3688 192.323 95.3066 191.094C95.3066 190.751 95.3066 190.424 95.3066 190.056C95.3066 189.687 95.3066 189.275 95.3667 189.035L95.5383 187.319C95.7947 185.109 96.1872 182.916 96.7138 180.755C97.1942 178.61 97.812 176.525 98.4298 174.466C99.0475 172.406 99.8197 170.382 100.635 168.391C101.038 167.396 101.493 166.409 101.888 165.422C102.282 164.436 102.746 163.492 103.295 162.437L111.849 166.675Z" fill="#E4897B"/>
<path d="M107.001 209.944L110.347 213.213L103.046 216.645C103.046 216.645 101.278 213.548 102.505 210.751L107.001 209.944Z" fill="#E4897B"/>
<path d="M113.05 218.078L106.881 220.6L103.054 216.611L110.347 213.213L113.05 218.078Z" fill="#E4897B"/>
<path opacity="0.4" d="M238.018 214.56C225.878 213.197 214.415 208.265 205.077 200.388C195.74 192.511 188.947 182.043 185.559 170.306C182.17 158.569 182.337 146.091 186.039 134.449C189.741 122.807 196.812 112.525 206.357 104.901C215.902 97.2768 227.494 92.6541 239.666 91.6169C251.838 90.5797 264.044 93.1747 274.742 99.0738C285.439 104.973 294.147 113.911 299.766 124.759C305.384 135.606 307.66 147.876 306.306 160.017C305.406 168.083 302.926 175.893 299.007 183.001C295.087 190.108 289.806 196.374 283.464 201.439C277.122 206.504 269.844 210.27 262.047 212.522C254.249 214.773 246.083 215.466 238.018 214.56Z" fill="#FAFAFA"/>
<path opacity="0.4" d="M282.96 104.496L189.009 179.562C188.614 178.704 188.228 177.846 187.868 176.988C185.512 171.386 184.006 165.463 183.398 159.416L264.547 94.5774C271.21 96.7998 277.439 100.155 282.96 104.496Z" fill="#FAFAFA"/>
<path opacity="0.4" d="M304.641 137.383L216.31 207.953C207.919 203.579 200.647 197.332 195.058 189.695L291.506 112.63C297.722 119.766 302.217 128.235 304.641 137.383Z" fill="#FAFAFA"/>
<path d="M175.367 129.558L174.552 129.283C175.963 125.118 177.737 121.084 179.854 117.228L180.6 117.64C178.512 121.453 176.761 125.44 175.367 129.558ZM185.783 109.532L185.088 109.026C192.139 99.4918 201.367 91.7814 212.003 86.5378L212.389 87.31C201.874 92.4995 192.752 100.127 185.783 109.558V109.532ZM279.811 88.4855C277.007 86.9816 274.106 85.666 271.128 84.5472L271.437 83.7407C274.445 84.8857 277.374 86.2271 280.206 87.7562L279.811 88.4855Z" fill="#505798"/>
<path opacity="0.3" d="M175.367 129.558L174.552 129.283C175.963 125.118 177.737 121.084 179.854 117.228L180.6 117.64C178.512 121.453 176.761 125.44 175.367 129.558ZM185.783 109.532L185.088 109.026C192.139 99.4918 201.367 91.7814 212.003 86.5378L212.389 87.31C201.874 92.4995 192.752 100.127 185.783 109.558V109.532ZM279.811 88.4855C277.007 86.9816 274.106 85.666 271.128 84.5472L271.437 83.7407C274.445 84.8857 277.374 86.2271 280.206 87.7562L279.811 88.4855Z" fill="black"/>
<path d="M308.768 121.613C300.824 105.135 286.843 92.3469 269.724 85.8988C252.605 79.4507 233.661 79.8374 216.82 86.9788C199.979 94.1203 186.531 107.469 179.266 124.257C172 141.045 171.473 159.985 177.795 177.151C172.063 179.159 166.401 181.313 160.772 183.535C152.655 186.755 144.613 190.119 136.645 193.625C128.683 197.151 120.755 200.746 112.904 204.504C108.966 206.349 105.079 208.297 101.158 210.184C99.1184 211.061 97.2703 212.329 95.7185 213.917C94.8787 214.796 94.1392 215.766 93.5134 216.808C92.7499 218.041 92.1717 219.379 91.7974 220.781C91.1518 223.305 91.431 225.978 92.5845 228.315C93.738 230.652 95.6897 232.499 98.0866 233.522C99.4176 234.08 100.822 234.444 102.256 234.603C103.468 234.74 104.691 234.74 105.903 234.603C108.105 234.336 110.233 233.639 112.166 232.552C116.053 230.588 119.966 228.691 123.827 226.675C131.549 222.737 139.271 218.627 146.898 214.457C154.526 210.287 162.162 205.92 169.609 201.441C174.757 198.327 179.957 195.144 185.053 191.814C194.84 207.264 210.195 218.357 227.938 222.793C245.68 227.23 264.449 224.67 280.355 215.645C296.262 206.621 308.087 191.822 313.38 174.316C318.673 156.81 317.028 137.939 308.786 121.613H308.768ZM269.764 203.578C259.793 208.499 248.586 210.354 237.561 208.907C226.536 207.46 216.187 202.776 207.824 195.448C199.461 188.12 193.458 178.476 190.575 167.737C187.693 156.998 188.059 145.644 191.628 135.113C195.197 124.582 201.809 115.346 210.627 108.572C219.446 101.798 230.075 97.7912 241.17 97.058C252.266 96.3247 263.329 98.8979 272.962 104.452C282.595 110.007 290.365 118.292 295.289 128.262C298.559 134.884 300.493 142.084 300.98 149.453C301.467 156.821 300.498 164.214 298.127 171.207C295.757 178.201 292.032 184.66 287.165 190.214C282.299 195.768 276.386 200.309 269.764 203.578Z" fill="#505798"/>
<path opacity="0.3" d="M308.768 121.613C300.824 105.135 286.843 92.3469 269.724 85.8988C252.605 79.4507 233.661 79.8374 216.82 86.9788C199.979 94.1203 186.531 107.469 179.266 124.257C172 141.045 171.473 159.985 177.795 177.151C172.063 179.159 166.401 181.313 160.772 183.535C152.655 186.755 144.613 190.119 136.645 193.625C128.683 197.151 120.755 200.746 112.904 204.504C108.966 206.349 105.079 208.297 101.158 210.184C99.1184 211.061 97.2703 212.329 95.7185 213.917C94.8787 214.796 94.1392 215.766 93.5134 216.808C92.7499 218.041 92.1717 219.379 91.7974 220.781C91.1518 223.305 91.431 225.978 92.5845 228.315C93.738 230.652 95.6897 232.499 98.0866 233.522C99.4176 234.08 100.822 234.444 102.256 234.603C103.468 234.74 104.691 234.74 105.903 234.603C108.105 234.336 110.233 233.639 112.166 232.552C116.053 230.588 119.966 228.691 123.827 226.675C131.549 222.737 139.271 218.627 146.898 214.457C154.526 210.287 162.162 205.92 169.609 201.441C174.757 198.327 179.957 195.144 185.053 191.814C194.84 207.264 210.195 218.357 227.938 222.793C245.68 227.23 264.449 224.67 280.355 215.645C296.262 206.621 308.087 191.822 313.38 174.316C318.673 156.81 317.028 137.939 308.786 121.613H308.768ZM269.764 203.578C259.793 208.499 248.586 210.354 237.561 208.907C226.536 207.46 216.187 202.776 207.824 195.448C199.461 188.12 193.458 178.476 190.575 167.737C187.693 156.998 188.059 145.644 191.628 135.113C195.197 124.582 201.809 115.346 210.627 108.572C219.446 101.798 230.075 97.7912 241.17 97.058C252.266 96.3247 263.329 98.8979 272.962 104.452C282.595 110.007 290.365 118.292 295.289 128.262C298.559 134.884 300.493 142.084 300.98 149.453C301.467 156.821 300.498 164.214 298.127 171.207C295.757 178.201 292.032 184.66 287.165 190.214C282.299 195.768 276.386 200.309 269.764 203.578Z" fill="black"/>
<path d="M135.564 136.036C135.564 136.542 135.83 136.954 136.165 136.954C136.499 136.954 136.765 136.542 136.765 136.036C136.765 135.53 136.499 135.118 136.165 135.118C135.83 135.118 135.564 135.564 135.564 136.036Z" fill="#263238"/>
<path d="M135.804 136.954C136.412 138.508 137.229 139.972 138.232 141.304C137.885 141.552 137.488 141.722 137.069 141.8C136.649 141.879 136.218 141.865 135.804 141.759V136.954Z" fill="#DE5753"/>
<path d="M133.788 133.213C133.74 133.213 133.693 133.202 133.65 133.181C133.607 133.161 133.569 133.13 133.539 133.093C133.494 133.027 133.477 132.947 133.489 132.869C133.502 132.791 133.545 132.72 133.608 132.673C133.986 132.386 134.427 132.195 134.895 132.116C135.362 132.037 135.842 132.072 136.293 132.218C136.334 132.229 136.372 132.248 136.404 132.275C136.437 132.301 136.463 132.334 136.482 132.372C136.501 132.409 136.512 132.45 136.514 132.492C136.516 132.534 136.51 132.576 136.495 132.615C136.48 132.655 136.456 132.69 136.427 132.72C136.397 132.75 136.361 132.773 136.322 132.788C136.283 132.803 136.241 132.81 136.199 132.807C136.157 132.805 136.116 132.794 136.079 132.775C135.72 132.666 135.341 132.643 134.972 132.71C134.603 132.778 134.256 132.932 133.96 133.162C133.909 133.195 133.849 133.213 133.788 133.213Z" fill="#263238"/>
<path d="M118.232 139.854C119.09 144.461 120.034 152.913 116.808 155.993C116.808 155.993 118.069 160.669 126.641 160.669C136.079 160.669 131.137 155.993 131.137 155.993C125.989 154.757 126.135 150.948 127.027 147.362L118.232 139.854Z" fill="#E4897B"/>
<path d="M112.956 158.421C113.977 156.834 112.261 152.981 112.261 152.981C112.261 152.981 127.43 149.163 133.634 155.023C134.921 156.233 133.496 158.018 133.496 158.018L112.956 158.421Z" fill="#505798"/>
<path opacity="0.1" d="M112.956 158.421C113.977 156.834 112.261 152.981 112.261 152.981C112.261 152.981 127.43 149.163 133.634 155.023C134.921 156.233 133.496 158.018 133.496 158.018L112.956 158.421Z" fill="black"/>
<path d="M87.8592 333.479C87.0613 333.479 85.7829 332.149 85.4053 331.651C85.3891 331.627 85.3804 331.599 85.3804 331.57C85.3804 331.541 85.3891 331.512 85.4053 331.488C85.4192 331.464 85.4392 331.445 85.4634 331.431C85.4875 331.417 85.5149 331.411 85.5426 331.411C85.637 331.411 87.7391 331.6 88.314 332.346C88.3765 332.425 88.4211 332.517 88.4448 332.614C88.4685 332.712 88.4707 332.814 88.4512 332.913C88.4438 333.04 88.3968 333.163 88.3169 333.263C88.237 333.362 88.128 333.435 88.0051 333.47L87.8592 333.479ZM85.8687 331.763C86.495 332.484 87.4989 333.299 87.9279 333.196C87.9279 333.196 88.0995 333.153 88.1509 332.878C88.1622 332.821 88.1604 332.762 88.1455 332.705C88.1306 332.649 88.1032 332.597 88.0651 332.552C87.4295 332.071 86.6648 331.79 85.8687 331.746V331.763Z" fill="#505798"/>
<path d="M85.963 331.746C85.809 331.761 85.6538 331.761 85.4997 331.746C85.4726 331.744 85.4467 331.734 85.4253 331.717C85.4039 331.7 85.388 331.677 85.3796 331.651C85.3675 331.628 85.3612 331.601 85.3612 331.574C85.3612 331.547 85.3675 331.521 85.3796 331.497C85.4397 331.446 86.7009 330.133 87.6533 330.133C87.7673 330.13 87.8805 330.152 87.9855 330.196C88.0905 330.241 88.1849 330.307 88.2625 330.39C88.3479 330.462 88.4063 330.56 88.4282 330.669C88.45 330.779 88.4339 330.892 88.3826 330.991C88.1338 331.471 86.821 331.746 85.963 331.746ZM85.8515 331.446C86.7095 331.446 87.9536 331.18 88.1595 330.802C88.1595 330.802 88.2196 330.69 88.0823 330.553C88.0323 330.499 87.9711 330.456 87.903 330.428C87.8348 330.4 87.7613 330.387 87.6876 330.39C86.9843 330.552 86.345 330.919 85.8515 331.446Z" fill="#505798"/>
<path d="M144.479 352.956C143.828 352.951 143.18 352.891 142.54 352.775C142.508 352.769 142.479 352.752 142.459 352.727C142.438 352.702 142.427 352.67 142.428 352.638C142.423 352.609 142.427 352.578 142.439 352.551C142.452 352.523 142.471 352.5 142.497 352.484C142.591 352.432 144.788 351.171 145.843 351.463C145.941 351.485 146.033 351.527 146.114 351.586C146.195 351.645 146.264 351.72 146.315 351.806C146.382 351.901 146.418 352.015 146.418 352.132C146.418 352.249 146.382 352.363 146.315 352.458C146.066 352.844 145.285 352.956 144.479 352.956ZM143.029 352.552C144.195 352.724 145.791 352.715 146.083 352.304C146.126 352.252 146.16 352.158 146.083 351.977C146.018 351.871 145.913 351.794 145.791 351.763C145.122 351.591 143.792 352.158 143.029 352.552Z" fill="#505798"/>
<path d="M142.574 352.784C142.546 352.792 142.516 352.792 142.488 352.784C142.464 352.769 142.446 352.747 142.435 352.72C142.424 352.694 142.422 352.666 142.428 352.638C142.486 351.745 142.829 350.894 143.406 350.21C143.523 350.109 143.66 350.035 143.808 349.992C143.956 349.949 144.112 349.938 144.264 349.961C144.676 349.961 144.796 350.21 144.822 350.373C144.933 351.085 143.432 352.449 142.668 352.792L142.574 352.784ZM144.11 350.21C143.921 350.209 143.738 350.276 143.595 350.399C143.11 350.941 142.809 351.623 142.737 352.346C143.509 351.874 144.539 350.81 144.453 350.381C144.453 350.381 144.453 350.236 144.161 350.21H144.11Z" fill="#505798"/>
<path d="M135.641 352.629H141.948L142.574 338.035H136.268L135.641 352.629Z" fill="#E4897B"/>
<path d="M79.4851 327.576L84.7532 331.025L96.3877 321.201L91.111 317.743L79.4851 327.576Z" fill="#E4897B"/>
<path d="M85.6198 330.699L80.1458 326.212C80.0491 326.132 79.9278 326.089 79.8026 326.089C79.6774 326.089 79.5561 326.132 79.4594 326.212L74.9463 329.755C74.8373 329.842 74.7492 329.952 74.6887 330.078C74.6282 330.203 74.5967 330.341 74.5967 330.48C74.5967 330.619 74.6282 330.757 74.6887 330.883C74.7492 331.008 74.8373 331.118 74.9463 331.205C76.8854 332.741 77.9064 333.393 80.3174 335.366C81.8017 336.576 85.4654 340.283 87.5332 341.956C89.6009 343.629 91.4971 341.827 90.8107 340.961C87.7305 337.057 86.5207 333.719 86.1689 331.651C86.1081 331.277 85.9129 330.939 85.6198 330.699Z" fill="#263238"/>
<path d="M141.905 351.9H135.041C134.915 351.901 134.794 351.943 134.696 352.021C134.598 352.099 134.529 352.207 134.5 352.329L133.256 357.932C133.225 358.068 133.225 358.209 133.256 358.345C133.287 358.48 133.349 358.607 133.437 358.715C133.525 358.824 133.636 358.911 133.762 358.97C133.888 359.029 134.026 359.058 134.165 359.056C136.645 359.013 140.232 358.867 143.355 358.867C147.001 358.867 150.159 359.064 154.431 359.064C157.005 359.064 157.743 356.448 156.654 356.216C151.729 355.135 147.696 355.023 143.44 352.389C142.984 352.087 142.452 351.918 141.905 351.9Z" fill="#263238"/>
<path d="M104.384 157.872C98.9188 160.446 95.8043 177.692 95.8043 177.692L109.163 183.02C111.119 178.245 112.699 173.326 113.891 168.305C115.727 160.36 109.978 155.212 104.384 157.872Z" fill="#263238"/>
<path d="M111.471 167.593C108.168 170.939 106.658 177.494 105.997 181.759L109.198 183.037C111.097 178.398 112.646 173.623 113.831 168.751C113.548 166.932 112.844 166.203 111.471 167.593Z" fill="#203048"/>
<path d="M140.832 157.752C140.832 157.752 147.542 165.337 141.21 212.235H107.499C107.267 207.087 110.519 181.819 105.525 157.434C109.251 156.712 113.02 156.236 116.808 156.01C121.58 155.727 126.365 155.727 131.137 156.01C134.409 156.339 137.65 156.922 140.832 157.752Z" fill="#263238"/>
<path d="M143.912 175.959L138.232 166.169C137.136 170.737 136.688 175.436 136.902 180.129C137.057 183.492 140.137 195.95 142.908 197.769C143.644 190.523 143.979 183.242 143.912 175.959Z" fill="#203048"/>
<path d="M144.702 164.453C145.56 168.623 146.418 172.896 147.336 177.083C148.254 181.27 149.206 185.474 150.313 189.532C150.596 190.536 150.862 191.566 151.171 192.527L151.403 193.265L151.514 193.633V193.591C151.454 193.513 151.386 193.505 151.437 193.591C151.79 193.976 152.24 194.257 152.741 194.406C153.552 194.707 154.388 194.94 155.238 195.101C159.294 195.744 163.402 196.011 167.507 195.899L168.322 200.566C167.173 200.935 166.1 201.201 164.968 201.467C163.835 201.733 162.72 201.956 161.579 202.128C159.218 202.521 156.824 202.682 154.431 202.608C153.102 202.572 151.779 202.4 150.485 202.093C148.839 201.733 147.292 201.016 145.954 199.991C145.081 199.286 144.36 198.41 143.835 197.417C143.698 197.16 143.578 196.868 143.466 196.619L143.312 196.216L142.994 195.358C142.557 194.268 142.196 193.196 141.802 192.123C140.352 187.833 139.142 183.5 138.078 179.176C137.014 174.852 136.096 170.536 135.332 166.1L144.702 164.453Z" fill="#E4897B"/>
<path d="M132.415 162.351C130.639 168.108 137.838 185.277 137.838 185.277L152.175 181.673C152.175 181.673 151.626 172.75 148.357 165.671C143.432 154.998 134.543 155.444 132.415 162.351Z" fill="#263238"/>
<path d="M167.387 195.899L174.526 195.719L171.094 203.149C171.094 203.149 168.185 203.535 165.8 199.614L163.286 196.611L166.177 196.036C166.575 195.952 166.981 195.906 167.387 195.899Z" fill="#E4897B"/>
<path d="M179.03 197.1L174.946 203.26L171.094 203.149L174.526 195.719L179.03 197.1Z" fill="#E4897B"/>
<path d="M142.574 338.035L142.248 345.56H135.942L136.268 338.035H142.574Z" fill="#CE6F64"/>
<path d="M91.111 317.743L96.3877 321.201L90.3817 326.263L85.1136 322.814L91.111 317.743Z" fill="#CE6F64"/>
<path d="M118.627 134.946C119.005 141.184 118.91 144.865 122.059 148.065C126.795 152.896 134.509 150.038 136.002 143.775C137.349 138.164 136.508 128.897 130.399 126.409C129.051 125.865 127.587 125.672 126.144 125.849C124.701 126.026 123.327 126.566 122.15 127.42C120.973 128.273 120.033 129.411 119.417 130.728C118.8 132.044 118.529 133.496 118.627 134.946Z" fill="#E4897B"/>
<path d="M111.283 133.848C112.836 139.537 116.491 146.092 121.218 146.512C127.087 147.027 129.738 140.961 130.51 134.697C134.028 132.286 132.183 129.635 135.71 129.301C140.24 128.872 138.79 120.583 132.827 119.253C132.827 119.253 134.826 122.986 130.63 121.098C126.64 119.202 122.208 118.433 117.812 118.876C117.812 118.876 123.166 121.553 117.932 122.746C112.698 123.938 111.137 127.164 113.548 129.112C113.548 129.12 110.262 130.107 111.283 133.848Z" fill="#263238"/>
<path d="M126.933 135.984C127.048 137.535 127.672 139.004 128.709 140.163C130.081 141.682 131.514 140.738 131.754 138.893C131.978 137.237 131.523 134.449 129.841 133.608C128.159 132.767 126.821 134.114 126.933 135.984Z" fill="#E4897B"/>
<path d="M129.249 212.235C129.249 212.235 135.392 256.722 130.553 274.551C122.883 302.78 93.5563 326.606 93.5563 326.606L83.6121 320.086C83.6121 320.086 108.588 299.965 111.643 276.327C114.389 255.109 107.499 229.446 107.499 212.226L129.249 212.235Z" fill="#505798"/>
<path opacity="0.1" d="M129.249 212.235C129.249 212.235 135.392 256.722 130.553 274.551C122.883 302.78 93.5563 326.606 93.5563 326.606L83.6121 320.086C83.6121 320.086 108.588 299.965 111.643 276.327C114.389 255.109 107.499 229.446 107.499 212.226L129.249 212.235Z" fill="black"/>
<path d="M131.789 237.666C130.153 235.792 128.353 234.07 126.409 232.518C127.456 246.958 128.314 268.348 127.362 283.543C128.642 280.63 129.709 277.628 130.553 274.56C132.913 265.851 132.664 250.811 131.789 237.666Z" fill="#505798"/>
<path opacity="0.3" d="M131.789 237.666C130.153 235.792 128.353 234.07 126.409 232.518C127.456 246.958 128.314 268.348 127.362 283.543C128.642 280.63 129.709 277.628 130.553 274.56C132.913 265.851 132.664 250.811 131.789 237.666Z" fill="black"/>
<path d="M97.5632 324.384C97.6061 324.384 93.7108 326.958 93.7108 326.958L82.8485 319.837L86.2805 316.997L97.5632 324.384Z" fill="#505798"/>
<path opacity="0.3" d="M97.5632 324.384C97.6061 324.384 93.7108 326.958 93.7108 326.958L82.8485 319.837L86.2805 316.997L97.5632 324.384Z" fill="black"/>
<path d="M141.21 212.235C141.21 212.235 150.699 252.475 151.368 271.703C152.123 293.256 144.599 344.101 144.599 344.101H133.917C133.917 344.101 132.604 292.861 132.132 273.23C131.609 251.823 119.047 212.235 119.047 212.235H141.21Z" fill="#505798"/>
<path opacity="0.1" d="M141.21 212.235C141.21 212.235 150.699 252.475 151.368 271.703C152.123 293.256 144.599 344.101 144.599 344.101H133.917C133.917 344.101 132.604 292.861 132.132 273.23C131.609 251.823 119.047 212.235 119.047 212.235H141.21Z" fill="black"/>
<path d="M146.649 339.854C146.701 339.854 146.049 344.281 146.049 344.281H133.059L132.707 340.326L146.649 339.854Z" fill="#505798"/>
<path opacity="0.3" d="M146.649 339.854C146.701 339.854 146.049 344.281 146.049 344.281H133.059L132.707 340.326L146.649 339.854Z" fill="black"/>
<path d="M305.448 173.565C306.177 174.251 306.752 174.835 307.353 175.487C307.953 176.139 308.52 176.774 309.069 177.434C310.184 178.747 311.231 180.128 312.243 181.518C314.265 184.307 316.064 187.25 317.623 190.321L317.94 190.948C318.096 191.251 318.225 191.567 318.327 191.892C318.534 192.519 318.661 193.171 318.704 193.831C318.76 194.994 318.6 196.158 318.232 197.263C317.605 199.098 316.674 200.815 315.478 202.342C313.322 205.111 310.779 207.555 307.928 209.601L305.791 207.147C306.795 205.971 307.842 204.71 308.777 203.449C309.729 202.227 310.589 200.936 311.351 199.588C312.063 198.411 312.59 197.132 312.913 195.795C313.024 195.317 313.044 194.823 312.973 194.337C312.942 194.174 312.89 194.015 312.818 193.865C312.786 193.799 312.749 193.736 312.707 193.676L312.432 193.213C310.777 190.515 308.982 187.906 307.052 185.397C306.1 184.135 305.079 182.925 304.049 181.733C303.543 181.132 303.02 180.549 302.496 179.965C301.973 179.382 301.407 178.799 300.952 178.344L305.448 173.565Z" fill="#E4897B"/>
<path d="M306.615 206.426L300.206 205.379L303.56 210.991C303.56 210.991 307.687 210.845 308.863 208.417L306.615 206.426Z" fill="#E4897B"/>
<path d="M295.469 207.971L298.524 212.527L303.56 210.991L300.206 205.379L295.469 207.971Z" fill="#E4897B"/>
<path d="M306.306 352.878C305.87 352.916 305.435 352.797 305.079 352.544C304.972 352.442 304.892 352.314 304.849 352.173C304.805 352.032 304.799 351.882 304.83 351.737C304.836 351.645 304.868 351.556 304.921 351.481C304.974 351.405 305.046 351.345 305.131 351.308C305.877 350.973 307.833 352.226 308.056 352.372C308.082 352.388 308.101 352.411 308.112 352.439C308.123 352.467 308.125 352.498 308.116 352.526C308.113 352.556 308.101 352.583 308.08 352.605C308.06 352.627 308.034 352.641 308.005 352.647C307.449 352.788 306.879 352.865 306.306 352.878ZM305.448 351.548C305.385 351.539 305.322 351.539 305.259 351.548C305.222 351.566 305.189 351.594 305.167 351.629C305.144 351.663 305.131 351.704 305.131 351.746C305.108 351.841 305.11 351.941 305.137 352.036C305.164 352.131 305.215 352.217 305.285 352.286C305.611 352.578 306.452 352.621 307.576 352.398C306.932 351.972 306.208 351.683 305.448 351.548Z" fill="#505798"/>
<path d="M308.022 352.638H307.945C307.336 352.286 306.16 350.922 306.306 350.175C306.334 350.058 306.399 349.952 306.492 349.875C306.585 349.798 306.7 349.752 306.821 349.746C306.937 349.73 307.055 349.74 307.166 349.775C307.278 349.811 307.38 349.871 307.464 349.952C308.168 350.57 308.176 352.423 308.176 352.526C308.175 352.552 308.167 352.578 308.154 352.6C308.14 352.622 308.121 352.641 308.099 352.655L308.022 352.638ZM306.924 350.064H306.855C306.666 350.064 306.623 350.167 306.606 350.244C306.521 350.682 307.25 351.728 307.859 352.217C307.874 351.498 307.667 350.791 307.267 350.193C307.216 350.145 307.155 350.108 307.088 350.086C307.021 350.064 306.951 350.056 306.881 350.064H306.924Z" fill="#505798"/>
<path d="M277.065 352.878C276.518 352.931 275.969 352.791 275.512 352.484C275.409 352.392 275.33 352.278 275.281 352.149C275.232 352.021 275.214 351.882 275.229 351.746C275.235 351.662 275.261 351.582 275.306 351.511C275.351 351.441 275.413 351.383 275.487 351.342C276.285 350.896 278.841 352.201 279.133 352.364C279.16 352.381 279.181 352.405 279.195 352.434C279.209 352.463 279.214 352.495 279.21 352.527C279.205 352.557 279.191 352.584 279.17 352.606C279.148 352.627 279.12 352.642 279.09 352.647C278.424 352.788 277.746 352.866 277.065 352.878ZM275.924 351.548C275.826 351.542 275.728 351.563 275.641 351.608C275.61 351.623 275.584 351.646 275.566 351.675C275.548 351.704 275.538 351.737 275.538 351.772C275.525 351.861 275.534 351.952 275.564 352.037C275.594 352.122 275.644 352.199 275.71 352.261C276.104 352.612 277.16 352.672 278.584 352.432C277.754 351.99 276.854 351.691 275.924 351.548Z" fill="#505798"/>
<path d="M279.065 352.638H278.996C278.232 352.295 276.714 350.922 276.834 350.175C276.834 350.004 276.988 349.789 277.409 349.746C277.562 349.73 277.718 349.745 277.865 349.791C278.013 349.837 278.149 349.912 278.267 350.012C279.073 350.682 279.228 352.415 279.228 352.492C279.231 352.518 279.227 352.545 279.217 352.569C279.206 352.593 279.189 352.614 279.167 352.629C279.135 352.643 279.099 352.646 279.065 352.638ZM277.529 350.064H277.434C277.16 350.064 277.143 350.201 277.134 350.236C277.065 350.673 278.095 351.763 278.85 352.235C278.776 351.501 278.476 350.809 277.992 350.253C277.862 350.142 277.699 350.076 277.529 350.064Z" fill="#505798"/>
<path d="M289.206 153.839C288.957 157.718 288.288 165.594 291.265 167.773C291.265 167.773 290.725 171.746 283.698 172.672C275.976 173.676 279.502 169.318 279.502 169.318C283.595 167.756 283.071 164.642 281.956 161.793L289.206 153.839Z" fill="#E4897B"/>
<path d="M273.222 146.984C273.179 146.984 273.137 146.975 273.099 146.957C273.06 146.939 273.026 146.913 272.998 146.881C272.753 146.59 272.443 146.361 272.093 146.212C271.742 146.062 271.362 145.998 270.982 146.023C270.942 146.03 270.901 146.029 270.861 146.02C270.821 146.011 270.784 145.994 270.751 145.97C270.718 145.946 270.69 145.915 270.67 145.88C270.649 145.845 270.636 145.806 270.63 145.766C270.621 145.685 270.643 145.604 270.693 145.539C270.743 145.475 270.816 145.433 270.896 145.422C271.381 145.381 271.868 145.458 272.316 145.647C272.764 145.835 273.16 146.129 273.47 146.503C273.508 146.548 273.531 146.602 273.539 146.66C273.547 146.718 273.538 146.776 273.514 146.829C273.489 146.882 273.451 146.927 273.402 146.959C273.354 146.991 273.297 147.008 273.239 147.01L273.222 146.984Z" fill="#263238"/>
<path d="M271.883 150.785C271.579 152.016 271.108 153.199 270.484 154.303C270.771 154.457 271.088 154.546 271.413 154.564C271.737 154.582 272.062 154.528 272.364 154.406L271.883 150.785Z" fill="#DE5753"/>
<path d="M272.226 149.841C272.295 150.356 272.08 150.802 271.746 150.854C271.411 150.905 271.077 150.51 271.016 149.996C270.956 149.481 271.162 149.035 271.497 148.992C271.832 148.949 272.166 149.292 272.226 149.841Z" fill="#263238"/>
<path d="M271.651 149L270.373 148.803C270.373 148.803 271.128 149.687 271.651 149Z" fill="#263238"/>
<path d="M286.134 352.501H279.699L279.27 337.615H285.705L286.134 352.501Z" fill="#E4897B"/>
<path d="M315.349 352.501H308.914L306.847 337.615H313.282L315.349 352.501Z" fill="#E4897B"/>
<path d="M308.52 351.78H315.744C315.867 351.779 315.986 351.823 316.08 351.903C316.173 351.984 316.233 352.096 316.25 352.218L317.108 357.941C317.124 358.085 317.109 358.231 317.064 358.369C317.02 358.507 316.946 358.634 316.849 358.742C316.752 358.85 316.633 358.936 316.5 358.994C316.367 359.053 316.224 359.083 316.079 359.082C313.565 359.039 312.346 358.893 309.172 358.893C307.215 358.893 304.358 359.09 301.664 359.09C298.97 359.09 298.824 356.422 299.948 356.182C304.985 355.101 305.783 353.608 307.473 352.175C307.768 351.93 308.136 351.791 308.52 351.78Z" fill="#263238"/>
<path d="M279.485 351.78H286.701C286.825 351.779 286.945 351.822 287.04 351.903C287.135 351.983 287.197 352.095 287.215 352.218L288.073 357.94C288.089 358.085 288.074 358.231 288.03 358.369C287.985 358.507 287.912 358.634 287.814 358.742C287.717 358.85 287.598 358.936 287.465 358.994C287.333 359.053 287.189 359.083 287.044 359.082C284.53 359.039 283.312 358.893 280.137 358.893C278.181 358.893 274.131 359.09 271.437 359.09C268.743 359.09 268.597 356.422 269.721 356.182C274.757 355.101 276.739 353.608 278.438 352.175C278.733 351.93 279.102 351.791 279.485 351.78Z" fill="#263238"/>
<path d="M279.27 337.615L279.494 345.294H285.928L285.705 337.615H279.27Z" fill="#CE6F64"/>
<path d="M313.282 337.615H306.847L307.919 345.294H314.345L313.282 337.615Z" fill="#CE6F64"/>
<path d="M289.292 145.808C289.729 152.175 290.047 154.86 287.284 158.524C283.123 164.024 275.212 163.174 272.878 157.065C270.776 151.566 270.416 142.085 276.267 138.756C277.555 138.018 279.009 137.621 280.493 137.603C281.976 137.586 283.44 137.947 284.745 138.653C286.049 139.36 287.152 140.388 287.948 141.64C288.743 142.892 289.206 144.327 289.292 145.808Z" fill="#E4897B"/>
<path d="M292.998 151.72C296.568 153.711 299.219 148.803 299.219 148.803C299.219 148.803 292.818 149.498 293.393 145.688C294.148 140.635 290.527 134.491 281.45 135.281C280.944 135.324 280.463 135.384 279.991 135.461C279.041 135.011 277.966 134.894 276.941 135.131C275.917 135.368 275.002 135.944 274.345 136.765C271.771 136.98 268.297 140.051 270.656 144.11C270.822 143.643 271.078 143.215 271.411 142.848C271.608 145.225 273.685 149 276.276 149.249C276.834 152.501 274.672 156.268 275.418 159.665C276.525 164.564 284.787 165.671 284.787 165.671C284.502 165.059 284.396 164.379 284.481 163.71C284.566 163.04 284.839 162.409 285.268 161.887C290.879 164.461 294.577 161.947 294.577 161.947C290.75 160.523 291.909 157.984 291.909 157.984C293.23 158.57 294.727 158.622 296.086 158.127C297.444 157.633 298.558 156.631 299.193 155.332C297.922 155.393 296.661 155.084 295.561 154.443C294.462 153.802 293.572 152.856 292.998 151.72Z" fill="#263238"/>
<path d="M278.515 150.227C278.53 150.838 278.425 151.446 278.204 152.016C277.983 152.586 277.651 153.106 277.228 153.548C276.096 154.723 274.706 153.899 274.328 152.398C273.994 151.042 274.182 148.803 275.658 148.185C275.983 148.057 276.335 148.013 276.681 148.056C277.027 148.099 277.357 148.227 277.641 148.43C277.925 148.633 278.154 148.904 278.307 149.218C278.459 149.532 278.531 149.879 278.515 150.227Z" fill="#E4897B"/>
<path d="M283.861 209.541C283.861 209.541 285.491 251.892 289.369 276.756C292.492 296.851 306.366 343.8 306.366 343.8H315.135C315.135 343.8 307.902 298.455 306.315 278.592C302.299 228.322 312.724 217.529 302.883 207.061L283.861 209.541Z" fill="#263238"/>
<path d="M291.188 222.934C291.188 222.934 287.224 222.248 284.908 229.798C285.765 244.101 287.233 263.08 289.369 276.757C289.841 279.802 290.562 283.475 291.445 287.499C289.772 263.337 291.188 222.934 291.188 222.934Z" fill="#161F33"/>
<path d="M277.022 210.433C277.022 210.433 269.798 257.289 270.219 276.894C270.656 297.288 278.129 343.818 278.129 343.818H286.821C286.821 343.818 285.448 298.498 286.212 278.473C287.07 256.636 295.984 207.971 295.984 207.971L277.022 210.433Z" fill="#263238"/>
<path d="M316.405 344.213H304.744L303.835 340.3L316.319 340.386L316.405 344.213Z" fill="#505798"/>
<path opacity="0.2" d="M316.405 344.213H304.744L303.835 340.3L316.319 340.386L316.405 344.213Z" fill="black"/>
<path d="M302.445 167.782C305.8 168.108 310.896 177.64 310.896 177.64L302.428 184.135C302.428 184.135 295.418 177.984 296.25 174.526C297.117 170.931 299.227 167.482 302.445 167.782Z" fill="#505798"/>
<path opacity="0.1" d="M302.445 167.782C305.8 168.108 310.896 177.64 310.896 177.64L302.428 184.135C302.428 184.135 295.418 177.984 296.25 174.526C297.117 170.931 299.227 167.482 302.445 167.782Z" fill="black"/>
<path d="M299.914 171.883C299.059 171.653 298.173 171.554 297.288 171.591C296.838 172.529 296.49 173.513 296.25 174.526C295.392 177.958 302.428 184.135 302.428 184.135L303.054 183.655L299.914 171.883Z" fill="#505798"/>
<path opacity="0.3" d="M299.914 171.883C299.059 171.653 298.173 171.554 297.288 171.591C296.838 172.529 296.49 173.513 296.25 174.526C295.392 177.958 302.428 184.135 302.428 184.135L303.054 183.655L299.914 171.883Z" fill="black"/>
<path d="M274.148 181.038C271.703 187.224 269.129 193.513 267.078 199.717C266.941 200.111 266.829 200.489 266.709 200.875L266.418 201.827C266.338 202.108 266.338 202.405 266.418 202.685C266.902 203.758 267.67 204.678 268.64 205.345C271.205 207.186 274 208.683 276.954 209.798L276.182 212.955C272.548 212.476 269.034 211.33 265.817 209.575C263.837 208.517 262.224 206.884 261.192 204.89C260.6 203.616 260.394 202.196 260.6 200.806C260.62 200.636 260.649 200.467 260.686 200.3L260.772 199.94L260.918 199.288C261.021 198.85 261.124 198.43 261.235 198.001C262.093 194.569 263.192 191.308 264.35 188.073C265.508 184.839 266.718 181.647 268.082 178.464L274.148 181.038Z" fill="#E4897B"/>
<path d="M268.94 172.355C268.94 172.355 266.04 173.822 277.022 210.433L302.917 207.053C301.098 196.568 300.24 190.073 302.445 167.782C298.732 167.516 295.004 167.516 291.291 167.782C287.338 168.012 283.406 168.528 279.528 169.326C274.56 170.433 268.94 172.355 268.94 172.355Z" fill="#505798"/>
<path opacity="0.1" d="M268.94 172.355C268.94 172.355 266.04 173.822 277.022 210.433L302.917 207.053C301.098 196.568 300.24 190.073 302.445 167.782C298.732 167.516 295.004 167.516 291.291 167.782C287.338 168.012 283.406 168.528 279.528 169.326C274.56 170.433 268.94 172.355 268.94 172.355Z" fill="black"/>
<path d="M303.106 205.482L304.59 207.636C304.702 207.808 304.513 208.013 304.221 208.056L277.065 211.609C276.834 211.609 276.619 211.548 276.585 211.403L276.053 209.112C276.01 208.957 276.199 208.794 276.456 208.76L302.677 205.328C302.755 205.315 302.836 205.323 302.911 205.35C302.986 205.377 303.053 205.423 303.106 205.482Z" fill="#505798"/>
<path opacity="0.2" d="M303.106 205.482L304.59 207.636C304.702 207.808 304.513 208.013 304.221 208.056L277.065 211.609C276.834 211.609 276.619 211.548 276.585 211.403L276.053 209.112C276.01 208.957 276.199 208.794 276.456 208.76L302.677 205.328C302.755 205.315 302.836 205.323 302.911 205.35C302.986 205.377 303.053 205.423 303.106 205.482Z" fill="black"/>
<path d="M299.965 208.872L300.669 208.777C300.806 208.777 300.901 208.674 300.883 208.588L300.163 205.62C300.135 205.569 300.092 205.529 300.038 205.508C299.985 205.486 299.926 205.483 299.871 205.5L299.167 205.585C299.022 205.585 298.927 205.688 298.953 205.783L299.674 208.743C299.691 208.837 299.828 208.889 299.965 208.872Z" fill="#263238"/>
<path d="M282.943 211.068L283.646 210.974C283.784 210.974 283.886 210.871 283.861 210.785L283.14 207.816C283.112 207.766 283.068 207.726 283.016 207.703C282.963 207.68 282.904 207.675 282.848 207.688L282.145 207.782C282.007 207.782 281.904 207.885 281.93 207.971L282.651 210.939C282.668 211.068 282.805 211.12 282.943 211.068Z" fill="#263238"/>
<path d="M270.15 184.779C270.862 188.091 271.866 192.286 273.333 197.597L273.651 184.135L270.15 184.779Z" fill="#505798"/>
<path opacity="0.3" d="M270.15 184.779C270.862 188.091 271.866 192.286 273.333 197.597L273.651 184.135L270.15 184.779Z" fill="black"/>
<path d="M268.94 172.355C265.723 173.651 262.934 184.659 262.934 184.659L274.002 190.047C274.002 190.047 279.348 176.585 276.954 173.959C274.56 171.334 272.647 170.871 268.94 172.355Z" fill="#505798"/>
<path opacity="0.1" d="M268.94 172.355C265.723 173.651 262.934 184.659 262.934 184.659L274.002 190.047C274.002 190.047 279.348 176.585 276.954 173.959C274.56 171.334 272.647 170.871 268.94 172.355Z" fill="black"/>
<path d="M288.305 344.213H276.645L275.735 340.3L288.717 340.386L288.305 344.213Z" fill="#505798"/>
<path opacity="0.2" d="M288.305 344.213H276.645L275.735 340.3L288.717 340.386L288.305 344.213Z" fill="black"/>
<path d="M277.134 208.734L276.199 208.348C275.969 208.255 275.718 208.224 275.473 208.258C275.227 208.293 274.995 208.392 274.799 208.545C274.604 208.698 274.453 208.901 274.361 209.131C274.27 209.362 274.24 209.613 274.277 209.858L274.955 214.328C274.987 214.552 275.069 214.766 275.194 214.954C275.319 215.142 275.485 215.3 275.679 215.417C275.872 215.534 276.09 215.606 276.315 215.628C276.539 215.65 276.767 215.623 276.98 215.547C277.32 215.423 277.638 215.246 277.923 215.023C278.234 214.766 278.479 214.439 278.64 214.07C278.801 213.7 278.873 213.298 278.85 212.895L278.756 211.042C278.739 210.541 278.577 210.056 278.289 209.646C278.001 209.236 277.6 208.919 277.134 208.734Z" fill="#E4897B"/>
</svg>
