<svg width="488" height="488" viewBox="0 0 488 488" fill="none" xmlns="http://www.w3.org/2000/svg">
<path d="M88.5818 428.22C176.1 479.04 317.942 479.04 405.489 428.22C493.036 377.4 492.997 295.015 405.489 244.205C317.981 193.394 176.129 193.385 88.5818 244.205C1.03457 295.025 1.0736 377.409 88.5818 428.22Z" fill="#F5F5F5"/>
<path d="M411.257 370.978C433.072 370.978 450.756 360.77 450.756 348.178C450.756 335.587 433.072 325.379 411.257 325.379C389.443 325.379 371.758 335.587 371.758 348.178C371.758 360.77 389.443 370.978 411.257 370.978Z" fill="#E0E0E0"/>
<path d="M67.5782 357.411C67.5782 357.411 65.919 342.771 58.6478 331.459C51.3766 320.148 41.3922 313.042 32.0714 312.32C22.7506 311.598 15.2256 320.128 25.2394 326.052C35.2531 331.977 52.9285 337.94 61.0781 359.968L67.5782 357.411Z" fill="#505798"/>
<path opacity="0.1" d="M67.5782 357.411C67.5782 357.411 65.919 342.771 58.6478 331.459C51.3766 320.148 41.3922 313.042 32.0714 312.32C22.7506 311.598 15.2256 320.128 25.2394 326.052C35.2531 331.977 52.9285 337.94 61.0781 359.968L67.5782 357.411Z" fill="black"/>
<path d="M64.8454 353.615C64.8772 353.625 64.9112 353.625 64.943 353.615C65.0039 353.591 65.0593 353.556 65.1062 353.51C65.153 353.465 65.1903 353.41 65.2157 353.35C65.2412 353.29 65.2544 353.226 65.2545 353.161C65.2546 353.095 65.2416 353.031 65.2163 352.971C55.388 328.756 36.6683 318.635 28.1283 316.673C28.0642 316.659 27.9979 316.657 27.9332 316.669C27.8685 316.68 27.8067 316.704 27.7514 316.74C27.696 316.775 27.6482 316.821 27.6108 316.875C27.5733 316.929 27.5468 316.99 27.533 317.054C27.5063 317.182 27.5299 317.315 27.599 317.426C27.6681 317.537 27.7773 317.617 27.9038 317.649C36.2584 319.601 54.6072 329.508 64.2891 353.342C64.3359 353.444 64.4169 353.528 64.5183 353.578C64.6198 353.628 64.7354 353.641 64.8454 353.615Z" fill="white"/>
<path d="M15.0694 353.907C15.9088 355.811 17.9974 356.835 19.9494 357.577C21.9014 358.319 23.9803 359.188 25.0246 360.983C27.123 364.624 23.6778 369.767 25.9323 373.261C26.4596 373.969 27.1251 374.562 27.8884 375.005C28.6517 375.448 29.4971 375.732 30.3731 375.838C31.8193 376.046 33.2757 376.176 34.7358 376.229C35.4314 376.221 36.1258 376.169 36.8147 376.072C38.8341 375.618 40.9468 375.841 42.8269 376.707C45.7549 378.337 46.604 381.977 48.351 384.788C49.4387 386.451 50.8749 387.858 52.5601 388.912C54.2453 389.965 56.1394 390.639 58.111 390.888C59.4091 391.064 61.8198 391.298 63.1374 390.556C63.2324 390.507 63.3237 390.452 63.4107 390.39C63.5962 390.185 63.8206 389.922 63.9182 389.785C63.9381 389.758 63.9545 389.729 63.967 389.697C64.4843 387.814 63.645 385.852 63.6157 383.91C63.6059 383.793 63.6059 383.675 63.6157 383.558C63.6938 381.294 63.7621 379.049 63.8109 376.785C63.915 372.64 63.9573 368.486 63.9378 364.321C63.9378 361.618 64.2306 358.67 63.0886 356.123C61.8296 353.332 58.6771 353.263 57.4962 350.521C57.0179 349.428 56.7642 348.256 56.3054 347.153C55.5895 345.533 54.443 344.141 52.9906 343.127C51.5381 342.114 49.8355 341.518 48.068 341.405C42.5829 341.122 37.6541 345.572 32.169 345.162C30.7564 344.973 29.3553 344.706 27.9722 344.362C23.5216 343.532 18.3878 344.801 15.8893 348.559C15.3265 349.316 14.9575 350.199 14.8146 351.131C14.6717 352.064 14.7592 353.017 15.0694 353.907Z" fill="#505798"/>
<path d="M64.416 381.021C64.4753 381.006 64.5311 380.979 64.5801 380.943C64.629 380.906 64.6702 380.86 64.7011 380.807C64.732 380.755 64.7521 380.696 64.7601 380.636C64.7681 380.575 64.764 380.513 64.7478 380.454C57.1741 351.985 27.1914 347.876 20.1739 348.432C20.1128 348.436 20.0529 348.452 19.998 348.479C19.9431 348.506 19.8942 348.544 19.8541 348.59C19.8141 348.637 19.7838 348.691 19.7649 348.749C19.7461 348.807 19.7392 348.869 19.7445 348.93C19.7545 349.052 19.8123 349.166 19.9054 349.246C19.9985 349.327 20.1195 349.367 20.2422 349.359C27.0742 348.871 56.4323 352.892 63.8499 380.728C63.8899 380.839 63.9705 380.931 64.0755 380.985C64.1805 381.04 64.3021 381.052 64.416 381.021Z" fill="white"/>
<path d="M31.0758 366.605C31.1699 366.587 31.2556 366.539 31.3198 366.469C34.092 364.073 37.3571 362.316 40.8839 361.322C44.4107 360.329 48.1129 360.123 51.728 360.72C51.7923 360.739 51.86 360.744 51.9265 360.735C51.993 360.726 52.0567 360.702 52.1133 360.666C52.1699 360.63 52.2181 360.582 52.2547 360.526C52.2912 360.47 52.3153 360.406 52.3252 360.34C52.3351 360.274 52.3306 360.206 52.312 360.141C52.2934 360.077 52.2612 360.017 52.2176 359.966C52.1739 359.915 52.1198 359.874 52.0589 359.846C51.998 359.818 51.9318 359.803 51.8646 359.802C48.1049 359.18 44.2542 359.396 40.5878 360.436C36.9214 361.475 33.53 363.312 30.6562 365.815C30.5703 365.904 30.5223 366.023 30.5223 366.146C30.5223 366.27 30.5703 366.389 30.6562 366.478C30.71 366.533 30.7766 366.573 30.8499 366.595C30.9232 366.617 31.0009 366.621 31.0758 366.605Z" fill="white"/>
<path d="M63.5766 394.86C62.9353 394.424 62.4052 393.844 62.0289 393.166C61.6526 392.488 61.4406 391.731 61.4099 390.956V177.339C61.4543 176.538 61.6868 175.757 62.0886 175.062C62.4905 174.367 63.0504 173.776 63.723 173.338L315.004 28.3041C315.691 27.9373 316.455 27.7381 317.233 27.7229C318.012 27.7076 318.783 27.8767 319.484 28.2162C320.125 28.6522 320.655 29.2325 321.032 29.9105C321.408 30.5886 321.62 31.3454 321.651 32.1202V245.698C321.608 246.501 321.377 247.282 320.977 247.979C320.577 248.676 320.019 249.268 319.347 249.71L68.0565 394.773C67.3696 395.139 66.6056 395.338 65.8271 395.354C65.0485 395.369 64.2774 395.2 63.5766 394.86Z" fill="#505798"/>
<path opacity="0.3" d="M321.631 31.7298C321.465 30.5391 320.499 30.0999 319.337 30.7538L68.0565 175.846C67.3771 176.276 66.8166 176.87 66.4266 177.574L62.0834 175.065C62.4744 174.362 63.0389 173.771 63.723 173.347L315.004 28.3041C315.691 27.9373 316.455 27.7381 317.233 27.7229C318.012 27.7076 318.783 27.8767 319.484 28.2162C320.07 28.6167 320.564 29.1369 320.935 29.7426C321.305 30.3483 321.542 31.0256 321.631 31.7298Z" fill="white"/>
<path d="M67.6173 394.977C67.585 394.983 67.552 394.983 67.5197 394.977C67.4491 395.017 67.3736 395.046 67.2952 395.065L67.1293 395.114C67.0264 395.156 66.9179 395.182 66.8072 395.192C66.736 395.203 66.6636 395.203 66.5925 395.192C66.4773 395.222 66.3597 395.242 66.2411 395.251C65.3301 395.373 64.4037 395.212 63.5864 394.792C62.9407 394.361 62.4072 393.781 62.0304 393.102C61.6535 392.423 61.4442 391.664 61.4197 390.888V204.677L65.7726 207.185V393.435C65.7726 394.48 66.2899 395.095 67.0512 395.095C67.1574 395.098 67.2633 395.081 67.3635 395.046C67.4512 395.036 67.5368 395.013 67.6173 394.977Z" fill="#37474F"/>
<path opacity="0.1" d="M66.4266 177.574C66.0087 178.26 65.7766 179.044 65.7531 179.848V207.234L61.4002 204.726V177.398C61.3905 177.304 61.3905 177.209 61.4002 177.115C61.4002 176.929 61.4002 176.734 61.488 176.539C61.6153 176.04 61.809 175.561 62.0638 175.114L66.4266 177.574Z" fill="black"/>
<path d="M321.651 32.1106V44.457L137.46 150.841C136.181 151.573 135.147 150.978 135.147 149.504V144.829C135.147 143.355 134.112 142.76 132.834 143.492L76.7429 175.846C76.0663 176.281 75.5028 176.871 75.0989 177.567C74.695 178.263 74.4623 179.044 74.42 179.848V184.523C74.3768 185.324 74.1457 186.103 73.7456 186.798C73.3455 187.493 72.7875 188.085 72.1166 188.524L65.7531 192.204V179.848C65.7964 179.047 66.0274 178.267 66.4275 177.572C66.8276 176.877 67.3857 176.286 68.0565 175.846L319.337 30.7735C320.616 30.0317 321.651 30.6368 321.651 32.1106Z" fill="#505798"/>
<path d="M321.66 245.698C321.618 246.502 321.385 247.283 320.981 247.979C320.578 248.675 320.014 249.265 319.337 249.7L68.0565 394.772C66.7877 395.504 65.7531 394.909 65.7531 393.435V192.204L72.1166 188.524C73.3854 187.792 75.4546 176.578 76.7429 175.836L131.897 143.989C133.175 143.247 136.181 151.524 137.46 150.821L321.651 44.4373V245.698H321.66Z" fill="#455A64"/>
<path d="M321.651 44.4568V59.536L65.7531 207.234V192.204L70.5062 189.451C71.775 188.71 72.2045 187.587 72.8096 185.44L74.42 179.848C74.9275 177.896 75.4546 176.578 76.7429 175.846L131.897 143.999C133.175 143.257 134.171 143.179 135.147 144.79L137.099 148.381C137.821 149.631 138.182 150.333 139.451 149.631L321.651 44.4568Z" fill="#F0F0F0"/>
<path d="M310.807 39.8501C312.418 38.9229 313.735 39.6744 313.735 41.5385C313.679 42.5495 313.385 43.533 312.876 44.4083C312.367 45.2837 311.658 46.026 310.807 46.5747C309.207 47.5507 307.879 46.7504 307.879 44.896C307.938 43.8844 308.234 42.9008 308.742 42.0243C309.251 41.1479 309.958 40.4031 310.807 39.8501Z" fill="white"/>
<path d="M300.335 45.8722C301.945 44.8962 303.263 45.6965 303.263 47.5509C303.207 48.5632 302.913 49.548 302.404 50.4249C301.895 51.3019 301.186 52.0461 300.335 52.5968C298.724 53.5728 297.407 52.7725 297.407 50.9084C297.463 49.8974 297.757 48.9139 298.266 48.0386C298.775 47.1632 299.484 46.4209 300.335 45.8722Z" fill="white"/>
<path d="M289.872 51.933C291.482 50.957 292.8 51.7573 292.8 53.6117C292.744 54.6227 292.45 55.6061 291.941 56.4815C291.432 57.3568 290.723 58.0992 289.872 58.6479C288.262 59.5751 286.944 58.8236 286.944 56.9692C287 55.9581 287.294 54.9747 287.803 54.0994C288.312 53.224 289.021 52.4816 289.872 51.933Z" fill="white"/>
<path opacity="0.5" d="M76.3525 193.248L72.7218 195.337L74.1077 192.682C74.1651 192.583 74.1953 192.47 74.1953 192.355C74.1953 192.24 74.1651 192.127 74.1077 192.028C74.0003 191.901 73.8149 192.028 73.6978 192.223L71.7458 196.01C71.7204 196.053 71.7007 196.099 71.6872 196.147C71.6872 196.147 71.6872 196.147 71.6872 196.196C71.6819 196.261 71.6819 196.326 71.6872 196.391C71.6818 196.446 71.6818 196.501 71.6872 196.557C71.701 196.587 71.721 196.613 71.7458 196.635L73.6978 198.148C73.7267 198.167 73.7606 198.177 73.7954 198.177C73.8301 198.177 73.8641 198.167 73.893 198.148C73.9908 198.076 74.0655 197.978 74.1077 197.864C74.215 197.611 74.2053 197.337 74.1077 197.25L72.7218 196.186L76.3525 194.224C76.4457 194.151 76.5206 194.058 76.5715 193.951C76.6223 193.844 76.6476 193.727 76.6453 193.609C76.6453 193.316 76.5184 193.189 76.3525 193.248Z" fill="#455A64"/>
<path opacity="0.5" d="M79.3878 191.53L83.0186 189.442L81.6326 188.368C81.5748 188.274 81.5441 188.166 81.5441 188.056C81.5441 187.945 81.5748 187.837 81.6326 187.743C81.74 187.499 81.9254 187.372 82.0426 187.47L83.9946 188.983C84.0035 189.008 84.0035 189.036 83.9946 189.061C84.0004 189.119 84.0004 189.178 83.9946 189.237C83.9989 189.302 83.9989 189.367 83.9946 189.432C83.9987 189.481 83.9987 189.529 83.9946 189.578L82.0426 193.365C82.005 193.457 81.9403 193.535 81.8571 193.59C81.8265 193.618 81.7864 193.633 81.7449 193.633C81.7033 193.633 81.6632 193.618 81.6326 193.59C81.5779 193.491 81.5492 193.38 81.5492 193.267C81.5492 193.155 81.5779 193.044 81.6326 192.945L83.0186 190.32L79.3878 192.418C79.2219 192.506 79.095 192.418 79.095 192.135C79.095 192.019 79.1213 191.904 79.172 191.799C79.2227 191.694 79.2965 191.602 79.3878 191.53Z" fill="#455A64"/>
<path opacity="0.5" d="M91.295 181.087C91.295 180.863 91.0803 180.892 90.9827 181.087L90.485 182.307C89.6358 182.209 88.611 183.039 87.9181 184.513C87.0202 186.416 87.0202 188.661 87.9181 189.529C88.1367 189.731 88.4185 189.852 88.7156 189.869C89.0127 189.887 89.3069 189.802 89.548 189.627C90.2692 189.148 90.8355 188.47 91.1779 187.675C91.2366 187.58 91.2677 187.47 91.2677 187.358C91.2677 187.246 91.2366 187.136 91.1779 187.041C91.0608 186.933 90.8754 187.041 90.768 187.275C90.0946 188.7 89.0014 189.334 88.328 188.68C87.6546 188.026 87.6643 186.357 88.328 184.932C88.8062 183.956 89.4992 183.332 90.0946 183.293L89.7237 184.21C89.6261 184.444 89.7237 184.669 89.8603 184.571L91.3438 183.595C91.4031 183.546 91.4493 183.483 91.4782 183.411C91.5072 183.34 91.518 183.262 91.5098 183.185L91.295 181.087Z" fill="#455A64"/>
<path opacity="0.5" d="M130.306 150.86L131.623 148.059C131.702 147.928 131.743 147.778 131.743 147.625C131.743 147.472 131.702 147.322 131.623 147.191C131.467 147.035 131.213 147.191 131.057 147.513L129.74 150.304L128.412 149.035C128.256 148.879 128.002 149.035 127.846 149.357C127.768 149.489 127.727 149.639 127.727 149.792C127.727 149.945 127.768 150.095 127.846 150.226L129.174 151.505L127.856 154.316C127.778 154.447 127.737 154.597 127.737 154.75C127.737 154.903 127.778 155.053 127.856 155.184C127.896 155.217 127.946 155.234 127.998 155.234C128.049 155.234 128.099 155.217 128.139 155.184C128.264 155.1 128.362 154.981 128.422 154.843L129.749 152.041L131.067 153.31C131.107 153.343 131.157 153.36 131.209 153.36C131.26 153.36 131.31 153.343 131.35 153.31C131.477 153.228 131.576 153.109 131.633 152.969C131.711 152.835 131.752 152.684 131.752 152.529C131.752 152.375 131.711 152.223 131.633 152.09L130.306 150.86Z" fill="#455A64"/>
<path d="M96.1067 184.523V179.848C96.1495 179.046 96.3814 178.265 96.7834 177.569C97.1854 176.874 97.7461 176.283 98.4198 175.846L306.308 55.8664C307.586 55.1344 308.621 55.7297 308.621 57.2035V61.8785C308.578 62.682 308.346 63.464 307.944 64.161C307.542 64.858 306.982 65.4503 306.308 65.8899L98.4198 185.86C97.1413 186.602 96.1067 185.996 96.1067 184.523Z" fill="white"/>
<path d="M303.185 66.1533C303.126 66.1633 303.067 66.1633 303.009 66.1533C302.901 66.101 302.814 66.0135 302.763 65.9053C302.711 65.7971 302.698 65.6745 302.726 65.5579L302.96 63.6059L301.984 62.9227C301.917 62.8733 301.864 62.8084 301.828 62.7335C301.792 62.6586 301.776 62.5761 301.779 62.4933C301.775 62.353 301.804 62.2138 301.863 62.0867C301.922 61.9596 302.011 61.8481 302.121 61.7613L303.536 60.6681C303.582 60.6257 303.616 60.5718 303.634 60.512L304.239 58.56C304.27 58.415 304.343 58.2823 304.449 58.1783C304.555 58.0742 304.689 58.0034 304.834 57.9744C304.925 57.9683 305.016 57.9903 305.095 58.0374C305.173 58.0845 305.236 58.1544 305.273 58.2379L305.82 59.4091L307.05 58.9309C307.136 58.8966 307.231 58.8895 307.322 58.9104C307.412 58.9313 307.494 58.9793 307.557 59.048C307.641 59.17 307.686 59.3147 307.686 59.4628C307.686 59.6109 307.641 59.7555 307.557 59.8776L306.581 61.7222C306.571 61.7771 306.571 61.8333 306.581 61.8881L306.815 63.5571C306.827 63.6939 306.809 63.8315 306.764 63.961C306.718 64.0905 306.646 64.2089 306.552 64.3086C306.494 64.3722 306.423 64.422 306.344 64.4541C306.264 64.4862 306.179 64.4999 306.093 64.4941L304.883 64.3379L303.692 65.919C303.634 65.998 303.557 66.0609 303.469 66.1019C303.38 66.1428 303.282 66.1605 303.185 66.1533ZM302.423 62.464L303.399 63.1472C303.479 63.2118 303.54 63.2965 303.576 63.3926C303.612 63.4887 303.622 63.5926 303.604 63.6937L303.409 65.2944L304.385 64.0061C304.442 63.9216 304.519 63.8531 304.609 63.807C304.7 63.7609 304.801 63.7387 304.902 63.7425L306.122 63.8987C306.122 63.8987 306.171 63.7328 306.122 63.6547L305.888 61.9857C305.87 61.797 305.907 61.6071 305.995 61.4392L306.971 59.6043L305.849 60.0337C305.74 60.0795 305.618 60.0806 305.508 60.0368C305.399 59.9929 305.311 59.9077 305.263 59.7995L304.756 58.7259L304.141 60.6779C304.086 60.8566 303.981 61.0159 303.839 61.1366L302.56 62.2005C302.485 62.2698 302.437 62.3629 302.423 62.464Z" fill="#E0E0E0"/>
<g opacity="0.5">
<path opacity="0.5" d="M311.344 55.3002C311.168 55.3002 310.997 55.242 310.857 55.1348C310.717 55.0275 310.617 54.8772 310.571 54.707C310.526 54.5369 310.537 54.3565 310.605 54.1937C310.672 54.031 310.791 53.895 310.944 53.8069L317.454 50.0493C317.545 49.9946 317.646 49.9586 317.751 49.9433C317.856 49.9281 317.963 49.9339 318.066 49.9606C318.169 49.9872 318.266 50.034 318.35 50.0983C318.435 50.1626 318.506 50.2431 318.559 50.3352C318.612 50.4272 318.646 50.5289 318.66 50.6343C318.673 50.7397 318.666 50.8467 318.637 50.9491C318.609 51.0515 318.56 51.1472 318.495 51.2307C318.429 51.3142 318.347 51.3837 318.254 51.4352L311.744 55.1928C311.622 55.2611 311.484 55.298 311.344 55.3002Z" fill="#455A64"/>
<path opacity="0.5" d="M311.344 59.0578C311.168 59.0577 310.997 58.9996 310.857 58.8923C310.717 58.7851 310.617 58.6347 310.571 58.4646C310.526 58.2945 310.537 58.1141 310.605 57.9513C310.672 57.7886 310.791 57.6526 310.944 57.5645L317.454 53.8069C317.545 53.7522 317.646 53.7161 317.751 53.7009C317.856 53.6857 317.963 53.6915 318.066 53.7181C318.169 53.7447 318.266 53.7916 318.35 53.8559C318.435 53.9202 318.506 54.0007 318.559 54.0927C318.612 54.1847 318.646 54.2864 318.66 54.3918C318.673 54.4972 318.665 54.6043 318.637 54.7067C318.609 54.8091 318.56 54.9048 318.494 54.9883C318.429 55.0717 318.347 55.1413 318.254 55.1928L311.744 58.9504C311.622 59.0187 311.484 59.0556 311.344 59.0578Z" fill="#455A64"/>
<path opacity="0.5" d="M311.344 62.8155C311.168 62.8154 310.997 62.7573 310.857 62.65C310.717 62.5428 310.617 62.3924 310.571 62.2223C310.526 62.0522 310.537 61.8717 310.605 61.709C310.672 61.5463 310.791 61.4103 310.944 61.3222L317.473 57.5841C317.657 57.4823 317.873 57.4567 318.075 57.5127C318.277 57.5688 318.45 57.702 318.555 57.8837C318.659 58.0655 318.689 58.2812 318.636 58.4844C318.584 58.6875 318.453 58.862 318.274 58.97L311.764 62.7276C311.634 62.7923 311.489 62.8226 311.344 62.8155Z" fill="#455A64"/>
</g>
<path d="M65.7531 192.204V207.234L61.4002 204.726V189.705L65.7531 192.204Z" fill="#E0E0E0"/>
<path d="M79.2122 209.342L307.694 77.436C309.421 76.46 310.817 77.2506 310.817 79.2416V125.406C310.76 126.492 310.448 127.548 309.905 128.489C309.362 129.431 308.605 130.231 307.694 130.823L79.2122 262.739C77.4846 263.715 76.089 262.925 76.089 260.934V214.769C76.1471 213.683 76.4602 212.626 77.0027 211.683C77.5453 210.74 78.3022 209.938 79.2122 209.342Z" fill="#FAFAFA"/>
<path d="M84.9218 232.317L84.9315 225.544L81.9547 227.242L87.8205 217.082L93.6862 220.469L90.7973 222.138V228.931L84.9218 232.317Z" fill="#505798"/>
<path d="M82.96 245.659C83.1343 245.552 83.2752 245.399 83.3667 245.216C83.4581 245.033 83.4964 244.828 83.4773 244.625V244.166C83.4773 243.385 83.2137 243.19 82.677 243.454V242.478C82.9687 242.309 83.1955 242.048 83.3211 241.736C83.4533 241.404 83.5164 241.049 83.5065 240.691V240.516C83.5065 240.018 83.3602 239.852 83.0771 240.018C82.9037 240.127 82.7782 240.298 82.7258 240.496C82.672 240.69 82.6457 240.89 82.6477 241.092V241.297L81.9157 241.716V241.541C81.913 241.047 82.0024 240.557 82.1792 240.096C82.3376 239.65 82.6397 239.269 83.0381 239.013C83.1598 238.911 83.3162 238.86 83.4744 238.871C83.6326 238.882 83.7805 238.954 83.8872 239.071C84.102 239.386 84.202 239.765 84.1702 240.145V240.467C84.171 240.942 84.0781 241.413 83.8969 241.853C83.8203 242.041 83.7255 242.22 83.6139 242.39C83.7409 242.436 83.8545 242.512 83.9448 242.613C84.035 242.713 84.0991 242.834 84.1312 242.966C84.2068 243.178 84.2399 243.404 84.2288 243.629V244.234C84.2304 244.794 84.1 245.345 83.8482 245.845C83.6613 246.249 83.359 246.588 82.9795 246.821C82.8636 246.923 82.7144 246.979 82.5598 246.979C82.4053 246.979 82.2561 246.923 82.1402 246.821C82.0141 246.67 81.919 246.496 81.8604 246.308C81.8018 246.121 81.7808 245.923 81.7986 245.728V245.542L82.511 245.044V245.308C82.5039 245.449 82.5491 245.588 82.6379 245.698C82.6863 245.735 82.7468 245.751 82.8068 245.744C82.8668 245.736 82.9217 245.706 82.96 245.659Z" fill="#37474F"/>
<path d="M85.6635 238.701V240.34C85.7364 240.139 85.8419 239.951 85.9758 239.784C86.0487 239.699 86.1343 239.627 86.2296 239.569C86.5614 239.384 86.7957 239.413 86.9518 239.677C87.1157 240.047 87.1861 240.453 87.1568 240.857V242.507C87.1591 243.057 87.039 243.6 86.8055 244.098C86.6354 244.503 86.3417 244.845 85.9661 245.074C85.8473 245.168 85.6964 245.213 85.5453 245.198C85.3941 245.184 85.2546 245.111 85.156 244.996C84.9168 244.681 84.8052 244.287 84.8437 243.893V243.717L85.5562 243.219V243.463C85.5562 243.766 85.6538 243.922 85.8002 243.942C85.8415 243.954 85.8857 243.954 85.9271 243.942C86.0843 243.835 86.2099 243.689 86.2907 243.517C86.3714 243.345 86.4043 243.155 86.3858 242.966V241.072C86.3975 240.989 86.3895 240.904 86.3624 240.824C86.3353 240.745 86.2898 240.672 86.2296 240.613C86.1997 240.592 86.1639 240.58 86.1271 240.58C86.0904 240.58 86.0545 240.592 86.0246 240.613C85.8767 240.708 85.769 240.854 85.7221 241.023C85.6739 241.182 85.6477 241.346 85.644 241.511V241.716L84.8925 242.146V237.969L87.0885 236.709V237.871L85.6635 238.701Z" fill="#37474F"/>
<path d="M87.6741 242.887L88.4256 242.458V243.61L87.6741 244.039V242.887Z" fill="#37474F"/>
<path d="M90.4166 236.7V236.514C90.4241 236.368 90.3903 236.222 90.319 236.094C90.2507 236.007 90.1629 235.997 90.0458 236.094C89.9127 236.174 89.8124 236.299 89.7627 236.446C89.7004 236.615 89.6674 236.793 89.6651 236.973V238.495C89.791 238.219 89.9902 237.983 90.241 237.812C90.563 237.627 90.8168 237.656 90.973 237.92C91.1503 238.28 91.2278 238.681 91.1975 239.081V240.389C91.1874 240.883 91.0709 241.369 90.8558 241.814C90.7096 242.216 90.4353 242.559 90.075 242.79C89.9559 242.886 89.8041 242.933 89.6514 242.92C89.4987 242.907 89.3568 242.836 89.2552 242.721C89.0218 242.403 88.9109 242.012 88.9429 241.619V237.451C88.9424 237.073 89.0017 236.698 89.1186 236.338C89.2269 235.985 89.3989 235.654 89.6261 235.362C89.7482 235.198 89.9006 235.059 90.075 234.953C90.1963 234.86 90.3482 234.816 90.5003 234.831C90.6524 234.845 90.7933 234.917 90.8949 235.031C91.1275 235.349 91.2383 235.74 91.2072 236.134V236.299L90.4166 236.7ZM89.6651 241.121C89.6573 241.264 89.6912 241.406 89.7627 241.531C89.831 241.628 89.9189 241.638 90.036 241.531C90.1715 241.449 90.2722 241.321 90.319 241.17C90.3824 241.004 90.4154 240.829 90.4166 240.652V239.237C90.4257 239.153 90.4154 239.068 90.3866 238.989C90.3579 238.909 90.3114 238.837 90.2507 238.778C90.2507 238.778 90.1336 238.778 90.0458 238.778C89.9009 238.874 89.7966 239.02 89.753 239.188C89.6955 239.341 89.6658 239.503 89.6651 239.667V241.121Z" fill="#37474F"/>
<path d="M92.5834 238.778V241.199L91.8318 241.628V233.986L92.5834 233.547V236.28L93.5008 233.02L94.3011 232.561L93.2763 236.27L94.4768 240.096L93.5984 240.604L92.8078 237.959L92.5834 238.778Z" fill="#37474F"/>
<path d="M99.552 248.626C99.4976 248.626 99.4455 248.605 99.4071 248.566C99.3686 248.528 99.347 248.476 99.347 248.421V200.988C99.3404 200.958 99.3405 200.927 99.3475 200.897C99.3545 200.867 99.368 200.839 99.3872 200.815C99.4065 200.791 99.4308 200.772 99.4585 200.758C99.4861 200.745 99.5164 200.738 99.5471 200.738C99.5778 200.738 99.6081 200.745 99.6358 200.758C99.6635 200.772 99.6878 200.791 99.707 200.815C99.7262 200.839 99.7398 200.867 99.7467 200.897C99.7537 200.927 99.7539 200.958 99.7472 200.988V248.421C99.7473 248.474 99.727 248.525 99.6907 248.563C99.6543 248.601 99.6046 248.624 99.552 248.626Z" fill="#E0E0E0"/>
<path d="M110.337 197.621C112.23 196.518 113.772 197.406 113.772 199.573C113.707 200.765 113.363 201.925 112.766 202.96C112.169 203.994 111.337 204.873 110.337 205.526C108.385 206.619 106.892 205.731 106.892 203.574C106.956 202.38 107.302 201.219 107.9 200.184C108.499 199.15 109.334 198.271 110.337 197.621Z" fill="#505798"/>
<path d="M117.12 197.601C117.12 198.577 117.959 198.811 119.004 198.216L179.799 163.08C180.304 162.792 180.736 162.391 181.061 161.909C181.386 161.426 181.596 160.875 181.673 160.298C181.673 159.322 180.833 159.088 179.799 159.684L119.004 194.82C118.495 195.105 118.06 195.505 117.733 195.987C117.406 196.47 117.196 197.023 117.12 197.601Z" fill="#455A64"/>
<path d="M106.892 215.374C106.892 216.35 107.731 216.584 108.775 215.989L250.295 134.317C250.802 134.03 251.235 133.63 251.56 133.147C251.885 132.664 252.094 132.113 252.169 131.536C252.169 130.56 251.33 130.335 250.295 130.93L108.775 212.592C108.267 212.878 107.832 213.278 107.505 213.761C107.178 214.244 106.968 214.796 106.892 215.374Z" fill="#E0E0E0"/>
<path d="M106.892 222.177C106.892 223.153 107.731 223.387 108.775 222.792L250.295 141.12C250.801 140.835 251.234 140.437 251.56 139.955C251.885 139.474 252.094 138.924 252.169 138.348C252.169 137.372 251.33 137.138 250.295 137.733L108.775 219.405C108.268 219.689 107.833 220.088 107.506 220.569C107.179 221.05 106.969 221.6 106.892 222.177Z" fill="#E0E0E0"/>
<path d="M106.892 228.989C106.892 229.965 107.731 230.2 108.775 229.594L250.295 147.933C250.801 147.645 251.233 147.244 251.558 146.761C251.883 146.279 252.092 145.728 252.169 145.151C252.169 144.175 251.33 143.941 250.295 144.536L108.775 226.208C108.266 226.493 107.831 226.893 107.504 227.376C107.177 227.859 106.967 228.411 106.892 228.989Z" fill="#E0E0E0"/>
<path d="M115.09 233.889C115.09 234.865 115.929 235.089 116.964 234.494L124.596 230.102C125.103 229.814 125.537 229.414 125.863 228.931C126.19 228.449 126.401 227.898 126.48 227.32C126.48 226.344 125.631 226.11 124.596 226.715L116.964 231.107C116.457 231.394 116.025 231.795 115.699 232.277C115.374 232.76 115.166 233.312 115.09 233.889Z" fill="#E0E0E0"/>
<path d="M138.738 220.088C138.738 221.064 139.588 221.298 140.622 220.703L148.254 216.301C148.76 216.015 149.192 215.616 149.517 215.135C149.842 214.654 150.051 214.105 150.128 213.529C150.128 212.553 149.289 212.319 148.254 212.914L140.622 217.306C140.115 217.594 139.682 217.994 139.355 218.477C139.028 218.959 138.817 219.511 138.738 220.088Z" fill="#E0E0E0"/>
<path d="M106.892 240.096V236.504C106.903 236.286 106.967 236.074 107.077 235.886C107.187 235.697 107.341 235.538 107.526 235.421L112.172 232.747C112.513 232.552 112.796 232.747 112.796 233.118V236.7C112.784 236.917 112.722 237.128 112.613 237.316C112.505 237.504 112.353 237.664 112.172 237.783L107.526 240.457C107.175 240.613 106.892 240.448 106.892 240.096Z" fill="#EBEBEB"/>
<path d="M109.088 239.374L110.61 238.495L109.849 240.691L109.088 239.374Z" fill="#EBEBEB"/>
<path d="M132.609 221.65L133.224 222.206C131.165 225.31 131.887 226.754 133.692 227.457C133.097 226.793 133.273 224.831 134.395 223.26L135.01 223.807C135.127 223.914 135.43 223.738 135.498 223.514L136.542 220.235C136.542 220.078 136.494 220 136.328 220.049L132.902 221.172C132.668 221.25 132.492 221.552 132.609 221.65Z" fill="#EBEBEB"/>
<path d="M263.666 109.644L302.384 87.2936C302.921 86.9813 303.36 87.235 303.36 87.8596V126.158C303.341 126.499 303.243 126.83 303.073 127.127C302.904 127.423 302.668 127.676 302.384 127.866L263.666 150.216C263.13 150.529 262.69 150.275 262.69 149.65V111.352C262.708 111.011 262.805 110.678 262.974 110.381C263.144 110.085 263.381 109.832 263.666 109.644Z" fill="#505798"/>
<path opacity="0.8" d="M263.666 109.644L302.384 87.2936C302.921 86.9813 303.36 87.235 303.36 87.8596V126.158C303.341 126.499 303.243 126.83 303.073 127.127C302.904 127.423 302.668 127.676 302.384 127.866L263.666 150.216C263.13 150.529 262.69 150.275 262.69 149.65V111.352C262.708 111.011 262.805 110.678 262.974 110.381C263.144 110.085 263.381 109.832 263.666 109.644Z" fill="white"/>
<path d="M292.566 109.019L286.105 120.468L290.643 126.324L275.632 113.392L262.681 141.413V149.621C262.681 150.246 263.13 150.499 263.657 150.187L302.384 127.856C302.668 127.666 302.904 127.413 303.073 127.117C303.243 126.821 303.341 126.489 303.36 126.148V118.877L292.566 109.019Z" fill="#505798"/>
<path d="M294.118 97.239C295.728 96.3118 297.046 97.0633 297.046 98.9177C296.991 99.9315 296.697 100.918 296.188 101.797C295.679 102.675 294.97 103.421 294.118 103.973C292.507 104.949 291.19 104.149 291.19 102.285C291.246 101.273 291.541 100.288 292.05 99.4115C292.558 98.5347 293.267 97.7903 294.118 97.239Z" fill="#505798"/>
<path d="M79.1927 323.7L307.664 191.784C309.392 190.808 310.797 191.599 310.797 193.59V239.755C310.739 240.84 310.425 241.897 309.88 242.839C309.336 243.78 308.577 244.579 307.664 245.171L79.1927 377.087C77.4651 378.063 76.0597 377.273 76.0597 375.282V329.117C76.1181 328.031 76.4324 326.974 76.9769 326.033C77.5213 325.092 78.2805 324.292 79.1927 323.7Z" fill="#FAFAFA"/>
<path d="M84.9022 346.675V339.892L81.9352 341.59L87.801 331.43L93.6667 334.817L90.768 336.486L90.7778 343.279L84.9022 346.675Z" fill="#455A64"/>
<path d="M81.7888 356.24C81.7728 355.591 81.9029 354.948 82.1694 354.356C82.3578 353.953 82.6597 353.614 83.0381 353.38C83.1621 353.288 83.3163 353.246 83.4701 353.262C83.6238 353.278 83.7658 353.352 83.8677 353.468C84.1266 353.782 84.2527 354.185 84.219 354.591C84.2125 355.144 84.1371 355.695 83.9946 356.23C83.9067 356.543 83.7213 357.118 83.4187 357.948C83.3406 358.172 83.2138 358.514 83.0576 358.992L82.921 359.383C82.8331 359.636 82.7648 359.832 82.7258 359.978C82.7188 360.02 82.7188 360.063 82.7258 360.105L84.1995 359.256V360.378L81.8181 361.754V360.7C81.8181 360.7 81.8766 360.505 81.984 360.183L82.1499 359.695L82.3451 359.148C82.4622 358.846 82.6379 358.358 82.8819 357.684C83.0853 357.148 83.258 356.601 83.3992 356.045C83.48 355.725 83.5258 355.398 83.5358 355.069C83.5494 354.887 83.505 354.706 83.409 354.551C83.3897 354.524 83.3651 354.502 83.3367 354.484C83.3083 354.467 83.2767 354.456 83.2438 354.451C83.2109 354.447 83.1774 354.449 83.1454 354.458C83.1134 354.467 83.0835 354.482 83.0576 354.503C82.9308 354.599 82.8254 354.721 82.7481 354.861C82.6708 355 82.6233 355.154 82.6086 355.313C82.5929 355.469 82.5929 355.625 82.6086 355.781V356.074L81.8669 356.494L81.7888 356.24Z" fill="#37474F"/>
<path d="M85.888 358.299C86.0608 358.191 86.2004 358.037 86.2916 357.855C86.3829 357.672 86.4222 357.468 86.4053 357.265V356.816C86.4053 356.025 86.132 355.84 85.6049 356.094V355.118C85.8935 354.948 86.1169 354.687 86.2393 354.376C86.3749 354.045 86.4413 353.689 86.4345 353.332V353.156C86.4345 352.658 86.2881 352.492 86.0051 352.658C85.8317 352.767 85.7062 352.938 85.6537 353.136C85.5959 353.329 85.5695 353.53 85.5757 353.732V353.937L84.8339 354.356V354.181C84.8294 353.673 84.9222 353.17 85.1072 352.697C85.2622 352.249 85.5651 351.867 85.9661 351.614C86.0878 351.512 86.2442 351.461 86.4024 351.472C86.5606 351.483 86.7085 351.555 86.8152 351.672C87.03 351.987 87.13 352.366 87.0982 352.746V353.068C87.0967 353.544 87.0005 354.015 86.8152 354.454C86.7419 354.641 86.6503 354.821 86.5419 354.991C86.668 355.038 86.7809 355.115 86.8709 355.215C86.9609 355.316 87.0255 355.436 87.0592 355.567C87.1265 355.781 87.1562 356.006 87.147 356.23V356.835C87.1521 357.394 87.025 357.946 86.7761 358.446C86.5875 358.865 86.2783 359.218 85.888 359.461C85.7662 359.557 85.6137 359.604 85.4591 359.595C85.3044 359.586 85.1585 359.521 85.0486 359.412C84.9207 359.262 84.8244 359.088 84.7657 358.901C84.707 358.713 84.687 358.515 84.707 358.319V358.133L85.4195 357.636V357.899C85.4151 358.042 85.4638 358.181 85.5561 358.29C85.6733 358.368 85.7709 358.368 85.888 358.299Z" fill="#37474F"/>
<path d="M87.6741 357.216L88.4256 356.787V357.938L87.6741 358.378V357.216Z" fill="#37474F"/>
<path d="M91.3731 354.493C91.3707 355.011 91.2506 355.522 91.0218 355.986C90.8437 356.387 90.5518 356.726 90.1824 356.962H90.1238C90.0021 357.058 89.8495 357.106 89.6949 357.097C89.5403 357.088 89.3943 357.023 89.2845 356.914C89.1592 356.764 89.0645 356.592 89.0059 356.406C88.9473 356.22 88.9259 356.024 88.9429 355.83V355.127C88.9446 354.646 89.0477 354.171 89.2454 353.732C89.3244 353.538 89.4259 353.355 89.548 353.185C89.3528 353.14 89.1966 352.964 89.0795 352.658C89.0211 352.439 88.9948 352.212 89.0014 351.985V351.575C88.999 351.095 89.0953 350.62 89.2845 350.179C89.4432 349.752 89.7381 349.388 90.1238 349.145H90.1824C90.3042 349.043 90.4605 348.992 90.6187 349.003C90.777 349.014 90.9249 349.086 91.0315 349.203C91.2464 349.518 91.3463 349.897 91.3146 350.277V350.687C91.316 351.15 91.2195 351.609 91.0315 352.034C90.9624 352.208 90.8705 352.372 90.7582 352.522C90.8852 352.567 90.9989 352.644 91.0891 352.745C91.1794 352.845 91.2434 352.966 91.2755 353.097C91.3511 353.31 91.3843 353.536 91.3731 353.761V354.493ZM90.6509 350.999C90.6509 350.482 90.5338 350.218 90.3288 350.199C90.2662 350.203 90.2058 350.223 90.1531 350.257C90.0161 350.336 89.9069 350.455 89.8408 350.599C89.7703 350.734 89.7209 350.878 89.6944 351.028C89.678 351.207 89.678 351.386 89.6944 351.565C89.6809 351.791 89.7176 352.018 89.8018 352.229C89.8798 352.375 90.0067 352.395 90.1824 352.297C90.3777 352.176 90.5179 351.983 90.5728 351.76C90.6422 351.513 90.6686 351.255 90.6509 350.999ZM90.6509 354.376C90.6509 353.927 90.5826 353.654 90.4459 353.585C90.3093 353.517 90.2995 353.585 90.1824 353.585C90.0683 353.665 89.9738 353.77 89.9061 353.892C89.8385 354.013 89.7995 354.149 89.792 354.288C89.7459 354.51 89.723 354.735 89.7237 354.962V355.264C89.7063 355.453 89.7622 355.642 89.8798 355.791C89.9237 355.828 89.9789 355.848 90.036 355.848C90.0931 355.848 90.1483 355.828 90.1922 355.791C90.4222 355.623 90.5765 355.37 90.6216 355.088C90.637 354.962 90.637 354.834 90.6216 354.708L90.6509 354.376Z" fill="#37474F"/>
<path d="M92.7786 353V355.42L92.027 355.86V348.208L92.7786 347.778V350.501L93.6862 347.251L94.4866 346.792L93.5106 350.501L94.672 354.337L93.7936 354.845L93.0128 352.19L92.7786 353Z" fill="#37474F"/>
<path d="M99.552 362.974C99.5255 362.974 99.4993 362.969 99.475 362.959C99.4506 362.948 99.4287 362.933 99.4104 362.914C99.3921 362.895 99.378 362.872 99.3688 362.847C99.3595 362.822 99.3555 362.796 99.3568 362.769V315.336C99.3501 315.306 99.3503 315.275 99.3572 315.245C99.3642 315.215 99.3778 315.187 99.397 315.163C99.4162 315.139 99.4405 315.12 99.4682 315.107C99.4959 315.093 99.5262 315.086 99.5569 315.086C99.5876 315.086 99.6179 315.093 99.6455 315.107C99.6732 315.12 99.6975 315.139 99.7167 315.163C99.736 315.187 99.7495 315.215 99.7565 315.245C99.7635 315.275 99.7636 315.306 99.757 315.336V362.769C99.757 362.824 99.7354 362.876 99.6969 362.914C99.6585 362.953 99.6064 362.974 99.552 362.974Z" fill="#E0E0E0"/>
<path d="M110.288 311.969C112.24 310.866 113.733 311.754 113.733 313.921C113.669 315.114 113.323 316.276 112.724 317.311C112.126 318.345 111.291 319.224 110.288 319.874C108.395 320.977 106.852 320.079 106.852 317.922C106.917 316.73 107.262 315.569 107.859 314.535C108.456 313.501 109.288 312.622 110.288 311.969Z" fill="#505798"/>
<path d="M117.12 311.949C117.12 312.925 117.959 313.16 119.004 312.564L179.799 277.428C180.304 277.14 180.736 276.739 181.061 276.257C181.386 275.774 181.596 275.223 181.673 274.647C181.673 273.671 180.833 273.436 179.799 274.032L119.004 309.168C118.495 309.453 118.06 309.853 117.733 310.336C117.406 310.818 117.196 311.371 117.12 311.949Z" fill="#455A64"/>
<path d="M106.872 329.722C106.872 330.698 107.711 330.932 108.746 330.337L250.266 248.665C250.772 248.378 251.205 247.978 251.53 247.495C251.856 247.012 252.064 246.461 252.14 245.884C252.14 244.908 251.301 244.683 250.266 245.279L108.746 326.96C108.241 327.244 107.809 327.641 107.484 328.12C107.158 328.6 106.949 329.148 106.872 329.722Z" fill="#E0E0E0"/>
<path d="M106.872 336.525C106.872 337.501 107.711 337.735 108.746 337.14L250.266 255.468C250.772 255.183 251.205 254.785 251.53 254.304C251.856 253.822 252.064 253.272 252.14 252.696C252.14 251.72 251.301 251.486 250.266 252.081L108.746 333.792C108.245 334.074 107.816 334.467 107.491 334.941C107.167 335.415 106.955 335.957 106.872 336.525Z" fill="#E0E0E0"/>
<path d="M106.872 343.337C106.872 344.313 107.711 344.548 108.746 343.943L250.266 262.281C250.771 261.993 251.204 261.592 251.529 261.109C251.854 260.627 252.063 260.076 252.14 259.499C252.14 258.523 251.301 258.289 250.266 258.894L108.746 340.556C108.239 340.843 107.807 341.243 107.481 341.726C107.156 342.209 106.948 342.76 106.872 343.337Z" fill="#E0E0E0"/>
<path d="M115.07 348.237C115.07 349.213 115.91 349.447 116.944 348.842L124.577 344.45C125.083 344.163 125.516 343.763 125.841 343.28C126.166 342.797 126.375 342.246 126.451 341.668C126.451 340.692 125.611 340.458 124.577 341.063L116.944 345.455C116.438 345.742 116.005 346.143 115.68 346.625C115.355 347.108 115.146 347.66 115.07 348.237Z" fill="#E0E0E0"/>
<path d="M138.719 334.436C138.719 335.412 139.558 335.646 140.603 335.051L148.235 330.649C148.741 330.365 149.174 329.966 149.499 329.485C149.825 329.004 150.033 328.453 150.109 327.877C150.109 326.901 149.269 326.667 148.235 327.263L140.603 331.655C140.094 331.94 139.66 332.34 139.333 332.823C139.006 333.306 138.796 333.858 138.719 334.436Z" fill="#E0E0E0"/>
<path d="M106.872 354.405V350.814C106.884 350.597 106.947 350.386 107.055 350.197C107.164 350.009 107.315 349.849 107.497 349.73L112.152 347.056C112.494 346.861 112.777 347.056 112.777 347.427V351.019C112.764 351.234 112.701 351.443 112.592 351.63C112.484 351.816 112.333 351.975 112.152 352.092L107.497 354.766C107.155 354.962 106.872 354.805 106.872 354.405Z" fill="#EBEBEB"/>
<path d="M109.068 353.722L110.591 352.844L109.829 355.04L109.068 353.722Z" fill="#EBEBEB"/>
<path d="M132.59 335.998L133.204 336.554C131.145 339.658 131.867 341.102 133.673 341.805C133.078 341.141 133.253 339.18 134.376 337.608L134.991 338.155C135.108 338.262 135.41 338.087 135.479 337.862L136.513 334.583C136.513 334.427 136.464 334.348 136.308 334.397L132.873 335.52C132.648 335.598 132.472 335.891 132.59 335.998Z" fill="#EBEBEB"/>
<path d="M263.647 223.992L302.365 201.642C302.902 201.329 303.341 201.583 303.341 202.208V240.506C303.321 240.847 303.223 241.178 303.054 241.475C302.884 241.771 302.649 242.024 302.365 242.214L263.647 264.564C263.1 264.877 262.671 264.623 262.671 263.998V225.7C262.688 225.359 262.785 225.026 262.955 224.73C263.124 224.433 263.361 224.18 263.647 223.992Z" fill="#505798"/>
<path opacity="0.8" d="M263.647 223.992L302.365 201.642C302.902 201.329 303.341 201.583 303.341 202.208V240.506C303.321 240.847 303.223 241.178 303.054 241.475C302.884 241.771 302.649 242.024 302.365 242.214L263.647 264.564C263.1 264.877 262.671 264.623 262.671 263.998V225.7C262.688 225.359 262.785 225.026 262.955 224.73C263.124 224.433 263.361 224.18 263.647 223.992Z" fill="white"/>
<path d="M292.546 223.367L286.075 234.816L290.623 240.672L275.603 227.73L262.661 255.751V263.959C262.661 264.584 263.1 264.838 263.637 264.525L302.355 242.175C302.639 241.985 302.875 241.732 303.044 241.436C303.213 241.139 303.312 240.808 303.331 240.467V233.264L292.546 223.367Z" fill="#505798"/>
<path d="M294.098 211.587C295.708 210.66 297.026 211.411 297.026 213.266C296.971 214.28 296.677 215.266 296.168 216.145C295.659 217.023 294.95 217.769 294.098 218.322C292.488 219.249 291.17 218.497 291.17 216.633C291.227 215.621 291.521 214.636 292.03 213.76C292.539 212.883 293.247 212.138 294.098 211.587Z" fill="#505798"/>
<path d="M79.2122 270.352L307.694 138.446C309.421 137.47 310.817 138.251 310.817 140.251V178.735C310.759 179.82 310.446 180.876 309.903 181.817C309.36 182.758 308.604 183.558 307.694 184.152L79.2122 316.068C77.4846 317.044 76.089 316.263 76.089 314.262V275.779C76.1456 274.692 76.458 273.634 77.0007 272.691C77.5434 271.748 78.3011 270.947 79.2122 270.352Z" fill="#FAFAFA"/>
<path d="M84.9218 287.949L84.9315 281.176L81.9547 282.874L87.8205 272.704L93.6862 276.091L90.7973 277.77V284.563L84.9218 287.949Z" fill="#455A64"/>
<path d="M81.8083 297.553C81.7924 296.908 81.9225 296.267 82.189 295.679C82.3717 295.273 82.6749 294.932 83.0576 294.703C83.1808 294.594 83.3423 294.538 83.5069 294.547C83.6714 294.556 83.8256 294.63 83.936 294.752C84.1869 295.07 84.3089 295.471 84.2776 295.875C84.2717 296.425 84.1963 296.973 84.0531 297.504C83.975 297.827 83.7798 298.393 83.4773 299.222C83.3992 299.447 83.2723 299.798 83.1162 300.267L82.9795 300.657C82.8917 300.911 82.8234 301.106 82.7843 301.252C82.7799 301.294 82.7799 301.337 82.7843 301.379L84.2581 300.53V301.662L81.8766 303.038V301.975C81.8766 301.975 81.9352 301.779 82.0426 301.467L82.2085 300.979L82.4037 300.432L82.9405 298.968C83.1438 298.432 83.3165 297.885 83.4578 297.329C83.5374 297.009 83.5832 296.682 83.5944 296.353C83.6094 296.171 83.5648 295.99 83.4675 295.835C83.4455 295.811 83.4185 295.791 83.3882 295.777C83.3579 295.763 83.3251 295.756 83.2918 295.756C83.2586 295.756 83.2258 295.763 83.1955 295.777C83.1652 295.791 83.1381 295.811 83.1162 295.835C82.9885 295.931 82.8824 296.053 82.8051 296.193C82.7277 296.332 82.6807 296.487 82.6672 296.646C82.6515 296.798 82.6515 296.952 82.6672 297.104V297.397L81.9254 297.827L81.8083 297.553Z" fill="#37474F"/>
<path d="M87.1861 298.197C87.1837 298.715 87.0635 299.226 86.8347 299.691C86.6592 300.093 86.3668 300.433 85.9954 300.667H85.9368C85.8131 300.759 85.6603 300.804 85.5062 300.793C85.3522 300.783 85.2071 300.717 85.0974 300.608C84.9721 300.459 84.8775 300.286 84.8188 300.1C84.7602 299.915 84.7388 299.719 84.7558 299.525V298.832C84.7576 298.347 84.8607 297.869 85.0584 297.426C85.1416 297.235 85.2429 297.052 85.361 296.88C85.1658 296.841 85.0096 296.665 84.8925 296.353C84.8346 296.136 84.8083 295.913 84.8144 295.689V295.269C84.813 294.79 84.9093 294.315 85.0974 293.874C85.2587 293.448 85.553 293.085 85.9368 292.839H85.9954C86.1171 292.737 86.2735 292.687 86.4317 292.698C86.5899 292.709 86.7378 292.78 86.8445 292.898C87.0594 293.209 87.1594 293.585 87.1275 293.962V294.381C87.1309 294.843 87.0413 295.301 86.864 295.728C86.7872 295.898 86.6958 296.062 86.5907 296.216C86.7146 296.265 86.8251 296.343 86.9133 296.443C87.0014 296.543 87.0648 296.663 87.0982 296.792C87.1729 297.008 87.206 297.237 87.1958 297.465L87.1861 298.197ZM86.4638 294.752C86.4638 294.225 86.3467 293.962 86.1418 293.952C86.0793 293.947 86.0173 293.965 85.9661 294.001C85.8288 294.083 85.7198 294.206 85.6538 294.352C85.5809 294.481 85.5344 294.624 85.5171 294.772C85.5008 294.953 85.5008 295.136 85.5171 295.318C85.5041 295.541 85.5408 295.765 85.6245 295.972C85.7026 296.128 85.8294 296.148 86.0051 296.04C86.2027 295.92 86.3461 295.727 86.4053 295.504C86.4625 295.257 86.4823 295.004 86.4638 294.752ZM86.4638 298.129C86.4638 297.67 86.3955 297.407 86.2686 297.329C86.1418 297.251 86.1125 297.329 85.9954 297.329C85.8883 297.396 85.7971 297.486 85.728 297.592C85.6589 297.699 85.6136 297.818 85.5952 297.944C85.5528 298.166 85.5332 298.391 85.5366 298.617V298.988C85.5181 299.173 85.5704 299.358 85.683 299.505C85.7283 299.539 85.783 299.556 85.8392 299.556C85.8954 299.556 85.9501 299.539 85.9954 299.505C86.226 299.333 86.3802 299.077 86.4248 298.793C86.4402 298.666 86.4402 298.539 86.4248 298.412L86.4638 298.129Z" fill="#37474F"/>
<path d="M87.7034 298.5L88.4451 298.07V299.222L87.7034 299.651V298.5Z" fill="#37474F"/>
<path d="M88.9722 293.425C88.9551 292.776 89.0852 292.132 89.3528 291.541C89.5356 291.134 89.8388 290.794 90.2214 290.565C90.347 290.472 90.5028 290.43 90.6582 290.446C90.8136 290.462 90.9572 290.536 91.0608 290.653C91.3117 290.971 91.4337 291.372 91.4024 291.775C91.3965 292.326 91.3211 292.874 91.1779 293.405C91.0998 293.727 90.9046 294.293 90.6021 295.123C90.524 295.347 90.3971 295.699 90.2409 296.167L90.1043 296.558C90.0165 296.811 89.9482 297.016 89.9091 297.153C89.8701 297.29 89.9091 297.27 89.9091 297.28L91.3829 296.441V297.563L89.0014 298.939V297.885C89.0014 297.885 89.06 297.69 89.1674 297.368L89.3333 296.88L89.5285 296.333C89.6456 296.031 89.8213 295.543 90.0653 294.869C90.2686 294.333 90.4413 293.785 90.5825 293.23C90.6666 292.911 90.7125 292.583 90.7192 292.254C90.7342 292.072 90.6896 291.89 90.5923 291.736C90.574 291.708 90.5499 291.684 90.5215 291.666C90.4931 291.648 90.4611 291.636 90.4278 291.631C90.3945 291.627 90.3605 291.629 90.3283 291.639C90.296 291.649 90.2662 291.665 90.2409 291.687C90.1132 291.783 90.0072 291.905 89.9298 292.044C89.8525 292.184 89.8055 292.338 89.792 292.498C89.7759 292.653 89.7759 292.81 89.792 292.966V293.259L89.0502 293.678L88.9722 293.425Z" fill="#37474F"/>
<path d="M92.7786 294.293V296.704L92.027 297.133V289.491L92.7786 289.052V291.824L93.696 288.564L94.4963 288.105L93.5203 291.814L94.672 295.621L93.7838 296.128L93.003 293.483L92.7786 294.293Z" fill="#37474F"/>
<path d="M99.552 301.955C99.5256 301.956 99.4991 301.952 99.4743 301.943C99.4495 301.934 99.4268 301.92 99.4076 301.901C99.3884 301.883 99.3732 301.861 99.3628 301.837C99.3524 301.812 99.347 301.786 99.347 301.76V262.007C99.347 261.953 99.3686 261.901 99.4071 261.862C99.4455 261.824 99.4976 261.802 99.552 261.802C99.5785 261.802 99.6047 261.808 99.629 261.818C99.6534 261.828 99.6753 261.844 99.6936 261.863C99.7119 261.882 99.726 261.905 99.7352 261.93C99.7444 261.954 99.7485 261.981 99.7472 262.007V301.76C99.7472 301.811 99.7266 301.861 99.69 301.898C99.6534 301.934 99.6038 301.955 99.552 301.955Z" fill="#E0E0E0"/>
<path d="M110.337 258.64C112.23 257.547 113.772 258.435 113.772 260.592C113.707 261.786 113.362 262.947 112.765 263.983C112.168 265.019 111.336 265.9 110.337 266.555C108.385 267.649 106.892 266.76 106.892 264.603C106.955 263.408 107.3 262.245 107.899 261.209C108.498 260.172 109.333 259.292 110.337 258.64Z" fill="#505798"/>
<path d="M117.12 258.64C117.12 259.616 117.959 259.85 119.004 259.245L205.741 209.108C206.247 208.821 206.68 208.421 207.005 207.938C207.331 207.455 207.539 206.904 207.615 206.326C207.615 205.399 206.775 205.126 205.741 205.721L119.072 255.839C118.549 256.119 118.099 256.518 117.759 257.005C117.42 257.492 117.201 258.052 117.12 258.64Z" fill="#455A64"/>
<path d="M106.892 276.394C106.892 277.321 107.731 277.594 108.775 276.999L298.851 167.326C299.358 167.039 299.79 166.638 300.116 166.156C300.441 165.673 300.649 165.121 300.725 164.544C300.725 163.568 299.886 163.344 298.851 163.939L108.775 273.612C108.266 273.897 107.831 274.297 107.504 274.78C107.177 275.263 106.967 275.815 106.892 276.394Z" fill="#E0E0E0"/>
<path d="M106.892 283.196C106.892 284.172 107.731 284.407 108.775 283.801L298.851 174.128C299.357 173.844 299.79 173.445 300.116 172.964C300.441 172.483 300.65 171.932 300.725 171.356C300.725 170.38 299.886 170.146 298.851 170.742L108.775 280.415C108.267 280.7 107.832 281.101 107.505 281.583C107.178 282.066 106.968 282.618 106.892 283.196Z" fill="#E0E0E0"/>
<path d="M115.09 287.022C115.09 287.998 115.929 288.232 116.964 287.637L124.596 283.245C125.103 282.958 125.537 282.557 125.863 282.075C126.19 281.592 126.401 281.041 126.48 280.463C126.48 279.487 125.631 279.253 124.596 279.858L116.964 284.25C116.459 284.536 116.026 284.935 115.701 285.416C115.376 285.897 115.167 286.447 115.09 287.022Z" fill="#E0E0E0"/>
<path d="M138.738 273.28C138.738 274.256 139.588 274.49 140.622 273.885L148.254 269.493C148.761 269.206 149.194 268.806 149.519 268.323C149.844 267.84 150.053 267.289 150.128 266.712C150.128 265.736 149.289 265.511 148.254 266.106L140.622 270.498C140.115 270.786 139.682 271.186 139.355 271.669C139.028 272.151 138.817 272.703 138.738 273.28Z" fill="#E0E0E0"/>
<path d="M106.892 293.191V289.609C106.903 289.391 106.967 289.178 107.077 288.99C107.187 288.801 107.341 288.642 107.526 288.525L112.172 285.851C112.513 285.656 112.796 285.851 112.796 286.212V289.804C112.784 290.021 112.722 290.232 112.613 290.42C112.505 290.608 112.353 290.768 112.172 290.887L107.526 293.562C107.175 293.776 106.892 293.591 106.892 293.191Z" fill="#EBEBEB"/>
<path d="M109.088 292.517L110.61 291.639L109.849 293.835L109.088 292.517Z" fill="#EBEBEB"/>
<path d="M132.609 274.793L133.224 275.34C131.165 278.453 131.887 279.897 133.692 280.6C133.097 279.936 133.273 277.975 134.395 276.403L135.01 276.95C135.127 277.057 135.43 276.882 135.498 276.657L136.542 273.378C136.542 273.222 136.494 273.134 136.328 273.192L132.902 274.315C132.668 274.393 132.492 274.686 132.609 274.793Z" fill="#EBEBEB"/>
<path d="M235.431 372.256C235.431 365.717 233.41 359.324 226.813 355.518C222.973 353.525 218.682 352.56 214.359 352.717H214.251C208.795 352.725 203.427 354.097 198.636 356.708C194.732 358.953 193.063 362.086 193.072 365.18V371.856C185.479 370.041 175.046 370.285 168.672 373.964C164.202 376.551 161.84 379.82 161.772 382.982V383.041V391.971C161.777 392.027 161.777 392.082 161.772 392.137V392.196C161.723 394.899 163.304 397.466 166.652 399.389C176.978 405.352 198.274 404.884 214.3 403.449L231.166 401.907L233.83 392.147C234.819 388.618 235.354 384.978 235.421 381.313V372.217L235.431 372.256Z" fill="#505798"/>
<path opacity="0.15" d="M231.175 392.782V401.917L214.32 403.469C198.284 404.913 176.988 405.421 166.672 399.418C163.334 397.466 161.792 394.919 161.792 392.225V392.167V392.001V383.217C161.792 385.852 163.373 388.38 166.672 390.263C176.988 396.227 198.284 395.758 214.32 394.314L231.175 392.782Z" fill="black"/>
<path opacity="0.3" d="M197.357 373.232C195.966 372.655 194.53 372.194 193.063 371.856V365.161C193.126 366.742 193.546 368.289 194.289 369.686C195.033 371.083 196.081 372.295 197.357 373.232Z" fill="black"/>
<path d="M226.813 355.518C222.973 353.525 218.682 352.56 214.359 352.717H214.252C208.795 352.725 203.427 354.097 198.636 356.708C190.955 361.13 191.891 368.996 197.347 373.301C189.969 370.148 176.344 369.611 168.682 374.042C164.212 376.629 161.85 379.898 161.782 383.061V383.119C161.733 385.813 163.314 388.389 166.662 390.312C176.988 396.276 198.284 395.807 214.31 394.372L231.175 392.83L233.84 383.07C236.329 373.808 237.168 361.481 226.813 355.518Z" fill="#505798"/>
<path opacity="0.3" d="M235.431 372.256V381.352C235.367 385.017 234.832 388.658 233.84 392.186L231.175 401.946V392.791L233.84 383.031C234.824 379.521 235.359 375.901 235.431 372.256Z" fill="black"/>
<path d="M330.366 328.961C330.342 328.41 330.168 327.877 329.861 327.419C329.555 326.961 329.129 326.597 328.629 326.365C327.329 325.637 325.937 325.089 324.491 324.735C326.638 323.495 325.974 320.626 324.315 319.679C322.9 318.839 321.317 318.319 319.679 318.156C321.514 316.527 320.753 314.477 318.762 313.335C317.646 312.736 316.424 312.364 315.164 312.24C313.904 312.117 312.633 312.243 311.422 312.613C311.764 311.851 312.008 310.095 309.411 308.601C307.792 307.781 305.995 307.375 304.18 307.42C302.746 307.417 301.335 307.78 300.081 308.475L284.797 317.259C282.68 315.165 280.173 313.507 277.418 312.379C275.211 311.444 272.925 310.709 270.586 310.183C269.392 309.89 268.165 309.759 266.936 309.792C262.505 309.899 259.128 311.998 259.128 312.925V322.051C259.127 322.116 259.145 322.18 259.18 322.235C259.215 322.291 259.264 322.335 259.323 322.363C260.651 323.134 268.615 326.95 269.571 328.278C270.528 329.605 273.758 339.111 273.885 339.541L302.56 356.142C302.56 356.142 324.53 343.454 327.838 341.502C329.595 340.526 330.396 339.238 330.386 338.086V328.961H330.366Z" fill="#505798"/>
<path opacity="0.2" d="M273.885 330.483V339.648C273.768 339.228 270.596 329.702 269.581 328.395V319.269C270.596 320.538 273.768 330.064 273.885 330.483Z" fill="black"/>
<path opacity="0.3" d="M302.54 346.988V356.142L273.895 339.609V330.483L302.54 346.988Z" fill="black"/>
<path d="M319.679 318.176C321.317 318.339 322.9 318.858 324.315 319.699C325.974 320.675 326.638 323.515 324.491 324.754C325.937 325.109 327.329 325.657 328.629 326.384C331.049 327.751 331.127 330.483 327.819 332.396L302.54 347.036L273.914 330.532C273.788 330.113 270.616 320.587 269.6 319.279C268.585 317.971 260.68 314.135 259.352 313.364C258.269 312.74 261.9 310.036 266.946 309.919C268.174 309.886 269.402 310.017 270.596 310.31C272.934 310.836 275.221 311.571 277.428 312.506C280.183 313.634 282.69 315.292 284.807 317.386L300.091 308.602C301.345 307.907 302.756 307.544 304.19 307.547C306.005 307.502 307.802 307.908 309.421 308.728C312.017 310.222 311.773 311.978 311.432 312.74C312.642 312.37 313.914 312.243 315.174 312.367C316.433 312.491 317.656 312.863 318.771 313.462C320.753 314.477 321.514 316.527 319.679 318.176Z" fill="#505798"/>
<path opacity="0.15" d="M330.376 328.961V338.077C330.376 339.238 329.585 340.487 327.829 341.502C324.52 343.454 302.55 356.142 302.55 356.142V346.987L327.829 332.347C329.576 331.362 330.376 330.112 330.376 328.961Z" fill="black"/>
<path opacity="0.15" d="M269.581 319.23V328.356C268.605 327.019 260.66 323.212 259.333 322.441C259.273 322.411 259.223 322.365 259.189 322.308C259.154 322.251 259.136 322.186 259.138 322.119V313.013C259.14 313.076 259.159 313.138 259.194 313.191C259.228 313.244 259.276 313.287 259.333 313.315C260.66 314.077 268.624 317.893 269.581 319.23Z" fill="black"/>
<path d="M300.764 352.141C300.737 351.919 300.653 351.707 300.519 351.528C300.386 351.348 300.208 351.206 300.003 351.116L270.069 333.841C269.593 333.576 269.063 333.425 268.519 333.401C267.975 333.378 267.433 333.481 266.936 333.704L258.796 338.409C258.646 338.483 258.518 338.595 258.424 338.734C258.33 338.872 258.274 339.032 258.259 339.199V348.325C258.287 348.547 258.372 348.758 258.505 348.937C258.639 349.117 258.816 349.259 259.021 349.349L288.955 366.625C289.43 366.891 289.961 367.041 290.506 367.063C291.05 367.085 291.592 366.978 292.088 366.752L300.227 362.057C300.377 361.982 300.505 361.87 300.599 361.732C300.693 361.593 300.75 361.433 300.764 361.266V352.141Z" fill="#505798"/>
<path opacity="0.15" d="M290.643 357.938V367.074C290.054 367.061 289.475 366.911 288.955 366.634L259.021 349.349C258.816 349.26 258.639 349.118 258.507 348.938C258.375 348.758 258.293 348.546 258.269 348.325V339.199C258.303 339.413 258.391 339.615 258.524 339.785C258.657 339.956 258.831 340.09 259.03 340.175L288.964 357.45C289.475 357.75 290.052 357.917 290.643 357.938Z" fill="black"/>
<path d="M258.796 338.409L266.936 333.704C267.433 333.481 267.975 333.378 268.519 333.401C269.063 333.425 269.593 333.576 270.069 333.841L300.003 351.116C300.93 351.653 301.028 352.463 300.227 352.922L292.087 357.626C291.592 357.853 291.05 357.959 290.506 357.937C289.961 357.915 289.43 357.765 288.955 357.499L259.021 340.214C258.093 339.648 257.996 338.867 258.796 338.409Z" fill="#505798"/>
<path opacity="0.3" d="M300.774 352.15V361.266C300.768 361.434 300.715 361.596 300.622 361.736C300.529 361.875 300.399 361.987 300.247 362.057L292.097 366.761C291.651 366.988 291.153 367.093 290.653 367.064V357.938C291.153 357.968 291.651 357.864 292.097 357.635L300.247 352.931C300.393 352.856 300.519 352.745 300.611 352.609C300.703 352.472 300.759 352.314 300.774 352.15Z" fill="black"/>
<path d="M401.136 156.512C401.136 156.512 395.836 156.316 391.435 163.344C388.438 168.136 377.966 186.114 377.966 186.114C377.966 186.114 357.597 181.478 356.494 180.521C355.391 179.565 355.42 177.066 355.245 175.768C354.961 173.601 355.908 171.464 356.035 170.624C356.269 169.17 353.946 169.648 352.795 171.844C351.946 173.465 351.887 175.104 351.155 175.29C350.153 174.913 349.194 174.428 348.295 173.845C347.036 172.947 344.752 171.464 343.025 172.147C342.741 172.264 342.489 172.446 342.289 172.678C342.089 172.91 341.947 173.186 341.873 173.484C341.813 174.362 341.595 175.221 341.229 176.022C340.954 176.365 340.724 176.742 340.546 177.144C340.38 177.691 340.624 178.12 340.546 178.686C340.478 179.438 339.648 179.936 339.57 180.687C339.482 181.234 339.785 181.761 339.785 182.317C339.785 182.668 339.648 183.01 339.658 183.361C339.697 183.706 339.81 184.039 339.991 184.335C340.171 184.632 340.414 184.886 340.702 185.079C342.505 186.46 344.56 187.475 346.753 188.066C348.608 188.69 351.057 189.042 353.156 189.549C355.254 190.057 379.274 200.431 382.436 197.806C385.598 195.181 401.653 171.249 401.653 171.249C405.304 161.489 401.136 156.512 401.136 156.512Z" fill="#B16668"/>
<path d="M410.437 154.491C410.437 154.491 404.581 153.788 400.824 154.882C397.066 155.975 394.236 157.556 391.454 162.055C387.755 168.077 381.616 178.413 381.616 178.413C384.377 182.595 388.64 185.555 393.523 186.68L404.825 169.297L410.437 154.491Z" fill="#505798"/>
<path d="M430.914 328.756H422.354V343.415H430.914V328.756Z" fill="#B16668"/>
<path d="M407.226 332.445L398.667 332.738L398.237 317.229L407.226 316.937V332.445Z" fill="#B16668"/>
<path d="M434.574 219.278C434.574 227.457 433.129 275.027 433.129 275.027C433.324 277.379 435.589 281.566 435.765 290.038C436.018 302.336 431.285 336.086 431.285 336.086C429.806 336.813 428.185 337.206 426.538 337.238C424.89 337.271 423.255 336.94 421.749 336.271C421.749 336.271 417.845 290.526 416.332 278.355C414.995 267.736 412.721 238.886 412.721 238.886L408.69 273.553C409.688 278.035 410.046 282.635 409.754 287.217C409.354 292.839 407.802 327.692 407.802 327.692C406.309 328.533 404.65 329.036 402.942 329.166C401.234 329.296 399.518 329.049 397.915 328.444C397.915 328.444 391.874 278.765 391.776 273.602C391.669 267.746 394.011 207.625 394.011 207.625L434.574 219.278Z" fill="#37474F"/>
<path d="M428.942 159.088C430.832 159.918 432.316 161.462 433.071 163.382C433.951 165.754 434.375 168.271 434.32 170.8V187.587L434.564 219.268C422.266 225.749 406.641 226.178 393.523 216.604C393.523 216.604 394.255 175.817 394.255 169.151C394.255 168.848 394.255 168.545 394.255 168.233C394.733 158.707 404.113 152.168 413.355 154.569L421.115 156.57L428.923 159.137L428.942 159.088Z" fill="#F0F0F0"/>
<path d="M422.354 339.189V337.959C421.534 338.321 419.631 345.582 416.235 348.695C413.531 351.155 409.852 354.005 408.915 356.747C407.978 359.49 414.048 361.188 416.567 360.739C419.495 360.222 424.58 358.153 425.858 356.24C427.137 354.327 427.732 351.506 428.786 350.101C429.84 348.695 432.222 347.173 432.778 345.504C433.08 344.616 432.719 342.664 432.29 341.014C431.86 339.365 431.46 337.833 430.943 337.969V338.945C429.724 339.907 428.211 340.417 426.658 340.39C425.39 340.39 422.344 340.146 422.354 339.189Z" fill="#263238"/>
<path d="M398.569 330.103C398.13 330.103 397.769 330.747 396.783 331.801C395.32 333.286 393.618 334.513 391.747 335.432C388.546 337.032 382.309 339.502 379.488 340.78C377.722 341.571 377.8 343.708 379.625 344.909C381.45 346.109 385.852 346.997 391.132 345.817C394.011 345.172 397.759 342.518 400.121 342.654C402.483 342.791 406.953 342.762 408.681 341.561C410.408 340.361 409.735 337.774 409.237 335.559C408.7 333.148 408.027 329.381 407.226 329.547V330.376C406.192 331.938 400.882 332.572 398.618 331.42L398.569 330.103Z" fill="#263238"/>
<path d="M412.721 238.886C408.294 237.508 404.222 235.176 400.794 232.054C400.794 232.054 403.098 236.358 409.939 240.369L409.032 270.625L412.721 238.886Z" fill="#263238"/>
<path d="M420.529 126.539C420.577 128.27 420.277 129.993 419.647 131.607C419.017 133.22 418.07 134.691 416.863 135.933C415.655 137.174 414.21 138.161 412.615 138.835C411.019 139.508 409.305 139.855 407.573 139.855C405.841 139.855 404.126 139.508 402.531 138.835C400.935 138.161 399.491 137.174 398.283 135.933C397.075 134.691 396.128 133.22 395.499 131.607C394.869 129.993 394.569 128.27 394.616 126.539C394.616 119.384 400.794 117.95 407.948 117.95C415.103 117.95 420.529 119.384 420.529 126.539Z" fill="#263238"/>
<path d="M427.293 136.298C427.293 136.298 425.39 145.268 424.619 146.742C424.11 147.65 423.271 148.328 422.276 148.635L422.403 142.33L427.293 136.298Z" fill="#263238"/>
<path d="M424.902 123.445C425.569 123.368 426.246 123.444 426.88 123.667C427.514 123.89 428.089 124.255 428.562 124.733C430.133 126.343 429.255 131.37 427.293 136.299L423.701 136.708L424.902 123.445Z" fill="#263238"/>
<path d="M422.608 136.718C423.33 137.148 424.365 135.742 425.253 134.825C426.141 133.907 429.04 132.629 430.494 135.684C431.948 138.738 429.216 142.896 426.922 143.618C423.018 144.848 422.393 142.33 422.393 142.33L422.266 156.921C415.659 164.524 404.074 160.054 409.276 156.16V151.836C407.521 152.115 405.741 152.206 403.966 152.11C401.038 151.661 399.252 149.377 398.374 146.254C396.959 141.217 396.422 137.157 397.622 127.251C398.93 116.388 411.56 116.281 418.382 120.575C425.204 124.869 422.608 136.718 422.608 136.718Z" fill="#B16668"/>
<path d="M412.584 139.197H411.97C411.426 139.224 410.882 139.14 410.371 138.95C409.86 138.761 409.394 138.469 408.999 138.094C408.605 137.718 408.29 137.266 408.076 136.766C407.861 136.265 407.75 135.726 407.75 135.181C407.75 134.636 407.861 134.097 408.076 133.597C408.29 133.096 408.605 132.644 408.999 132.269C409.394 131.893 409.86 131.601 410.371 131.412C410.882 131.222 411.426 131.138 411.97 131.165H412.584C413.129 131.138 413.672 131.222 414.183 131.412C414.694 131.601 415.16 131.893 415.555 132.269C415.95 132.644 416.264 133.096 416.478 133.597C416.693 134.097 416.804 134.636 416.804 135.181C416.804 135.726 416.693 136.265 416.478 136.766C416.264 137.266 415.95 137.718 415.555 138.094C415.16 138.469 414.694 138.761 414.183 138.95C413.672 139.14 413.129 139.224 412.584 139.197ZM411.97 131.838C411.515 131.814 411.061 131.882 410.634 132.039C410.207 132.196 409.817 132.438 409.487 132.751C409.156 133.064 408.893 133.44 408.714 133.858C408.534 134.276 408.441 134.726 408.441 135.181C408.441 135.636 408.534 136.086 408.714 136.504C408.893 136.922 409.156 137.298 409.487 137.611C409.817 137.924 410.207 138.166 410.634 138.323C411.061 138.48 411.515 138.548 411.97 138.524H412.584C413.039 138.548 413.493 138.48 413.92 138.323C414.347 138.166 414.737 137.924 415.068 137.611C415.398 137.298 415.661 136.922 415.84 136.504C416.02 136.086 416.113 135.636 416.113 135.181C416.113 134.726 416.02 134.276 415.84 133.858C415.661 133.44 415.398 133.064 415.068 132.751C414.737 132.438 414.347 132.196 413.92 132.039C413.493 131.882 413.039 131.814 412.584 131.838H411.97Z" fill="#263238"/>
<path d="M400.336 139.197H399.711C399.167 139.224 398.623 139.14 398.112 138.95C397.602 138.761 397.135 138.469 396.741 138.094C396.346 137.718 396.032 137.266 395.817 136.766C395.603 136.265 395.492 135.726 395.492 135.181C395.492 134.636 395.603 134.097 395.817 133.597C396.032 133.096 396.346 132.644 396.741 132.269C397.135 131.893 397.602 131.601 398.112 131.412C398.623 131.222 399.167 131.138 399.711 131.165H400.336C400.88 131.138 401.424 131.222 401.934 131.412C402.445 131.601 402.912 131.893 403.306 132.269C403.701 132.644 404.015 133.096 404.229 133.597C404.444 134.097 404.555 134.636 404.555 135.181C404.555 135.726 404.444 136.265 404.229 136.766C404.015 137.266 403.701 137.718 403.306 138.094C402.912 138.469 402.445 138.761 401.934 138.95C401.424 139.14 400.88 139.224 400.336 139.197ZM399.711 131.838C398.856 131.884 398.051 132.257 397.462 132.879C396.872 133.5 396.544 134.324 396.544 135.181C396.544 136.038 396.872 136.862 397.462 137.483C398.051 138.105 398.856 138.478 399.711 138.524H400.336C401.191 138.478 401.996 138.105 402.585 137.483C403.174 136.862 403.503 136.038 403.503 135.181C403.503 134.324 403.174 133.5 402.585 132.879C401.996 132.257 401.191 131.884 400.336 131.838H399.711Z" fill="#263238"/>
<path d="M407.968 134.386C407.722 134.052 407.402 133.78 407.032 133.592C406.663 133.404 406.255 133.305 405.84 133.302C405.499 133.263 405.153 133.307 404.832 133.429C404.511 133.551 404.225 133.749 403.996 134.005L403.449 133.595C403.745 133.247 404.12 132.977 404.544 132.807C404.967 132.637 405.425 132.572 405.879 132.619C406.403 132.623 406.919 132.753 407.383 132.998C407.846 133.242 408.244 133.594 408.544 134.025L407.968 134.386Z" fill="#263238"/>
<path d="M424.784 134.356H416.235V135.03H424.784V134.356Z" fill="#263238"/>
<path d="M422.608 137.928C422.969 137.928 424.355 135.645 425.253 134.825C426.493 133.693 424.892 123.445 424.892 123.445C426.327 120.38 423.672 116.857 420.9 115.812C418.775 115.16 416.536 114.967 414.332 115.246C412.341 115.396 410.359 115.617 408.388 115.91C406.008 116.375 403.603 116.701 401.185 116.886C399.251 116.99 397.315 116.718 395.485 116.086C395.356 116.037 395.217 116.025 395.081 116.051C394.946 116.077 394.821 116.14 394.72 116.233C394.619 116.326 394.545 116.446 394.508 116.578C394.471 116.711 394.471 116.851 394.509 116.983C394.67 117.498 394.897 117.99 395.182 118.447C395.706 119.366 396.364 120.202 397.134 120.926C397.997 121.692 398.932 122.371 399.926 122.957C405.255 126.09 411.989 125.719 417.923 124.909C419.26 124.723 419.553 126.021 420.275 129.564C420.881 132.629 421.398 137.909 422.608 137.928Z" fill="#263238"/>
<path d="M424.892 124.245L429.255 121.903C429.116 121.609 428.919 121.346 428.675 121.131C428.432 120.916 428.148 120.752 427.839 120.65C427.531 120.547 427.205 120.509 426.881 120.536C426.557 120.564 426.242 120.657 425.956 120.809C425.371 121.136 424.934 121.675 424.736 122.314C424.538 122.954 424.594 123.645 424.892 124.245Z" fill="#263238"/>
<path d="M409.295 151.836C409.295 151.836 415.766 150.529 418.031 149.328C419.36 148.636 420.449 147.557 421.154 146.234C420.815 147.559 420.211 148.801 419.377 149.884C417.728 152.002 409.295 153.554 409.295 153.554V151.836Z" fill="#9A4A4D"/>
<path d="M410.896 135.098C410.892 135.271 410.922 135.443 410.985 135.605C411.048 135.766 411.141 135.913 411.261 136.038C411.381 136.163 411.524 136.264 411.682 136.333C411.841 136.403 412.011 136.441 412.184 136.445C412.536 136.435 412.869 136.287 413.112 136.033C413.354 135.779 413.488 135.44 413.482 135.088C413.498 134.909 413.476 134.728 413.418 134.558C413.36 134.388 413.268 134.231 413.146 134.099C413.024 133.966 412.877 133.86 412.712 133.788C412.547 133.715 412.369 133.678 412.189 133.678C412.009 133.678 411.831 133.715 411.667 133.788C411.502 133.86 411.354 133.966 411.232 134.099C411.111 134.231 411.018 134.388 410.96 134.558C410.902 134.728 410.88 134.909 410.896 135.088V135.098Z" fill="#263238"/>
<path d="M412.936 129.73L415.708 131.262C415.906 130.883 415.949 130.441 415.829 130.03C415.709 129.619 415.435 129.27 415.064 129.057C414.88 128.957 414.679 128.896 414.472 128.877C414.265 128.857 414.055 128.879 413.857 128.942C413.658 129.005 413.474 129.107 413.316 129.242C413.158 129.378 413.029 129.544 412.936 129.73Z" fill="#263238"/>
<path d="M409.92 144.048L406.992 145.16C407.057 145.359 407.161 145.542 407.298 145.699C407.435 145.857 407.602 145.985 407.79 146.076C407.978 146.167 408.182 146.219 408.39 146.23C408.598 146.24 408.807 146.208 409.003 146.136C409.395 145.974 409.71 145.665 409.881 145.276C410.051 144.887 410.066 144.447 409.92 144.048Z" fill="#9A4A4D"/>
<path d="M398.969 130.872L401.497 128.92C401.38 128.748 401.228 128.602 401.052 128.49C400.876 128.379 400.679 128.305 400.473 128.273C400.267 128.241 400.057 128.252 399.855 128.304C399.654 128.357 399.465 128.45 399.301 128.578C398.96 128.843 398.734 129.23 398.672 129.658C398.61 130.086 398.717 130.521 398.969 130.872Z" fill="#263238"/>
<path d="M400.072 134.688C400.072 135.032 400.209 135.363 400.452 135.606C400.696 135.85 401.026 135.986 401.37 135.986C401.715 135.986 402.045 135.85 402.288 135.606C402.532 135.363 402.668 135.032 402.668 134.688C402.672 134.515 402.642 134.342 402.578 134.181C402.515 134.02 402.42 133.872 402.299 133.748C402.178 133.623 402.034 133.524 401.875 133.456C401.715 133.388 401.544 133.352 401.37 133.351C401.022 133.359 400.69 133.503 400.447 133.754C400.204 134.004 400.07 134.339 400.072 134.688Z" fill="#263238"/>
<path d="M406.484 133.693L406.328 141.549L401.683 140.525L406.484 133.693Z" fill="#9A4A4D"/>
<path d="M447.233 202.872C444.509 171.161 438.976 160.855 429.879 159.557C426.736 162.319 425.975 172.001 429.264 178.462C429.264 178.462 436.331 198.382 436.731 205.614C436.923 212.554 436.443 219.497 435.296 226.344C435.12 227.277 434.609 228.113 433.861 228.697C431.909 230.278 431.997 231.878 430.582 233.752C429.469 235.216 428.425 235.704 428.63 236.065C428.925 236.503 429.375 236.813 429.889 236.932C430.403 237.052 430.944 236.972 431.402 236.709C432.293 236.26 433.114 235.685 433.842 235.001C433.245 236.916 432.381 238.736 431.275 240.409C428.688 244.439 428.806 246.713 434.886 246.079C438.692 245.689 441.464 242.995 443.377 234.299C443.924 231.79 445.222 227.203 445.769 224.002C447.311 214.779 447.672 207.976 447.233 202.872Z" fill="#B16668"/>
<path d="M427.293 158.571C427.293 158.571 433.92 159.039 437.268 162.963C440.615 166.886 443.807 173.699 446.052 186.611C446.052 186.611 441.855 192.555 430.914 190.964C430.914 190.964 426.161 174.938 425.731 168.262C425.273 161.04 427.293 158.571 427.293 158.571Z" fill="#505798"/>
</svg>
