<svg width="395" height="395" viewBox="0 0 395 395" fill="none" xmlns="http://www.w3.org/2000/svg">
<path d="M202.627 379.176C304.29 379.176 386.705 331.594 386.705 272.898C386.705 214.201 304.29 166.619 202.627 166.619C100.964 166.619 18.5492 214.201 18.5492 272.898C18.5492 331.594 100.964 379.176 202.627 379.176Z" fill="#F5F5F5"/>
<path d="M201.181 231.328C223.276 231.328 241.187 220.986 241.187 208.228C241.187 195.471 223.276 185.129 201.181 185.129C179.087 185.129 161.176 195.471 161.176 208.228C161.176 220.986 179.087 231.328 201.181 231.328Z" fill="#E0E0E0"/>
<path d="M297.917 347.205C324.274 347.205 345.641 334.217 345.641 318.196C345.641 302.175 324.274 289.188 297.917 289.188C271.56 289.188 250.193 302.175 250.193 318.196C250.193 334.217 271.56 347.205 297.917 347.205Z" fill="#E0E0E0"/>
<path d="M85.2489 322.494C109.302 322.494 128.802 311.236 128.802 297.348C128.802 283.461 109.302 272.202 85.2489 272.202C61.1954 272.202 41.6962 283.461 41.6962 297.348C41.6962 311.236 61.1954 322.494 85.2489 322.494Z" fill="#E0E0E0"/>
<path d="M287.781 122.063L275.078 108.909L267.968 109.455L287.781 122.063Z" fill="#505798"/>
<path d="M287.781 122.063L277.393 108.183L281.066 105.544L287.781 122.063Z" fill="#505798"/>
<path d="M277.393 108.183L276.8 110.695L287.781 122.063L277.393 108.183Z" fill="#505798"/>
<path opacity="0.3" d="M277.393 108.183L276.8 110.695L287.781 122.063L277.393 108.183Z" fill="black"/>
<path d="M106.674 143.243L121.905 129.165L129.908 130.239L106.674 143.243Z" fill="#505798"/>
<path d="M106.674 143.243L119.322 128.201L115.34 124.978L106.674 143.243Z" fill="#505798"/>
<path d="M119.322 128.201L119.835 131.077L106.674 143.243L119.322 128.201Z" fill="#505798"/>
<path opacity="0.3" d="M119.322 128.201L119.835 131.077L106.674 143.243L119.322 128.201Z" fill="black"/>
<path d="M250.801 192.073L267.044 181.676L274.193 183.975L250.801 192.073Z" fill="#505798"/>
<path d="M250.801 192.073L264.84 180.373L261.719 176.77L250.801 192.073Z" fill="#505798"/>
<path d="M264.84 180.373V183.09L250.801 192.073L264.84 180.373Z" fill="#505798"/>
<path opacity="0.3" d="M264.84 180.373V183.09L250.801 192.073L264.84 180.373Z" fill="black"/>
<path d="M146.822 234.417L127.956 222.337L119.646 225L146.822 234.417Z" fill="#505798"/>
<path d="M146.822 234.417L130.516 220.821L134.142 216.634L146.822 234.417Z" fill="#505798"/>
<path d="M130.516 220.821V223.973L146.822 234.417L130.516 220.821Z" fill="#505798"/>
<path opacity="0.3" d="M130.516 220.821V223.973L146.822 234.417L130.516 220.821Z" fill="black"/>
<path d="M103.877 188.873C103.794 188.871 103.713 188.842 103.649 188.789C103.584 188.736 103.539 188.662 103.522 188.581L103.308 187.498C103.291 187.403 103.311 187.305 103.366 187.225C103.421 187.145 103.505 187.09 103.601 187.072C103.696 187.054 103.794 187.075 103.874 187.13C103.954 187.185 104.009 187.269 104.027 187.364C104.098 187.72 104.162 188.075 104.241 188.431C104.259 188.526 104.24 188.625 104.187 188.706C104.134 188.787 104.051 188.844 103.956 188.865L103.877 188.873Z" fill="#E0E0E0"/>
<path d="M123.153 218.269C123.08 218.267 123.009 218.245 122.948 218.206C122.321 217.779 121.705 217.337 121.099 216.879C121.061 216.849 121.029 216.813 121.005 216.771C120.981 216.729 120.966 216.683 120.96 216.635C120.954 216.587 120.958 216.539 120.971 216.493C120.984 216.446 121.006 216.403 121.036 216.365C121.095 216.289 121.182 216.238 121.278 216.225C121.374 216.212 121.471 216.237 121.549 216.294C122.134 216.744 122.742 217.187 123.359 217.598C123.421 217.643 123.468 217.707 123.492 217.78C123.517 217.853 123.518 217.933 123.495 218.007C123.473 218.081 123.428 218.146 123.366 218.193C123.305 218.24 123.23 218.266 123.153 218.269ZM119.574 215.544C119.488 215.542 119.404 215.512 119.337 215.457C118.769 214.975 118.2 214.461 117.647 213.94C117.605 213.909 117.57 213.869 117.544 213.823C117.519 213.777 117.503 213.727 117.499 213.675C117.494 213.622 117.501 213.57 117.518 213.52C117.535 213.471 117.562 213.426 117.598 213.388C117.634 213.349 117.678 213.319 117.726 213.299C117.774 213.279 117.826 213.269 117.879 213.271C117.931 213.272 117.982 213.285 118.03 213.308C118.077 213.33 118.119 213.363 118.152 213.403C118.698 213.924 119.258 214.422 119.811 214.896C119.848 214.927 119.878 214.965 119.899 215.007C119.921 215.05 119.934 215.097 119.938 215.144C119.942 215.192 119.936 215.24 119.921 215.285C119.906 215.331 119.882 215.373 119.851 215.409C119.817 215.45 119.775 215.484 119.728 215.507C119.68 215.53 119.628 215.543 119.574 215.544ZM116.304 212.455C116.254 212.455 116.206 212.444 116.161 212.423C116.116 212.403 116.076 212.373 116.043 212.336C115.53 211.807 115.016 211.238 114.511 210.661C114.447 210.587 114.416 210.49 114.423 210.393C114.43 210.295 114.476 210.204 114.55 210.14C114.586 210.108 114.628 210.083 114.673 210.068C114.719 210.052 114.767 210.046 114.815 210.05C114.863 210.053 114.91 210.067 114.953 210.089C114.995 210.111 115.033 210.142 115.064 210.179C115.561 210.74 116.067 211.301 116.572 211.823C116.641 211.892 116.679 211.986 116.679 212.083C116.679 212.181 116.641 212.275 116.572 212.344C116.537 212.379 116.495 212.407 116.449 212.426C116.403 212.445 116.354 212.455 116.304 212.455ZM113.357 209.058C113.301 209.058 113.245 209.046 113.194 209.021C113.143 208.996 113.099 208.96 113.065 208.915C112.607 208.331 112.148 207.723 111.706 207.106C111.677 207.068 111.656 207.025 111.645 206.978C111.633 206.932 111.631 206.884 111.638 206.837C111.645 206.79 111.662 206.744 111.688 206.704C111.713 206.663 111.746 206.628 111.785 206.601C111.824 206.572 111.868 206.551 111.915 206.539C111.962 206.527 112.011 206.525 112.058 206.532C112.106 206.54 112.152 206.556 112.193 206.582C112.235 206.607 112.27 206.64 112.299 206.68C112.733 207.288 113.183 207.888 113.642 208.465C113.671 208.503 113.693 208.546 113.706 208.593C113.719 208.639 113.723 208.687 113.717 208.735C113.711 208.783 113.696 208.829 113.672 208.871C113.648 208.913 113.616 208.949 113.578 208.979C113.517 209.031 113.438 209.059 113.357 209.058ZM110.726 205.4C110.666 205.401 110.607 205.386 110.554 205.357C110.502 205.328 110.458 205.285 110.426 205.234C110.015 204.61 109.636 203.962 109.233 203.306C109.184 203.224 109.17 203.125 109.194 203.031C109.217 202.938 109.277 202.858 109.36 202.809C109.401 202.783 109.448 202.767 109.496 202.76C109.545 202.753 109.594 202.756 109.641 202.768C109.688 202.781 109.732 202.803 109.771 202.833C109.809 202.863 109.842 202.9 109.865 202.943C110.245 203.583 110.655 204.215 111.035 204.839C111.086 204.92 111.104 205.018 111.085 205.113C111.066 205.207 111.011 205.29 110.932 205.345C110.87 205.382 110.799 205.401 110.726 205.4ZM108.451 201.529C108.384 201.529 108.319 201.511 108.261 201.476C108.204 201.441 108.158 201.391 108.127 201.331C107.78 200.66 107.432 199.981 107.116 199.301C107.095 199.258 107.083 199.212 107.08 199.164C107.077 199.116 107.084 199.068 107.101 199.023C107.117 198.978 107.142 198.937 107.174 198.902C107.207 198.867 107.246 198.839 107.29 198.819C107.378 198.778 107.479 198.774 107.57 198.806C107.662 198.839 107.737 198.906 107.78 198.993C108.096 199.657 108.428 200.328 108.775 200.992C108.82 201.077 108.829 201.176 108.801 201.268C108.773 201.359 108.71 201.436 108.625 201.482C108.572 201.512 108.512 201.528 108.451 201.529ZM106.539 197.453C106.467 197.454 106.396 197.433 106.336 197.394C106.275 197.354 106.228 197.298 106.2 197.231C105.915 196.544 105.639 195.833 105.41 195.114C105.393 195.069 105.386 195.021 105.389 194.973C105.391 194.925 105.403 194.878 105.423 194.835C105.444 194.792 105.473 194.753 105.508 194.721C105.544 194.689 105.586 194.664 105.631 194.648C105.722 194.617 105.822 194.623 105.909 194.664C105.996 194.706 106.063 194.779 106.097 194.869C106.35 195.572 106.626 196.275 106.887 196.947C106.924 197.036 106.926 197.136 106.89 197.226C106.855 197.316 106.786 197.389 106.697 197.429C106.647 197.446 106.593 197.454 106.539 197.453ZM105.007 193.226C104.929 193.226 104.852 193.2 104.79 193.153C104.727 193.106 104.681 193.04 104.659 192.965C104.438 192.246 104.225 191.512 104.035 190.793C104.013 190.698 104.029 190.598 104.079 190.514C104.129 190.43 104.21 190.369 104.304 190.343C104.397 190.319 104.496 190.332 104.579 190.381C104.662 190.43 104.722 190.51 104.746 190.603C104.928 191.322 105.133 192.041 105.354 192.752C105.369 192.798 105.375 192.846 105.371 192.894C105.367 192.941 105.353 192.988 105.331 193.03C105.309 193.073 105.279 193.111 105.242 193.142C105.206 193.173 105.163 193.196 105.117 193.21L105.007 193.226Z" fill="#E0E0E0"/>
<path d="M126.013 220.007C125.952 220.007 125.892 219.991 125.839 219.96C125.515 219.786 125.191 219.604 124.875 219.415C124.833 219.392 124.796 219.36 124.766 219.322C124.736 219.285 124.714 219.241 124.701 219.195C124.689 219.148 124.686 219.099 124.693 219.052C124.699 219.004 124.716 218.958 124.741 218.917C124.765 218.875 124.796 218.839 124.834 218.809C124.872 218.78 124.916 218.759 124.962 218.746C125.008 218.734 125.056 218.73 125.104 218.737C125.151 218.743 125.197 218.759 125.239 218.783C125.555 218.972 125.871 219.146 126.187 219.312C126.258 219.352 126.314 219.414 126.346 219.489C126.378 219.563 126.385 219.647 126.366 219.726C126.346 219.805 126.301 219.875 126.237 219.926C126.173 219.977 126.094 220.005 126.013 220.007Z" fill="#E0E0E0"/>
<path d="M157.684 114.36C157.588 114.36 157.495 114.322 157.427 114.254C157.359 114.186 157.321 114.093 157.321 113.997C157.321 113.9 157.359 113.808 157.427 113.74C157.495 113.672 157.588 113.633 157.684 113.633C158.055 113.633 158.419 113.578 158.79 113.562C158.886 113.56 158.979 113.595 159.05 113.66C159.12 113.725 159.163 113.814 159.169 113.91C159.172 113.957 159.166 114.005 159.151 114.05C159.135 114.095 159.111 114.136 159.079 114.171C159.048 114.207 159.009 114.235 158.966 114.255C158.923 114.276 158.877 114.287 158.83 114.289L157.739 114.36H157.684Z" fill="#E0E0E0"/>
<path d="M125.871 125.468C125.812 125.468 125.755 125.455 125.703 125.428C125.651 125.402 125.605 125.364 125.571 125.318C125.515 125.238 125.493 125.139 125.509 125.043C125.525 124.947 125.578 124.861 125.657 124.804C126.242 124.393 126.835 124.014 127.435 123.603C127.516 123.552 127.614 123.533 127.708 123.552C127.803 123.572 127.886 123.627 127.941 123.706C127.967 123.746 127.985 123.791 127.993 123.839C128.002 123.886 128.001 123.935 127.991 123.982C127.981 124.029 127.961 124.073 127.933 124.113C127.906 124.152 127.871 124.186 127.83 124.212C127.237 124.599 126.653 125.002 126.076 125.404C126.015 125.444 125.944 125.466 125.871 125.468ZM129.442 123.145C129.36 123.147 129.281 123.123 129.216 123.074C129.15 123.026 129.103 122.958 129.081 122.88C129.059 122.801 129.064 122.718 129.095 122.643C129.126 122.568 129.181 122.506 129.252 122.466C129.868 122.094 130.484 121.739 131.108 121.391C131.194 121.346 131.293 121.335 131.386 121.361C131.479 121.388 131.558 121.45 131.606 121.533C131.631 121.575 131.647 121.621 131.653 121.669C131.659 121.718 131.656 121.766 131.642 121.813C131.629 121.86 131.606 121.903 131.576 121.941C131.545 121.978 131.507 122.009 131.464 122.031C130.848 122.379 130.232 122.726 129.631 123.09C129.575 123.126 129.509 123.145 129.442 123.145ZM133.17 121.083C133.102 121.083 133.036 121.064 132.978 121.028C132.921 120.991 132.875 120.939 132.846 120.878C132.804 120.792 132.797 120.692 132.827 120.601C132.856 120.51 132.92 120.433 133.004 120.388C133.644 120.064 134.284 119.756 134.94 119.456C135.027 119.415 135.126 119.411 135.217 119.443C135.307 119.476 135.381 119.543 135.422 119.63C135.463 119.718 135.467 119.818 135.435 119.91C135.402 120.002 135.335 120.077 135.248 120.119C134.608 120.412 133.968 120.72 133.336 121.044C133.284 121.069 133.228 121.082 133.17 121.083ZM137.041 119.29C136.969 119.288 136.898 119.266 136.838 119.225C136.778 119.185 136.73 119.127 136.702 119.061C136.665 118.972 136.665 118.872 136.702 118.783C136.739 118.694 136.81 118.624 136.899 118.587C137.557 118.302 138.221 118.039 138.89 117.797C138.98 117.764 139.08 117.767 139.167 117.807C139.254 117.847 139.322 117.92 139.356 118.01C139.375 118.054 139.385 118.101 139.384 118.149C139.384 118.197 139.374 118.244 139.355 118.288C139.336 118.332 139.308 118.371 139.272 118.403C139.237 118.436 139.196 118.461 139.151 118.476C138.487 118.737 137.831 118.998 137.183 119.266C137.138 119.282 137.09 119.29 137.041 119.29ZM140.991 117.757C140.915 117.757 140.841 117.733 140.779 117.69C140.717 117.646 140.67 117.584 140.644 117.512C140.628 117.467 140.621 117.418 140.624 117.37C140.626 117.322 140.639 117.275 140.66 117.231C140.682 117.188 140.711 117.149 140.748 117.117C140.784 117.086 140.827 117.061 140.873 117.046C141.542 116.809 142.221 116.588 142.911 116.383C142.957 116.368 143.005 116.362 143.053 116.366C143.1 116.37 143.147 116.384 143.189 116.406C143.232 116.428 143.27 116.458 143.301 116.495C143.332 116.531 143.355 116.574 143.369 116.62C143.396 116.713 143.386 116.813 143.34 116.899C143.294 116.984 143.217 117.049 143.124 117.078C142.445 117.291 141.773 117.504 141.11 117.741L140.991 117.757ZM145.06 116.501C144.98 116.5 144.904 116.474 144.841 116.425C144.778 116.377 144.733 116.309 144.712 116.233C144.699 116.186 144.695 116.138 144.701 116.09C144.706 116.043 144.721 115.997 144.745 115.955C144.768 115.913 144.8 115.876 144.838 115.846C144.875 115.817 144.919 115.795 144.965 115.782C145.652 115.593 146.348 115.419 147.043 115.253C147.137 115.231 147.236 115.247 147.318 115.297C147.401 115.348 147.461 115.428 147.485 115.522C147.497 115.568 147.499 115.617 147.492 115.664C147.485 115.712 147.468 115.758 147.443 115.799C147.418 115.84 147.385 115.876 147.346 115.904C147.308 115.933 147.263 115.953 147.217 115.964C146.529 116.13 145.842 116.304 145.162 116.485L145.06 116.501ZM149.207 115.514C149.124 115.512 149.043 115.482 148.979 115.429C148.914 115.376 148.87 115.303 148.852 115.221C148.833 115.127 148.853 115.029 148.906 114.949C148.959 114.869 149.042 114.814 149.136 114.795C149.839 114.653 150.542 114.518 151.245 114.4C151.341 114.386 151.437 114.409 151.515 114.465C151.593 114.521 151.647 114.605 151.664 114.7C151.673 114.747 151.673 114.795 151.663 114.841C151.653 114.888 151.634 114.932 151.607 114.971C151.579 115.01 151.545 115.043 151.504 115.069C151.464 115.094 151.419 115.111 151.372 115.119C150.669 115.237 149.974 115.371 149.286 115.506L149.207 115.514ZM153.418 114.803C153.329 114.803 153.243 114.772 153.176 114.714C153.109 114.655 153.066 114.575 153.055 114.487C153.041 114.391 153.066 114.295 153.124 114.218C153.181 114.141 153.267 114.09 153.363 114.076C154.074 113.981 154.785 113.894 155.496 113.815C155.587 113.816 155.675 113.851 155.742 113.913C155.809 113.975 155.852 114.06 155.86 114.151C155.869 114.242 155.844 114.333 155.79 114.406C155.736 114.48 155.656 114.531 155.567 114.55C154.864 114.621 154.161 114.7 153.465 114.803H153.418Z" fill="#E0E0E0"/>
<path d="M123.24 127.403C123.186 127.402 123.132 127.39 123.083 127.367C123.034 127.344 122.991 127.31 122.956 127.269C122.925 127.232 122.902 127.188 122.888 127.142C122.874 127.095 122.87 127.047 122.876 126.998C122.882 126.95 122.898 126.904 122.922 126.862C122.947 126.82 122.98 126.784 123.019 126.755L123.888 126.076C123.965 126.017 124.063 125.992 124.159 126.005C124.256 126.019 124.343 126.07 124.401 126.147C124.46 126.225 124.485 126.322 124.472 126.419C124.459 126.515 124.408 126.602 124.33 126.661L123.469 127.324C123.404 127.376 123.323 127.404 123.24 127.403Z" fill="#E0E0E0"/>
<path d="M269.248 178.224C269.191 178.223 269.135 178.209 269.084 178.183C269.033 178.157 268.989 178.12 268.955 178.074C268.926 178.035 268.905 177.991 268.894 177.944C268.882 177.897 268.88 177.848 268.887 177.801C268.894 177.753 268.911 177.707 268.936 177.666C268.962 177.624 268.995 177.589 269.034 177.56L269.556 177.173C269.594 177.144 269.638 177.123 269.685 177.111C269.731 177.099 269.78 177.096 269.827 177.103C269.875 177.109 269.921 177.125 269.962 177.149C270.004 177.174 270.04 177.206 270.069 177.244C270.098 177.283 270.12 177.327 270.132 177.373C270.144 177.42 270.147 177.468 270.14 177.516C270.134 177.564 270.118 177.609 270.093 177.651C270.069 177.693 270.037 177.729 269.998 177.758L269.469 178.153C269.405 178.2 269.327 178.225 269.248 178.224ZM271.515 176.494C271.46 176.494 271.405 176.481 271.356 176.456C271.307 176.432 271.264 176.396 271.231 176.352C271.171 176.276 271.144 176.18 271.154 176.084C271.165 175.988 271.212 175.9 271.286 175.838C271.855 175.388 272.424 174.93 272.977 174.456C273.013 174.425 273.056 174.401 273.102 174.386C273.148 174.372 273.196 174.366 273.244 174.37C273.292 174.374 273.339 174.388 273.382 174.41C273.425 174.432 273.463 174.462 273.494 174.499C273.525 174.536 273.549 174.579 273.563 174.625C273.578 174.67 273.584 174.719 273.579 174.767C273.575 174.815 273.562 174.862 273.54 174.905C273.518 174.947 273.487 174.985 273.451 175.017C272.892 175.491 272.324 175.957 271.744 176.415C271.678 176.464 271.598 176.492 271.515 176.494ZM274.873 173.658C274.82 173.657 274.769 173.645 274.721 173.624C274.674 173.602 274.631 173.57 274.596 173.531C274.528 173.463 274.49 173.371 274.49 173.275C274.49 173.178 274.528 173.086 274.596 173.018C275.133 172.528 275.663 172.038 276.176 171.533C276.21 171.497 276.25 171.469 276.295 171.45C276.34 171.431 276.389 171.421 276.437 171.42C276.486 171.42 276.535 171.43 276.58 171.449C276.625 171.468 276.666 171.496 276.7 171.531C276.734 171.566 276.76 171.608 276.778 171.653C276.795 171.699 276.804 171.747 276.802 171.796C276.8 171.845 276.789 171.893 276.768 171.937C276.747 171.982 276.718 172.021 276.682 172.054C276.152 172.568 275.615 173.073 275.102 173.563C275.038 173.62 274.958 173.653 274.873 173.658ZM278.033 170.608C277.986 170.609 277.939 170.6 277.896 170.582C277.853 170.565 277.813 170.539 277.78 170.506C277.712 170.438 277.674 170.345 277.674 170.249C277.674 170.153 277.712 170.06 277.78 169.992C278.285 169.471 278.791 168.934 279.281 168.412C279.346 168.341 279.436 168.298 279.533 168.294C279.629 168.29 279.723 168.324 279.794 168.389C279.866 168.453 279.908 168.544 279.912 168.64C279.917 168.737 279.883 168.831 279.818 168.902C279.32 169.447 278.815 169.984 278.309 170.482C278.277 170.526 278.235 170.564 278.188 170.591C278.14 170.618 278.087 170.635 278.033 170.64V170.608ZM280.987 167.354C280.944 167.356 280.901 167.349 280.86 167.334C280.819 167.319 280.782 167.296 280.75 167.267C280.713 167.236 280.683 167.199 280.66 167.156C280.638 167.114 280.624 167.068 280.62 167.02C280.615 166.972 280.62 166.924 280.635 166.878C280.649 166.832 280.672 166.79 280.703 166.753C281.177 166.2 281.635 165.631 282.077 165.063C282.137 164.986 282.225 164.937 282.321 164.925C282.417 164.913 282.514 164.94 282.591 164.999C282.667 165.059 282.717 165.147 282.729 165.243C282.741 165.339 282.714 165.436 282.654 165.513C282.204 166.09 281.738 166.666 281.264 167.227C281.23 167.268 281.188 167.3 281.14 167.322C281.092 167.344 281.04 167.355 280.987 167.354ZM283.681 163.893C283.604 163.892 283.53 163.867 283.468 163.822C283.391 163.765 283.339 163.68 283.324 163.586C283.309 163.491 283.333 163.394 283.389 163.317C283.815 162.727 284.226 162.126 284.621 161.516C284.677 161.436 284.762 161.38 284.857 161.361C284.953 161.342 285.052 161.361 285.135 161.413C285.214 161.467 285.269 161.551 285.288 161.645C285.307 161.739 285.289 161.837 285.237 161.918C284.827 162.535 284.408 163.143 283.981 163.743C283.947 163.79 283.901 163.828 283.849 163.854C283.797 163.88 283.739 163.894 283.681 163.893ZM286.098 160.228C286.031 160.228 285.965 160.209 285.909 160.173C285.826 160.123 285.766 160.043 285.743 159.95C285.719 159.856 285.733 159.758 285.782 159.675C286.154 159.051 286.517 158.419 286.865 157.779C286.888 157.737 286.918 157.7 286.956 157.67C286.993 157.64 287.036 157.617 287.081 157.603C287.127 157.59 287.175 157.586 287.223 157.591C287.27 157.596 287.317 157.61 287.359 157.633C287.401 157.655 287.438 157.686 287.468 157.724C287.498 157.761 287.52 157.803 287.534 157.849C287.547 157.895 287.552 157.943 287.547 157.991C287.542 158.038 287.528 158.084 287.505 158.126C287.157 158.774 286.794 159.414 286.414 160.046C286.382 160.102 286.336 160.148 286.281 160.179C286.225 160.211 286.162 160.228 286.098 160.228ZM288.184 156.365C288.123 156.363 288.063 156.347 288.01 156.317C287.956 156.287 287.911 156.244 287.879 156.193C287.846 156.141 287.826 156.082 287.822 156.021C287.817 155.96 287.828 155.899 287.852 155.843C288.168 155.188 288.476 154.516 288.753 153.853C288.793 153.764 288.865 153.695 288.955 153.66C289.045 153.624 289.146 153.626 289.235 153.663C289.28 153.681 289.321 153.708 289.355 153.742C289.39 153.776 289.417 153.817 289.435 153.862C289.454 153.907 289.463 153.955 289.462 154.004C289.462 154.052 289.452 154.1 289.432 154.145C289.14 154.816 288.832 155.496 288.516 156.159C288.484 156.22 288.437 156.272 288.378 156.308C288.32 156.344 288.253 156.364 288.184 156.365ZM289.898 152.328H289.772C289.681 152.292 289.608 152.223 289.569 152.134C289.529 152.046 289.525 151.945 289.559 151.854C289.811 151.167 290.048 150.479 290.262 149.792C290.291 149.7 290.356 149.623 290.442 149.579C290.484 149.557 290.531 149.543 290.579 149.539C290.626 149.535 290.674 149.54 290.72 149.555C290.766 149.569 290.808 149.593 290.845 149.624C290.881 149.655 290.911 149.692 290.933 149.735C290.955 149.777 290.969 149.824 290.973 149.872C290.977 149.919 290.972 149.967 290.957 150.013C290.744 150.708 290.499 151.411 290.246 152.107C290.219 152.169 290.175 152.222 290.119 152.261C290.063 152.3 289.998 152.323 289.93 152.328H289.898ZM291.21 148.133H291.115C291.022 148.105 290.944 148.043 290.895 147.96C290.847 147.876 290.832 147.777 290.854 147.683C291.036 146.98 291.194 146.269 291.336 145.565C291.355 145.47 291.411 145.386 291.492 145.332C291.572 145.278 291.671 145.258 291.767 145.277C291.862 145.296 291.946 145.352 292 145.433C292.054 145.513 292.074 145.612 292.055 145.708C291.913 146.427 291.747 147.145 291.565 147.864C291.542 147.941 291.495 148.008 291.431 148.056C291.367 148.105 291.29 148.131 291.21 148.133ZM292.071 143.835H292.023C291.976 143.83 291.93 143.814 291.888 143.79C291.847 143.766 291.811 143.734 291.782 143.696C291.753 143.657 291.732 143.613 291.721 143.567C291.709 143.52 291.708 143.472 291.715 143.425C291.818 142.706 291.905 141.979 291.968 141.268C291.982 141.172 292.031 141.085 292.105 141.024C292.18 140.962 292.275 140.931 292.371 140.936C292.467 140.946 292.555 140.993 292.617 141.066C292.679 141.14 292.71 141.235 292.703 141.331C292.632 142.058 292.545 142.8 292.434 143.527C292.421 143.614 292.377 143.693 292.31 143.749C292.243 143.806 292.158 143.836 292.071 143.835ZM292.482 139.467C292.434 139.465 292.387 139.453 292.344 139.433C292.3 139.413 292.262 139.384 292.229 139.349C292.197 139.314 292.172 139.273 292.156 139.228C292.139 139.183 292.132 139.135 292.134 139.087C292.134 138.527 292.134 137.966 292.134 137.397V136.915C292.132 136.867 292.14 136.819 292.156 136.774C292.173 136.729 292.199 136.688 292.232 136.653C292.266 136.619 292.306 136.591 292.35 136.572C292.394 136.553 292.442 136.544 292.49 136.544C292.585 136.546 292.677 136.585 292.744 136.652C292.812 136.72 292.851 136.811 292.853 136.907V137.389C292.853 137.974 292.853 138.55 292.813 139.119C292.812 139.208 292.777 139.293 292.715 139.357C292.654 139.422 292.57 139.461 292.482 139.467ZM292.434 135.082C292.341 135.082 292.251 135.048 292.182 134.985C292.114 134.922 292.071 134.835 292.063 134.742C292.023 134.024 291.96 133.289 291.873 132.57C291.866 132.474 291.896 132.379 291.956 132.305C292.016 132.23 292.102 132.181 292.197 132.167C292.245 132.162 292.293 132.166 292.34 132.179C292.386 132.192 292.429 132.215 292.466 132.245C292.504 132.275 292.535 132.312 292.558 132.354C292.581 132.397 292.595 132.443 292.6 132.491C292.687 133.218 292.75 133.96 292.798 134.695C292.802 134.791 292.769 134.885 292.706 134.957C292.643 135.029 292.554 135.074 292.458 135.082H292.434ZM291.944 130.721C291.857 130.722 291.772 130.692 291.705 130.635C291.638 130.579 291.594 130.5 291.581 130.413C291.47 129.71 291.328 128.991 291.178 128.272C291.159 128.177 291.179 128.078 291.232 127.997C291.285 127.916 291.368 127.859 291.463 127.838C291.51 127.827 291.559 127.827 291.606 127.835C291.654 127.844 291.699 127.862 291.74 127.889C291.78 127.915 291.815 127.949 291.842 127.99C291.869 128.03 291.888 128.075 291.897 128.122C292.047 128.849 292.189 129.584 292.3 130.295C292.308 130.342 292.306 130.39 292.296 130.437C292.285 130.484 292.265 130.528 292.237 130.566C292.209 130.605 292.174 130.638 292.133 130.664C292.092 130.689 292.047 130.706 292 130.713L291.944 130.721Z" fill="#E0E0E0"/>
<path d="M270.346 104.414C270.276 104.416 270.207 104.396 270.148 104.359C269.532 103.972 268.908 103.569 268.284 103.237C268.242 103.214 268.204 103.183 268.174 103.145C268.144 103.108 268.122 103.064 268.109 103.018C268.096 102.972 268.092 102.923 268.097 102.875C268.103 102.828 268.118 102.781 268.142 102.739C268.191 102.655 268.272 102.593 268.367 102.568C268.462 102.543 268.562 102.556 268.647 102.605C269.279 102.969 269.911 103.348 270.536 103.743C270.617 103.795 270.676 103.877 270.698 103.971C270.72 104.066 270.704 104.165 270.654 104.248C270.621 104.3 270.575 104.342 270.521 104.371C270.467 104.4 270.407 104.415 270.346 104.414ZM266.538 102.234C266.481 102.245 266.422 102.245 266.364 102.234C265.724 101.894 265.069 101.57 264.413 101.262C264.326 101.221 264.259 101.147 264.227 101.057C264.194 100.967 264.199 100.867 264.239 100.78C264.282 100.693 264.357 100.625 264.448 100.592C264.539 100.558 264.64 100.56 264.729 100.599C265.393 100.915 266.048 101.246 266.704 101.586C266.777 101.623 266.835 101.684 266.869 101.758C266.904 101.832 266.912 101.916 266.893 101.995C266.873 102.075 266.828 102.145 266.764 102.196C266.699 102.246 266.62 102.274 266.538 102.273V102.234ZM262.588 100.362C262.541 100.369 262.493 100.369 262.446 100.362C261.774 100.077 261.103 99.8006 260.424 99.5715C260.372 99.5599 260.323 99.5373 260.28 99.5051C260.238 99.473 260.203 99.4321 260.178 99.3852C260.152 99.3384 260.138 99.2867 260.134 99.2336C260.131 99.1805 260.139 99.1272 260.157 99.0775C260.176 99.0277 260.206 98.9826 260.243 98.9452C260.281 98.9078 260.327 98.8789 260.377 98.8606C260.427 98.8423 260.48 98.8349 260.533 98.839C260.586 98.843 260.638 98.8585 260.684 98.8842C261.372 99.1449 262.059 99.4214 262.73 99.6742C262.811 99.7047 262.878 99.7629 262.92 99.8383C262.962 99.9138 262.975 100.002 262.958 100.086C262.941 100.171 262.894 100.246 262.827 100.3C262.759 100.353 262.674 100.381 262.588 100.377V100.362ZM258.488 98.7815H258.37C257.682 98.5445 256.987 98.3312 256.292 98.1258C256.245 98.1123 256.202 98.0896 256.164 98.0591C256.127 98.0286 256.096 97.9909 256.073 97.9482C256.05 97.9055 256.036 97.8587 256.032 97.8105C256.027 97.7624 256.032 97.7138 256.047 97.6676C256.06 97.6214 256.081 97.5783 256.111 97.5408C256.141 97.5033 256.178 97.4722 256.22 97.4493C256.262 97.4264 256.308 97.4123 256.356 97.4077C256.404 97.4031 256.452 97.4082 256.497 97.4227C257.208 97.6281 257.903 97.8493 258.607 98.0863C258.698 98.1186 258.773 98.1855 258.816 98.2726C258.859 98.3598 258.866 98.4602 258.836 98.5524C258.81 98.6293 258.76 98.6957 258.693 98.7413C258.625 98.787 258.545 98.8094 258.464 98.8052L258.488 98.7815ZM254.277 97.5412H254.19C253.487 97.3595 252.776 97.1936 252.065 97.0435C251.97 97.0209 251.888 96.9619 251.836 96.8791C251.785 96.7962 251.767 96.6964 251.789 96.6011C251.799 96.5544 251.819 96.5101 251.846 96.4709C251.873 96.4317 251.908 96.3983 251.949 96.3726C251.989 96.3469 252.034 96.3294 252.081 96.3212C252.128 96.313 252.177 96.3141 252.223 96.3246C252.942 96.4826 253.653 96.6485 254.372 96.8302C254.465 96.8579 254.543 96.9199 254.592 97.0036C254.64 97.0873 254.655 97.1864 254.633 97.2805C254.614 97.3654 254.566 97.4409 254.496 97.493C254.426 97.5452 254.34 97.5707 254.254 97.5649L254.277 97.5412ZM249.996 96.6011H249.924C249.213 96.4668 248.495 96.3562 247.776 96.2535C247.728 96.2468 247.682 96.2307 247.64 96.2062C247.599 96.1817 247.563 96.1493 247.534 96.1108C247.505 96.0722 247.484 96.0284 247.472 95.9817C247.46 95.9351 247.457 95.8865 247.464 95.8388C247.47 95.791 247.486 95.7451 247.511 95.7036C247.535 95.6621 247.568 95.6258 247.606 95.5968C247.645 95.5679 247.689 95.5467 247.735 95.5347C247.782 95.5227 247.831 95.52 247.878 95.5267C248.605 95.6268 249.332 95.7453 250.059 95.8822C250.106 95.8898 250.151 95.9068 250.191 95.9321C250.231 95.9574 250.266 95.9906 250.294 96.0297C250.321 96.0687 250.34 96.1129 250.35 96.1594C250.36 96.206 250.36 96.2542 250.351 96.3009C250.341 96.3931 250.296 96.478 250.226 96.5382C250.155 96.5984 250.064 96.6294 249.972 96.6248L249.996 96.6011ZM245.651 95.9849H245.611C244.884 95.9059 244.157 95.8427 243.439 95.7874C243.391 95.7844 243.344 95.772 243.301 95.7509C243.258 95.7298 243.22 95.7004 243.188 95.6644C243.157 95.6285 243.133 95.5866 243.117 95.5413C243.102 95.496 243.096 95.4481 243.099 95.4003C243.1 95.3518 243.111 95.304 243.131 95.26C243.151 95.216 243.181 95.1767 243.217 95.1447C243.254 95.1127 243.296 95.0887 243.343 95.0742C243.389 95.0597 243.438 95.0551 243.486 95.0606C244.223 95.108 244.958 95.1712 245.69 95.2502C245.778 95.2671 245.857 95.3154 245.913 95.3861C245.968 95.4568 245.996 95.5452 245.991 95.6348C245.986 95.7244 245.949 95.8093 245.886 95.8737C245.824 95.938 245.74 95.9775 245.651 95.9849Z" fill="#E0E0E0"/>
<path d="M303.36 112.243L309.569 108.657C309.694 108.606 309.797 108.514 309.862 108.396L310.999 106.405L307.31 104.28L307.421 104.604L303.36 112.243Z" fill="#505798"/>
<g opacity="0.1">
<path opacity="0.1" d="M303.36 112.243L309.569 108.657C309.694 108.606 309.797 108.514 309.862 108.396L310.999 106.405L307.31 104.28L307.421 104.604L303.36 112.243Z" fill="black"/>
</g>
<path d="M307.839 104.58L303.542 112.022C303.481 112.129 303.39 112.216 303.281 112.273C303.171 112.33 303.048 112.354 302.925 112.342C302.803 112.33 302.686 112.283 302.589 112.207C302.493 112.131 302.42 112.028 302.38 111.912L297.83 98.8054L307.839 104.58Z" fill="#505798"/>
<path d="M263.718 51.3502C263.774 50.3096 264.075 49.2969 264.595 48.3939C265.115 47.4909 265.84 46.7229 266.712 46.152C267.642 45.6806 268.671 45.4351 269.714 45.4351C270.757 45.4351 271.785 45.6806 272.716 46.152L321.317 74.1812C322.19 74.7512 322.917 75.5188 323.438 76.4219C323.96 77.3249 324.261 78.3381 324.319 79.3794V103.996C324.262 105.037 323.961 106.051 323.439 106.954C322.917 107.857 322.19 108.624 321.317 109.194C320.386 109.665 319.358 109.911 318.315 109.911C317.272 109.911 316.243 109.665 315.313 109.194L266.435 80.9594C263.742 79.4189 263.718 77.8784 263.718 75.9666V51.3502Z" fill="#505798"/>
<path d="M308.163 87.5004L273.451 67.3554C272.447 66.7787 271.634 67.0473 271.634 67.9479C271.707 68.5072 271.909 69.0417 272.224 69.5093C272.54 69.9768 272.959 70.3646 273.451 70.6418L308.163 90.7789C309.166 91.3635 309.98 91.0949 309.98 90.1943C309.907 89.6351 309.705 89.1005 309.39 88.633C309.074 88.1654 308.654 87.7777 308.163 87.5004Z" fill="#455A64"/>
<path d="M297.648 88.4246L273.451 74.3942C272.447 73.8175 271.634 74.0861 271.634 74.9867C271.707 75.546 271.909 76.0805 272.224 76.5481C272.54 77.0157 272.959 77.4034 273.451 77.6806L297.648 91.7031C298.652 92.2877 299.465 92.0191 299.465 91.1185C299.392 90.5593 299.19 90.0248 298.875 89.5572C298.559 89.0896 298.139 88.7019 297.648 88.4246Z" fill="#455A64"/>
<path d="M308.163 80.3984L273.451 60.2613C272.447 59.6767 271.634 59.9453 271.634 60.8538C271.708 61.4126 271.911 61.9467 272.226 62.4141C272.541 62.8815 272.96 63.2695 273.451 63.5477L308.163 83.6848C309.166 84.2615 309.98 84.0008 309.98 83.0923C309.906 82.5334 309.703 81.9993 309.388 81.532C309.073 81.0646 308.654 80.6766 308.163 80.3984Z" fill="#455A64"/>
<path opacity="0.1" d="M324.319 103.988C324.262 105.029 323.961 106.043 323.439 106.946C322.917 107.849 322.19 108.616 321.317 109.186C320.467 109.621 319.533 109.869 318.579 109.913C317.625 109.956 316.673 109.795 315.787 109.439C317.201 109.976 318.275 109.17 318.275 107.456V82.8315C318.241 81.7878 317.939 80.7705 317.398 79.8769L323.402 76.4167C323.939 77.3119 324.241 78.3283 324.279 79.3713L324.319 103.988Z" fill="black"/>
<path opacity="0.3" d="M263.813 50.481C264.16 49.2091 265.321 48.8062 266.712 49.6041L315.321 77.6412C316.207 78.1888 316.935 78.9598 317.43 79.8769L323.426 76.4246C322.929 75.507 322.202 74.7339 321.317 74.181L272.724 46.1439C271.791 45.6762 270.762 45.4326 269.718 45.4326C268.674 45.4326 267.645 45.6762 266.712 46.1439C265.96 46.6324 265.315 47.2689 264.816 48.0145C264.318 48.7601 263.976 49.5993 263.813 50.481Z" fill="white"/>
<path d="M79.2054 93.4095L73.2646 89.9809C73.1474 89.9329 73.05 89.8466 72.9881 89.736L71.89 87.8242L75.4134 85.7939L75.3028 86.102L79.2054 93.4095Z" fill="#505798"/>
<g opacity="0.55">
<path opacity="0.55" d="M79.2054 93.4095L73.2646 89.9809C73.1474 89.9329 73.05 89.8466 72.9881 89.736L71.89 87.8242L75.4134 85.7939L75.3028 86.102L79.2054 93.4095Z" fill="white"/>
</g>
<path d="M74.8841 86.1101L78.9921 93.2201C79.0497 93.3224 79.1358 93.4059 79.2398 93.4604C79.3438 93.515 79.4614 93.5382 79.5784 93.5273C79.6953 93.5165 79.8067 93.472 79.8989 93.3992C79.9911 93.3265 80.0603 93.2286 80.0981 93.1174L84.4431 80.5801L74.8841 86.1101Z" fill="#505798"/>
<path opacity="0.7" d="M74.8841 86.1101L78.9921 93.2201C79.0497 93.3224 79.1358 93.4059 79.2398 93.4604C79.3438 93.515 79.4614 93.5382 79.5784 93.5273C79.6953 93.5165 79.8067 93.472 79.8989 93.3992C79.9911 93.3265 80.0603 93.2286 80.0981 93.1174L84.4431 80.5801L74.8841 86.1101Z" fill="white"/>
<path d="M90.5024 50.2915C90.4515 49.2944 90.1651 48.3235 89.6667 47.4584C89.1682 46.5933 88.4719 45.8586 87.6347 45.3145C86.7464 44.8622 85.7638 44.6265 84.767 44.6265C83.7702 44.6265 82.7876 44.8622 81.8993 45.3145L35.4157 72.135C34.5781 72.6775 33.8809 73.4105 33.3811 74.2742C32.8813 75.1379 32.5931 76.1077 32.5401 77.1041V100.646C32.5931 101.643 32.8813 102.612 33.3811 103.476C33.8809 104.34 34.5781 105.073 35.4157 105.615C36.304 106.068 37.2866 106.303 38.2834 106.303C39.2802 106.303 40.2628 106.068 41.1511 105.615L87.9033 78.6051C90.4787 77.1357 90.5024 75.6584 90.5024 73.8651V50.2915Z" fill="#505798"/>
<path opacity="0.7" d="M90.5103 50.2915V73.8256C90.5103 75.6584 90.5103 77.1357 87.9033 78.5656L41.1511 105.615C40.9926 105.704 40.829 105.783 40.6613 105.852H40.5981H40.5191L40.4085 105.892H40.4559C39.2077 106.247 38.2834 105.473 38.2834 103.925V80.3826C38.3197 79.3843 38.6077 78.4114 39.1208 77.5544C39.5932 76.672 40.291 75.9306 41.1432 75.4056L87.6347 48.593C88.9619 47.803 90.0679 48.2217 90.4076 49.4304C90.3172 48.9541 90.1714 48.4901 89.9731 48.0479C90.3147 48.7472 90.4981 49.5132 90.5103 50.2915Z" fill="white"/>
<path opacity="0.55" d="M32.548 100.646C32.6001 101.642 32.8871 102.611 33.3855 103.475C33.8839 104.338 34.5796 105.072 35.4157 105.615C36.2233 106.024 37.1082 106.257 38.0123 106.299C38.9164 106.341 39.8192 106.192 40.6613 105.86C39.3104 106.374 38.2913 105.599 38.2913 103.964V80.422C38.3276 79.4238 38.6156 78.4509 39.1287 77.5938L33.3854 74.26C32.8662 75.1202 32.5778 76.0997 32.548 77.104V100.646Z" fill="white"/>
<path opacity="0.85" d="M90.4076 49.4699C90.0758 48.2533 88.9619 47.8899 87.6426 48.6325L41.1511 75.4451C40.3028 75.9714 39.6059 76.7091 39.1287 77.586L33.3933 74.2601C33.8703 73.381 34.5671 72.6406 35.4157 72.1113L81.8914 45.2987C82.7823 44.8506 83.7658 44.6172 84.7631 44.6172C85.7603 44.6172 86.7438 44.8506 87.6347 45.2987C88.3568 45.7683 88.9752 46.3805 89.452 47.0978C89.9289 47.8151 90.254 48.6223 90.4076 49.4699Z" fill="white"/>
<path d="M45.9938 86.0311L79.1738 66.763C80.1376 66.21 80.9118 66.4628 80.9118 67.3318C80.8423 67.8667 80.649 68.378 80.3473 68.825C80.0456 69.2721 79.6438 69.6426 79.1738 69.9072L45.9938 89.1674C45.0379 89.7204 44.2558 89.4676 44.2558 88.6065C44.3271 88.0722 44.521 87.5617 44.8226 87.1149C45.1241 86.668 45.525 86.2971 45.9938 86.0311Z" fill="#455A64"/>
<path d="M45.9938 92.841L69.1408 79.411C70.0967 78.858 70.8788 79.1108 70.8788 79.9798C70.8058 80.5135 70.6111 81.0233 70.3098 81.4699C70.0084 81.9164 69.6085 82.2877 69.1408 82.5552L45.9938 95.9852C45.0379 96.5461 44.2558 96.2933 44.2558 95.4243C44.3259 94.8886 44.5194 94.3764 44.8209 93.9282C45.1225 93.4799 45.524 93.1077 45.9938 92.841Z" fill="#455A64"/>
<path d="M45.9938 79.2371L79.1738 59.9769C80.1376 59.4239 80.9118 59.6767 80.9118 60.5457C80.8411 61.0802 80.6474 61.591 80.3458 62.0379C80.0442 62.4847 79.643 62.8556 79.1738 63.1211L45.9938 82.3813C45.0379 82.9343 44.2558 82.6815 44.2558 81.8125C44.3271 81.2782 44.521 80.7676 44.8226 80.3208C45.1241 79.874 45.525 79.5031 45.9938 79.2371Z" fill="#455A64"/>
<path d="M176.391 39.4999C176.27 39.4336 176.134 39.3983 175.996 39.3972H168.799L165.829 41.0799V51.3499L168.799 49.6356L171.367 46.6652V54.5652L174.337 52.8509L182.127 43.8528C182.201 43.7653 182.256 43.6624 182.287 43.5514C182.318 43.4404 182.324 43.324 182.306 43.2104C182.287 43.0967 182.243 42.9886 182.178 42.8935C182.113 42.7984 182.028 42.7187 181.929 42.6599L176.391 39.4999Z" fill="#455A64"/>
<path d="M171.367 54.5891L174.337 52.8748L182.127 43.8767C182.222 43.7622 182.283 43.6232 182.303 43.4756C182.322 43.328 182.3 43.1778 182.238 43.0424C182.176 42.9069 182.077 42.7918 181.953 42.7101C181.828 42.6285 181.683 42.5838 181.534 42.5811H174.337L171.367 44.2954V54.5891Z" fill="#37474F"/>
<path d="M174.337 36.5296C174.287 35.6105 174.022 34.716 173.562 33.9186C173.102 33.1212 172.461 32.4433 171.691 31.9397C170.871 31.5228 169.964 31.3054 169.044 31.3054C168.124 31.3054 167.218 31.5228 166.398 31.9397L123.556 56.6588C122.786 57.1611 122.145 57.8377 121.685 58.6337C121.226 59.4298 120.96 60.3229 120.909 61.2408V82.95C120.959 83.8681 121.225 84.7615 121.685 85.5576C122.144 86.3537 122.786 87.0302 123.556 87.532C124.377 87.9447 125.283 88.1597 126.202 88.1597C127.122 88.1597 128.028 87.9447 128.849 87.532L171.943 62.6391C174.313 61.2803 174.313 59.9215 174.313 58.2309L174.337 36.5296Z" fill="#37474F"/>
<path d="M120.909 82.95C120.959 83.868 121.225 84.7614 121.685 85.5576C122.145 86.3537 122.786 87.0302 123.556 87.532C124.302 87.9077 125.119 88.1217 125.954 88.1598C126.788 88.1979 127.621 88.0593 128.399 87.7532C127.151 88.2193 126.203 87.5083 126.203 85.9994V64.2981C126.237 63.3756 126.509 62.4776 126.993 61.6911L121.66 58.6338C121.181 59.4223 120.909 60.3191 120.87 61.2408L120.909 82.95Z" fill="#263238"/>
<path d="M174.25 35.7712C173.942 34.6494 172.923 34.2939 171.699 34.9812L128.849 59.7161C128.063 60.1969 127.419 60.8787 126.985 61.6911L121.66 58.6417C122.102 57.8343 122.744 57.1542 123.524 56.6667L166.366 31.9476C167.189 31.5348 168.096 31.3198 169.017 31.3198C169.937 31.3198 170.844 31.5348 171.667 31.9476C172.336 32.3749 172.91 32.9345 173.354 33.5921C173.798 34.2497 174.103 34.9913 174.25 35.7712Z" fill="#455A64"/>
<path d="M134.837 68.73L165.45 50.9787C166.335 50.4652 167.03 50.6943 167.03 51.5001C166.966 51.9899 166.79 52.4586 166.516 52.8696C166.242 53.2806 165.877 53.623 165.45 53.8701L134.837 71.6451C133.952 72.1507 133.257 71.9216 133.257 71.1237C133.317 70.6296 133.491 70.1563 133.766 69.7409C134.04 69.3255 134.407 68.9795 134.837 68.73Z" fill="#505798"/>
<path d="M144.112 69.6464L165.442 57.2829C166.327 56.7694 167.022 57.0064 167.022 57.8043C166.959 58.2945 166.784 58.7636 166.51 59.1748C166.236 59.586 165.87 59.9281 165.442 60.1743L144.112 72.5378C143.227 73.0513 142.532 72.8222 142.532 72.0164C142.595 71.5265 142.771 71.0579 143.045 70.6469C143.319 70.2358 143.684 69.8935 144.112 69.6464Z" fill="#505798"/>
<path d="M134.837 62.489L165.45 44.7298C166.335 44.2242 167.03 44.4533 167.03 45.2512C166.966 45.7411 166.79 46.2097 166.516 46.6207C166.242 47.0317 165.877 47.3741 165.45 47.6212L134.837 65.3804C133.952 65.8939 133.257 65.6648 133.257 64.859C133.321 64.3691 133.496 63.9005 133.77 63.4895C134.044 63.0785 134.409 62.7361 134.837 62.489Z" fill="#505798"/>
<path d="M314.491 156.215C318.56 155.306 323.181 157.005 326.254 163.53C329.225 169.755 337.82 188.075 338.017 192.468C338.223 197.026 319.666 211.222 320.187 210.977C320.345 210.898 316.039 202.201 316.039 202.201L325.48 190.469L320.14 179.954L314.491 156.215Z" fill="#505798"/>
<g opacity="0.35">
<path opacity="0.35" d="M314.491 156.215C318.56 155.306 323.181 157.005 326.254 163.53C329.225 169.755 337.82 188.075 338.017 192.468C338.223 197.026 319.666 211.222 320.187 210.977C320.345 210.898 316.039 202.201 316.039 202.201L325.48 190.469L320.14 179.954L314.491 156.215Z" fill="black"/>
</g>
<path d="M321.593 303.937C322.13 304.142 322.439 305.161 322.683 307.65C322.826 309.23 323.355 311.236 321.001 312.485C320.144 312.926 319.193 313.152 318.229 313.143C317.265 313.133 316.318 312.888 315.471 312.429C313.433 311.165 312.398 308.827 310.012 306.955C307.91 305.311 305.272 304.095 303.581 301.101C301.891 298.107 302.159 296.116 305.635 296.116C311.228 296.116 312.903 299.197 315.779 299.276C317.351 299.292 321.048 303.739 321.593 303.937Z" fill="#263238"/>
<path d="M321.585 302.712V305.224C321.585 306.449 316.363 308.282 314.902 305.477C314.791 305.232 314.223 301.788 314.223 301.788L321.585 302.712Z" fill="#FFA8A7"/>
<path d="M297.364 318.567C297.364 318.567 298.359 318.567 298.746 322.62C298.897 324.2 299.268 327.36 298.746 328.482C298.225 329.604 295.365 330.133 292.158 330.417C289.788 330.631 287.607 331.792 285.395 333.04C283.298 334.221 280.944 334.872 278.538 334.936C275.505 334.936 272.937 334.628 270.78 332.922C269.635 332.013 268.173 330.101 269.24 328.656C269.684 328.218 270.247 327.921 270.859 327.802C272.21 327.297 273.569 326.839 274.944 326.404C276.999 325.794 279.004 325.026 280.94 324.105C283.768 322.707 286.92 321.151 289.061 318.765L297.364 318.567Z" fill="#263238"/>
<path d="M297.348 316.474C297.348 316.474 297.348 318.338 297.348 319.405C297.348 320.471 296.116 322.059 292.853 321.964C290.57 321.893 288.966 321.285 289.045 319.397V316.687L297.348 316.474Z" fill="#FFA8A7"/>
<path d="M323.047 269.39C322.467 264.946 321.45 260.569 320.013 256.323C320.013 256.323 320.851 245.026 321.23 234.314C321.559 223.34 321.253 212.357 320.313 201.418C320.313 201.418 283.926 197.974 283.326 211.341C282.725 224.708 283.594 258.741 284.068 264.603C284.542 270.464 285.008 275.971 286.257 286.896C287.323 296.305 289.053 316.727 289.053 316.727C290.347 317.377 291.78 317.697 293.227 317.66C294.674 317.623 296.09 317.229 297.348 316.514C297.348 316.514 300.089 289.093 300.405 282.322C300.816 273.537 298.77 268.695 298.77 268.695C298.77 268.695 299.56 263.165 300.895 251.805C301.851 243.786 303.123 234.646 303.123 234.646C303.123 234.646 304.371 245.959 305.122 252.263C305.825 258.109 307.01 262.73 308.764 273.632C310.288 283.112 314.444 303.099 314.444 303.099C318.718 305.382 321.554 302.752 321.554 302.752C321.554 302.752 324.24 277.559 323.047 269.39Z" fill="#37474F"/>
<path d="M303.123 234.63L304.845 223.459C304.845 223.459 311.955 221.2 315.526 216.989C315.526 216.989 313.606 221.895 307.01 224.534L304.363 233.943L303.913 241.7L303.123 234.63Z" fill="black"/>
<path d="M297.151 152.96L298.849 164.897L309.593 164.525L308.558 150.574L297.151 152.96Z" fill="#FFA8A7"/>
<path d="M289.44 138.25C289.44 138.25 286.557 142.477 286.873 142.903C287.189 143.33 289.243 143.733 289.243 143.733L289.44 138.25Z" fill="#F28F8F"/>
<path d="M290.38 140.976C289.687 140.963 289.013 140.745 288.444 140.35C287.874 139.954 287.434 139.399 287.18 138.754C286.926 138.109 286.869 137.403 287.016 136.725C287.163 136.048 287.507 135.429 288.006 134.947C288.504 134.465 289.134 134.141 289.817 134.017C290.499 133.893 291.202 133.974 291.839 134.25C292.475 134.526 293.015 134.984 293.391 135.566C293.767 136.149 293.962 136.83 293.951 137.523C293.935 138.454 293.549 139.341 292.88 139.988C292.21 140.635 291.311 140.99 290.38 140.976ZM290.483 134.742C289.944 134.735 289.415 134.887 288.962 135.18C288.51 135.473 288.155 135.893 287.941 136.388C287.728 136.883 287.666 137.431 287.763 137.961C287.861 138.491 288.113 138.98 288.489 139.367C288.864 139.753 289.346 140.02 289.873 140.133C290.4 140.246 290.949 140.2 291.45 140.001C291.951 139.802 292.382 139.459 292.688 139.015C292.994 138.571 293.161 138.046 293.169 137.507C293.174 137.15 293.109 136.794 292.977 136.461C292.845 136.129 292.648 135.825 292.399 135.569C292.149 135.312 291.852 135.107 291.523 134.965C291.194 134.823 290.841 134.748 290.483 134.742Z" fill="#263238"/>
<path d="M297.443 126.526C291.723 127.64 290.041 130.113 289.361 139.166C288.65 148.607 289.567 151.593 290.791 152.889C291.621 153.758 296.274 153.987 298.636 153.378C301.59 152.588 308.274 150.361 311.465 145.66C315.218 140.13 316.3 132.554 312.421 129.378C306.978 124.907 299.765 126.076 297.443 126.526Z" fill="#FFA8A7"/>
<path d="M297.238 153.608C294.781 153.884 291.478 153.608 290.791 152.881C292.886 152.862 294.959 152.455 296.906 151.68L297.238 153.608Z" fill="#F28F8F"/>
<path d="M287.307 128.77C287.291 129.596 287.571 130.4 288.097 131.037C288.583 131.556 289.199 131.935 289.881 132.137C290.563 132.338 291.286 132.354 291.976 132.183C291.813 132.625 291.77 133.102 291.854 133.566C291.937 134.029 292.143 134.462 292.45 134.819C292.757 135.176 293.154 135.445 293.6 135.597C294.046 135.748 294.525 135.778 294.986 135.682C294.71 135.746 295.436 137.855 295.507 138.052C295.616 138.445 295.806 138.81 296.065 139.124C296.323 139.438 296.645 139.695 297.008 139.877C297.008 139.877 298.012 136.235 301.085 136.717C304.158 137.199 304.537 141.189 302.546 143.559C300.556 145.929 298.746 144.981 298.746 144.981C298.746 144.981 298.746 150.211 301.022 153.205C301.022 153.205 303.644 154.105 308.511 153.141C311.497 152.557 315.771 148.899 317.604 144.989C321.483 136.702 321.862 129.189 316.569 126.866C316.363 126.771 316.284 125.744 316.221 125.523C316.075 124.937 315.844 124.375 315.534 123.856C314.816 122.733 313.79 121.839 312.579 121.281C310.796 120.525 308.884 120.117 306.947 120.08C305.017 120.04 303.094 119.845 301.195 119.495C299.497 119.1 297.901 118.374 296.242 117.836C294.607 117.208 292.834 117.031 291.107 117.323C290.249 117.486 289.455 117.887 288.815 118.481C288.175 119.075 287.716 119.837 287.489 120.68C287.118 122.6 288.232 124.196 289.393 125.602C288.763 125.855 288.224 126.291 287.846 126.855C287.469 127.419 287.27 128.084 287.276 128.762L287.307 128.77Z" fill="#263238"/>
<path d="M315.842 128.77L319.278 126.811C319.15 126.585 318.978 126.387 318.773 126.228C318.568 126.069 318.333 125.951 318.083 125.883C317.832 125.814 317.57 125.796 317.313 125.828C317.055 125.861 316.806 125.943 316.581 126.072C316.355 126.201 316.157 126.373 315.998 126.578C315.838 126.783 315.721 127.018 315.653 127.268C315.584 127.519 315.565 127.78 315.598 128.038C315.63 128.296 315.713 128.544 315.842 128.77Z" fill="#263238"/>
<path d="M296.985 141.916L297.151 137.966C296.879 137.933 296.604 137.956 296.342 138.035C296.08 138.114 295.837 138.246 295.628 138.423C295.42 138.6 295.25 138.818 295.13 139.064C295.01 139.31 294.942 139.578 294.931 139.851C294.919 140.124 294.964 140.397 295.063 140.652C295.162 140.907 295.313 141.139 295.506 141.333C295.699 141.527 295.93 141.678 296.184 141.779C296.439 141.879 296.711 141.926 296.985 141.916Z" fill="#263238"/>
<path d="M287.268 136.686L297.846 138.226L297.403 138.961L287.26 137.484L287.268 136.686Z" fill="#263238"/>
<path d="M321.451 162.827C320.195 157.929 318.425 156.325 314.159 156.215C311.959 156.359 309.769 156.638 307.602 157.052C307.152 159.122 301.804 160.528 296.384 159.422C294.804 159.888 290.515 161.049 289.172 161.531C285.34 162.922 283.484 166.903 283.231 179.543C283.231 179.543 282.496 209.5 283.231 214.675C292.893 218.443 302.926 218.277 308.463 217.045C319.99 214.461 321.356 209.666 321.356 209.666C321.356 209.666 320.756 197.642 320.361 188.494C320.938 182.672 321.807 178.295 322.123 173.65C322.403 170.029 322.177 166.386 321.451 162.827Z" fill="#505798"/>
<g opacity="0.2">
<path opacity="0.2" d="M321.451 162.827C320.195 157.929 318.425 156.325 314.159 156.215C311.959 156.359 309.769 156.638 307.602 157.052C307.152 159.122 301.804 160.528 296.384 159.422C294.804 159.888 290.515 161.049 289.172 161.531C285.34 162.922 283.484 166.903 283.231 179.543C283.231 179.543 282.496 209.5 283.231 214.675C292.893 218.443 302.926 218.277 308.463 217.045C319.99 214.461 321.356 209.666 321.356 209.666C321.356 209.666 320.756 197.642 320.361 188.494C320.938 182.672 321.807 178.295 322.123 173.65C322.403 170.029 322.177 166.386 321.451 162.827Z" fill="black"/>
</g>
<path d="M308.811 153.947L308.89 155.101C308.89 155.101 308.329 156.681 305.066 157.329C299.592 158.348 297.672 156.641 297.672 156.641L297.538 155.654C297.538 155.654 297.008 155.44 296.116 156.128C294.765 157.529 293.501 159.012 292.332 160.568C292.332 160.568 293.374 160.259 296.795 161.713C300.211 163.048 303.977 163.19 307.484 162.116C308.462 161.792 309.337 161.218 310.024 160.45C310.71 159.682 311.182 158.747 311.394 157.739C311.529 156.736 309.751 153.544 308.811 153.947Z" fill="#505798"/>
<path opacity="0.35" d="M308.811 153.947L308.89 155.101C308.89 155.101 308.329 156.681 305.066 157.329C299.592 158.348 297.672 156.641 297.672 156.641L297.538 155.654C297.538 155.654 297.008 155.44 296.116 156.128C294.765 157.529 293.501 159.012 292.332 160.568C292.332 160.568 293.374 160.259 296.795 161.713C300.211 163.048 303.977 163.19 307.484 162.116C308.462 161.792 309.337 161.218 310.024 160.45C310.71 159.682 311.182 158.747 311.394 157.739C311.529 156.736 309.751 153.544 308.811 153.947Z" fill="black"/>
<path d="M287.963 162.013C283.389 162.898 279.376 164.984 279.455 170.403C279.482 177.325 278.33 184.202 276.05 190.738C274.628 195.233 262.912 208.678 260.021 209.516C257.129 210.353 252.982 208.544 251.978 209.998C250.975 211.451 254.957 213.229 255.138 213.948C255.32 214.667 250.248 216.657 247.175 216.128C244.102 215.599 244.853 219.359 249.482 221.429C254.111 223.499 259.839 221.121 265.329 217.013C270.82 212.905 281.809 204.136 284.645 198.053C288.081 190.722 290.001 183.833 290.42 178.54C291.147 167.693 287.963 162.013 287.963 162.013Z" fill="#FFA8A7"/>
<path d="M288.508 161.737C288.508 161.737 283.768 161.737 280.94 164.557C278.522 166.927 278.206 170.814 277.535 178.429C277.199 182.441 276.469 186.41 275.354 190.279C274.786 192.215 266.751 203.37 266.751 203.37C266.751 203.37 270.022 208.236 273.301 210.835C273.301 210.835 280.671 204.76 284.424 199.664C288.176 194.569 290.72 180.12 290.72 180.12C290.72 180.12 292.64 169.06 288.508 161.737Z" fill="#505798"/>
<path opacity="0.35" d="M288.508 161.737C288.508 161.737 283.768 161.737 280.94 164.557C278.522 166.927 278.206 170.814 277.535 178.429C277.199 182.441 276.469 186.41 275.354 190.279C274.786 192.215 266.751 203.37 266.751 203.37C266.751 203.37 270.022 208.236 273.301 210.835C273.301 210.835 280.671 204.76 284.424 199.664C288.176 194.569 290.72 180.12 290.72 180.12C290.72 180.12 292.64 169.06 288.508 161.737Z" fill="black"/>
<path d="M267.131 202.864C268.762 205.861 271.079 208.43 273.893 210.361C273.893 210.361 271.286 212.573 269.88 213.458C269.88 213.458 266.001 212.075 263.647 206.751L267.131 202.864Z" fill="#505798"/>
<path opacity="0.5" d="M267.131 202.864C268.762 205.861 271.079 208.43 273.893 210.361C273.893 210.361 271.286 212.573 269.88 213.458C269.88 213.458 266.001 212.075 263.647 206.751L267.131 202.864Z" fill="black"/>
<path d="M265.717 206.467C265.792 206.59 265.91 206.681 266.048 206.722C266.186 206.763 266.335 206.752 266.466 206.69C266.596 206.628 266.699 206.52 266.755 206.387C266.81 206.254 266.815 206.105 266.767 205.969C266.74 205.891 266.697 205.821 266.641 205.761C266.585 205.701 266.517 205.654 266.441 205.622C266.365 205.591 266.284 205.575 266.202 205.577C266.12 205.579 266.039 205.598 265.965 205.633C265.891 205.669 265.825 205.719 265.772 205.781C265.718 205.843 265.679 205.916 265.655 205.995C265.632 206.073 265.625 206.156 265.636 206.237C265.646 206.318 265.674 206.397 265.717 206.467Z" fill="#263238"/>
<path d="M188.763 62.3073H200.858C205.536 62.3073 210.023 60.4487 213.331 57.1404C216.64 53.8322 218.498 49.3452 218.498 44.6666C218.498 40.9413 217.018 37.3686 214.384 34.7344C211.75 32.1002 208.177 30.6204 204.452 30.6204H202.809C199.084 30.6204 195.511 32.1002 192.877 34.7344C190.242 37.3686 188.763 40.9413 188.763 44.6666V62.3073Z" fill="#263238"/>
<path d="M187.372 72.0007C184.394 77.6729 181.574 84.5933 179.37 86.8843C175.183 88.8356 165.624 92.4696 161.784 92.9752C161.105 93.0575 160.419 92.8951 159.849 92.517C158.34 91.5295 157.171 91.3636 155.575 90.8185C154.327 90.384 153.797 89.7836 153.568 90.0285C153.325 90.3079 153.201 90.6721 153.225 91.042C153.249 91.4118 153.417 91.7574 153.695 92.0035C154.291 92.5762 154.954 93.0749 155.67 93.4887C153.962 93.9054 152.184 93.9351 150.463 93.5756C147.138 92.6987 145.565 94.3024 147.817 97.9127C148.607 99.2083 151.767 101.278 158.229 100.725C160.521 100.599 162.803 100.335 165.063 99.9351C171.233 98.6237 177.821 96.6961 182.04 95.44C183.604 94.8181 185.004 93.8451 186.132 92.596C193.242 84.5143 196.71 77.349 199.815 72.1113L197.555 64.2982C192.531 64.1086 189.932 67.1501 187.372 72.0007Z" fill="#B16668"/>
<path d="M197.555 64.2585C193.684 63.9741 192.215 64.7009 190.445 66.431C186.219 70.5864 179.772 86.4022 179.67 86.5286C179.567 86.655 174.882 88.788 174.882 88.788C174.882 88.788 177.379 92.9671 176.802 96.925C176.802 96.925 181.376 95.9138 183.011 95.2897C184.647 94.6656 185.231 94.2311 186.772 92.4457C188.312 90.6603 196.923 80.4535 196.923 80.4535L197.555 64.2585Z" fill="#263238"/>
<path d="M189.245 81.9465C189.823 84.714 190.046 87.544 189.908 90.3679C189.655 94.0809 187.017 100.883 187.017 100.883C187.017 100.883 189.094 102.771 194.751 101.886C199.357 101.167 197.729 87.279 195.083 84.5851C193.544 82.9942 191.456 82.0504 189.245 81.9465Z" fill="#37474F"/>
<path d="M221.121 200.431C221.446 202.257 221.62 204.106 221.642 205.961C221.713 209.334 222.33 210.527 222.432 213.292C222.527 216.452 221.982 217.637 220.702 219.415C219.422 221.192 216.049 222.804 214.627 219.794C213.205 216.784 213.387 214.825 213.837 211.728C214.287 208.631 214.366 206.751 214.627 204.31C214.864 202.153 215.149 200.518 215.149 200.518L221.121 200.431Z" fill="#263238"/>
<path d="M211.554 173.934L222.614 173.737C222.448 181.147 221.271 193.487 221.082 200.431C221.082 201.742 221.082 210.606 220.615 213.3C219.873 217.345 215.085 216.799 214.817 214.374C214.548 211.949 215.125 201.608 215.109 200.541C215.157 196.086 213.063 184.449 211.949 176.438C211.957 176.051 211.602 174.321 211.554 173.934Z" fill="#B16668"/>
<path d="M195.233 194.664C195.233 194.664 195.809 194.703 195.904 195.169C195.999 195.636 196.031 196.599 196.268 197.539C196.639 198.972 196.772 200.456 196.663 201.932C196.465 202.967 194.103 204.515 192.491 204.784C190.88 205.052 188.597 206.648 187.325 207.841C185.296 209.522 182.782 210.51 180.152 210.661C177.458 210.661 175.578 209.769 174.685 208.291C173.792 206.814 175.475 206.672 178.58 204.673L180.95 203.093C185.832 199.933 187.617 198.195 189 195.004L195.233 194.664Z" fill="#263238"/>
<path d="M188.984 192.934C189.063 190.635 187.894 173.737 187.894 173.737L197.437 174.811C195.185 188.28 194.996 192.878 195.256 194.837C195.304 195.021 195.325 195.209 195.32 195.398C195.32 198.021 192.349 199.427 190.05 201.173C189.134 201.861 186.796 203.986 184.054 204.926C182.285 205.526 178.998 205.755 178.58 204.681C181.384 202.54 185.2 199.735 187.435 197.294C188.494 196.125 188.905 195.225 188.984 192.934Z" fill="#B16668"/>
<path d="M214.706 93.9468C217.968 98.2329 220.342 103.126 221.69 108.341C224.85 121.067 219.889 148.299 219.889 148.299C220.047 150.139 222.156 153.773 222.946 161.903C223.87 171.501 221.232 197.208 221.232 197.208C221.232 197.208 218.688 199.104 215.014 197.334C215.014 197.334 208.291 159.572 207.114 150.029C206.064 141.694 203.954 124.385 203.954 124.385L199.08 149.981C199.08 149.981 199.751 154.65 200.091 158.205C200.636 163.814 195.169 192.002 195.169 192.002C194.184 192.41 193.126 192.61 192.059 192.588C190.993 192.566 189.943 192.323 188.976 191.875C188.976 191.875 186.558 155.472 186.045 148.71C185.524 141.75 187.333 125.523 188.668 112.607C189.071 108.712 190.919 98.3866 191.607 95.0212L214.706 93.9468Z" fill="#455A64"/>
<path opacity="0.6" d="M203.899 124.385L202.754 116.485C199.456 116.286 196.263 115.256 193.471 113.491C195.399 115.895 198.187 117.454 201.245 117.836L201.964 124.883L199.673 146.869L203.899 124.385Z" fill="#263238"/>
<path d="M191.18 85.5411C191.298 87.8558 191.63 95.0211 191.63 95.0211C201.11 101.42 214.722 93.9467 214.722 93.9467L216.689 80.5167C216.689 80.5167 211.752 73.6121 216.381 66.2967L208.994 64.8352L200.186 64.1084L197.571 64.2269C194.68 66.352 190.248 70.9972 189.316 73.3751C188.383 75.753 186.961 80.5799 191.18 85.5411Z" fill="#505798"/>
<g opacity="0.6">
<path opacity="0.6" d="M191.18 85.5411C191.298 87.8558 191.63 95.0211 191.63 95.0211C201.11 101.42 214.722 93.9467 214.722 93.9467L216.689 80.5167C216.689 80.5167 211.752 73.6121 216.381 66.2967L208.994 64.8352L200.186 64.1084L197.571 64.2269C194.68 66.352 190.248 70.9972 189.316 73.3751C188.383 75.753 186.961 80.5799 191.18 85.5411Z" fill="white"/>
</g>
<path d="M209.461 64.9617C209.461 64.9617 217.827 65.333 219.415 66.0914C221.002 66.8498 223.649 71.416 221.279 78.0678C218.909 84.7196 216.768 92.5169 217.013 94.089C217.258 95.6611 222.898 103.774 222.898 103.774C221.339 104.927 219.575 105.774 217.7 106.271L214.809 99.9508L215.488 106.674C215.488 106.674 210.274 107.938 206.553 107.614C206.553 107.606 203.551 82.16 209.461 64.9617Z" fill="#37474F"/>
<path d="M214.343 30.6204L213.379 34.3018C213.619 34.3813 213.873 34.4107 214.125 34.3883C214.376 34.3658 214.621 34.292 214.843 34.1713C215.065 34.0506 215.26 33.8856 215.416 33.6866C215.572 33.4875 215.685 33.2587 215.749 33.0141C215.868 32.5107 215.789 31.9808 215.527 31.5348C215.265 31.0888 214.841 30.7612 214.343 30.6204Z" fill="#263238"/>
<path d="M217.503 33.97L213.703 34.1043C213.698 34.3541 213.745 34.6021 213.839 34.8334C213.934 35.0646 214.075 35.2742 214.253 35.4494C214.431 35.6245 214.643 35.7616 214.876 35.8523C215.108 35.9429 215.357 35.9852 215.607 35.9766C216.12 35.9502 216.604 35.7269 216.957 35.3532C217.31 34.9795 217.506 34.4841 217.503 33.97Z" fill="#263238"/>
<path d="M194.277 37.2959C192.697 38.2202 190.769 42.1702 190.959 50.4494C191.125 57.4646 193.392 59.2026 194.538 59.7003C195.683 60.198 197.879 59.8978 200.02 59.5344V63.7451C200.02 63.7451 197.066 67.1816 197.247 69.1171C197.429 71.0526 201.521 71.4871 204.294 69.6148C206.088 68.3286 207.628 66.7215 208.837 64.8748V53.9491C208.837 53.9491 210.006 55.1894 212.083 53.7674C212.526 53.4816 212.906 53.1076 213.197 52.6686C213.489 52.2296 213.687 51.7351 213.779 51.216C213.871 50.697 213.855 50.1645 213.732 49.652C213.609 49.1395 213.381 48.6579 213.063 48.2374C212.762 47.9556 212.403 47.743 212.011 47.6146C211.619 47.4862 211.204 47.445 210.795 47.4939C210.385 47.5428 209.991 47.6807 209.641 47.8978C209.29 48.115 208.992 48.4061 208.765 48.7509C208.765 48.7509 205.89 48.4981 201.339 46.0017C197.926 44.1491 195.386 41.0184 194.277 37.2959Z" fill="#B16668"/>
<path d="M199.578 48.6878C199.576 48.8614 199.626 49.0316 199.721 49.1771C199.815 49.3227 199.951 49.4371 200.11 49.5063C200.269 49.5755 200.445 49.5963 200.616 49.5661C200.787 49.536 200.946 49.4562 201.071 49.3367C201.197 49.2172 201.285 49.0633 201.325 48.8941C201.364 48.725 201.352 48.5481 201.291 48.3854C201.231 48.2228 201.124 48.0816 200.983 47.9794C200.843 47.8772 200.675 47.8186 200.502 47.8109C200.384 47.8077 200.266 47.8279 200.156 47.8703C200.045 47.9126 199.944 47.9764 199.858 48.0578C199.772 48.1392 199.703 48.2368 199.655 48.3449C199.607 48.453 199.581 48.5695 199.578 48.6878Z" fill="#263238"/>
<path d="M198.559 54.6365L196.505 55.2843C196.542 55.4217 196.606 55.5503 196.694 55.6624C196.782 55.7745 196.891 55.868 197.016 55.9372C197.14 56.0064 197.277 56.05 197.419 56.0654C197.56 56.0808 197.703 56.0677 197.84 56.0269C198.116 55.9328 198.345 55.7355 198.479 55.4763C198.613 55.2172 198.642 54.9162 198.559 54.6365Z" fill="#9A4A4D"/>
<path d="M191.757 45.978L193.55 44.7377C193.474 44.6183 193.375 44.5154 193.258 44.4353C193.142 44.3551 193.01 44.2994 192.871 44.2713C192.733 44.2433 192.59 44.2435 192.451 44.2721C192.313 44.3007 192.181 44.3569 192.065 44.4375C191.827 44.6067 191.662 44.8603 191.605 45.1466C191.548 45.433 191.602 45.7303 191.757 45.978Z" fill="#263238"/>
<path d="M192.168 48.0478C192.165 48.2217 192.213 48.3926 192.307 48.5392C192.4 48.6858 192.535 48.8015 192.694 48.8719C192.853 48.9422 193.03 48.9642 193.201 48.9349C193.372 48.9056 193.532 48.8265 193.658 48.7073C193.785 48.5882 193.874 48.4343 193.914 48.265C193.953 48.0957 193.942 47.9184 193.882 47.7553C193.821 47.5921 193.714 47.4505 193.574 47.3479C193.433 47.2454 193.266 47.1866 193.092 47.1788C192.854 47.1724 192.624 47.2601 192.451 47.4229C192.278 47.5857 192.176 47.8103 192.168 48.0478Z" fill="#263238"/>
<path d="M197.066 47.5422L196.923 52.8589L194.127 51.9899L197.066 47.5422Z" fill="#9A4A4D"/>
<path d="M200.02 59.5344C202.28 59.2421 206.925 57.907 207.644 56.0742C207.36 57.0136 206.791 57.8417 206.016 58.4442C204.634 59.6371 200.02 60.9722 200.02 60.9722V59.5344Z" fill="#9A4A4D"/>
<path d="M234.63 95.2817C233.168 89.5858 226.975 77.1117 225.213 72.5455C223.207 67.3157 219.746 65.4355 216.01 65.4355C214.635 67.2051 214.058 76.1084 218.293 81.2355C220.094 85.0354 225.498 95.653 225.498 95.653C225.363 96.68 221.587 109.873 219.968 113.381C219.678 113.994 219.171 114.478 218.546 114.739C216.879 115.466 214.919 117.291 213.592 118.326C212.549 119.116 211.752 119.25 211.823 119.574C211.949 119.93 212.204 120.226 212.537 120.402C212.871 120.579 213.259 120.625 213.624 120.53C214.756 120.166 215.859 119.72 216.926 119.195C215.932 120.776 214.828 122.286 213.624 123.714C211.38 126.305 211.459 128.517 215.828 128.588C219.13 128.636 220.876 126.779 223.807 121.115C224.644 119.487 225.577 117.03 226.588 114.937C229.14 109.636 230.751 107.432 232.118 104.043C234.361 98.6471 235.199 97.4779 234.63 95.2817Z" fill="#B16668"/>
<path d="M214.343 65.2856C218.482 65.2856 221.54 65.6174 223.926 69.1171C226.311 72.6168 233.69 91.0317 234.512 93.4175C235.333 95.8033 235.87 97.7546 232.434 103.34C229.496 103.063 226.672 102.067 224.21 100.441L225.039 95.6532L217.811 81.6465C214.828 76.746 213.605 70.975 214.343 65.2856Z" fill="#263238"/>
<path d="M86.979 136.488C91.719 138.068 92.8329 138.392 96.0877 143.456C99.2477 148.315 102.408 157.305 105.228 164.51C110.403 163.04 121.376 160.488 124.978 158.387C128.58 156.286 128.241 154.824 129.718 153.481C131.424 151.901 133.21 148.157 134.6 150.218C135.532 151.609 133.597 152.541 133.715 154.303C133.834 156.064 139.159 151.933 141.394 150.353C142.871 149.318 146.3 152.565 144.925 156.08C143.709 159.24 141.765 161.176 138.258 162.653C134.569 164.233 132.641 165.023 127.988 167.077C123.145 169.257 103.182 178.09 101.207 176.857C96.7118 174.637 92.5959 160.725 89.8704 154.737C87.1449 148.749 88.954 142.492 86.979 136.488Z" fill="#FFA8A7"/>
<path d="M85.8493 135.88C87.8638 138.527 87.0343 137.46 87.6505 141.552C88.1561 144.847 95.0844 176.597 101.365 177.892C104.114 178.469 123.983 169.376 128.802 166.722C126.982 164.209 125.687 161.356 124.994 158.332C119.219 160.583 109.265 162.811 105.694 163.925C104.035 159.311 102.013 154.571 100.117 149.918C96.5064 141.11 94.4603 134.806 85.8493 135.88Z" fill="#37474F"/>
<path d="M58.9024 293.019H66.6444V279.771H58.9024V293.019Z" fill="#FFA8A7"/>
<path d="M87.6663 284.787L96.1114 285.079L96.5301 269.769L86.9632 269.453L87.6663 284.787Z" fill="#FFA8A7"/>
<path d="M59.8504 189.6C59.8504 196.647 59.3606 237.608 59.3606 237.608C59.1947 239.639 57.2434 243.241 57.0854 250.541C56.8721 261.134 58.4995 286.091 58.4995 286.091C59.7738 286.717 61.1702 287.056 62.5899 287.083C64.0097 287.111 65.4181 286.826 66.7155 286.249C66.7155 286.249 72.5062 250.967 73.8255 240.492C74.9789 231.344 78.2811 207.407 78.2811 207.407L83.2581 238.501C82.7161 242.225 82.5783 245.997 82.8473 249.751C83.1949 254.593 86.8605 278.696 86.8605 278.696C90.0557 279.747 93.4986 279.777 96.7118 278.783C96.7118 278.783 97.5018 241.234 97.565 236.787C97.6598 231.715 95.4478 188.091 95.4478 188.091L59.8504 189.6Z" fill="#263238"/>
<path d="M66.6365 289.203V288.097C67.0552 288.097 67.308 288.5 67.466 289.495C67.5845 290.214 67.6872 290.752 67.9242 291.692C68.2661 293.043 68.7179 294.364 69.2751 295.642C70.3653 298.336 71.2896 299.347 73.7939 302.491C74.6385 303.367 75.4299 304.293 76.1639 305.264C76.63 306.093 76.7959 308.424 75.998 308.945C73.0829 310.889 68.6431 310.944 65.4989 310.028C64.3374 309.7 63.2939 309.047 62.4917 308.146C61.6895 307.244 61.1623 306.132 60.9722 304.94C60.8616 304.221 60.9011 303.494 60.8221 302.775C60.5465 301.144 59.8827 299.602 58.8866 298.28C58.3029 297.52 57.8023 296.699 57.3935 295.831C56.7457 294.251 57.2671 292.45 57.6858 290.87C58.0413 289.495 58.4284 287.994 58.8945 288.121C58.8945 288.287 58.8945 288.966 58.8945 288.966C59.997 289.832 61.3638 290.292 62.7655 290.27C63.9031 290.293 66.6444 290.072 66.6365 289.203Z" fill="#263238"/>
<path d="M96.1983 282.472C96.6407 282.472 96.9883 283.104 97.96 284.155C99.4096 285.613 101.092 286.82 102.937 287.726C106.097 289.306 112.251 291.747 115.04 293.003C116.778 293.793 116.691 295.887 114.898 297.087C113.104 298.288 108.759 299.141 103.545 297.98C100.701 297.34 97.012 294.717 94.6657 294.86C92.3194 295.002 87.9507 294.97 86.2206 293.777C84.4905 292.584 85.1857 290.041 85.6755 287.86C86.2048 285.49 86.742 281.761 87.532 281.919V282.812C88.5511 284.345 93.852 284.906 96.1193 283.776L96.1983 282.472Z" fill="#263238"/>
<path d="M78.2811 207.407C78.2811 207.407 84.8618 205.258 89.2384 201.031C89.2384 201.031 87.2555 204.744 81.3384 208.197L82.7762 235.42L78.2811 207.407Z" fill="black"/>
<path d="M72.5694 135.785C70.9894 136.164 67.2211 136.623 64.4482 137.421C62.41 138.005 61.5489 140.494 61.1223 142.374C59.7556 148.378 59.5423 160.978 59.5423 160.978L59.4633 190.319C64.5509 194.016 85.4306 195.896 96.1193 188.091C96.1193 188.091 94.8158 153.142 94.8158 147.706C94.8158 142.271 91.7901 135.73 83.4477 135.248L72.5694 135.785Z" fill="#455A64"/>
<path d="M50.2756 177.039C50.2756 177.039 56.7536 186.875 57.8675 188.154C58.9814 189.434 59.7398 189.015 60.9406 188.447C62.3991 187.813 63.9013 187.285 65.4357 186.867C67.4186 186.337 67.8057 188.297 65.886 189.687C64.464 190.69 62.8445 191.133 63.516 191.962C64.8864 193.284 66.4947 194.335 68.256 195.059C72.996 197.073 73.2014 198.298 72.3166 199.957C71.5266 201.395 68.7063 205.329 60.1585 201.663C56.6351 200.147 51.745 194.798 49.4066 192.025C46.0254 188.02 41.396 180.231 41.396 180.231L50.2756 177.039Z" fill="#FFA8A7"/>
<path d="M64.4482 137.46C56.6588 136.788 54.6522 140.794 49.1222 150.605C44.24 159.169 37.92 169.85 37.7146 174.305C37.6593 175.743 43.9082 185.729 48.3796 190.801C52.2506 190.619 55.0551 189.126 56.8879 186.851C55.8214 185.073 50.0702 174.661 50.0702 174.661L60.3402 158.814C62.3513 156.375 63.7829 153.512 64.5272 150.44C65.8544 144.57 65.333 138.771 64.4482 137.46Z" fill="#37474F"/>
<path d="M74.3548 112.377C74.3532 114.315 74.9264 116.21 76.0019 117.822C77.0773 119.434 78.6067 120.691 80.3966 121.433C82.1864 122.176 84.1563 122.371 86.0571 121.994C87.9578 121.617 89.704 120.685 91.0748 119.315C92.4456 117.945 93.3794 116.2 93.758 114.299C94.1366 112.399 93.9431 110.429 93.2019 108.638C92.4607 106.848 91.2051 105.318 89.594 104.241C87.9829 103.164 86.0886 102.589 84.1508 102.589C81.5541 102.589 79.0637 103.62 77.2268 105.456C75.3899 107.291 74.3569 109.781 74.3548 112.377Z" fill="#263238"/>
<path d="M67.2211 119.337C67.2211 119.337 68.8011 126.795 69.441 128.027C69.8645 128.785 70.5632 129.351 71.3923 129.607L71.2817 124.362L67.2211 119.337Z" fill="#263238"/>
<path d="M69.1171 107.582C68.5722 107.585 68.0334 107.698 67.5337 107.915C67.0339 108.133 66.5835 108.449 66.2099 108.846C64.9064 110.181 65.5937 115.245 67.2211 119.337L70.2073 119.685L69.1171 107.582Z" fill="#263238"/>
<path d="M71.1 119.685C70.4996 120.048 69.6464 118.895 68.9038 118.105C68.1612 117.315 65.7438 116.272 64.5509 118.808C63.358 121.344 65.6095 124.812 67.5134 125.405C70.784 126.432 71.2738 124.33 71.2738 124.33L71.5187 136.504C73.7781 139.403 78.8657 142.824 81.607 142.326C83.7874 141.939 84.2693 138.25 82.1758 135.833V132.238C83.6355 132.472 85.1162 132.546 86.5919 132.459C88.9619 132.088 90.5419 130.192 91.245 127.585C92.4142 123.398 92.825 120.017 91.8612 111.785C90.771 102.763 80.2798 102.668 74.6155 106.255C68.9512 109.842 71.1 119.685 71.1 119.685Z" fill="#FFA8A7"/>
<path d="M92.9198 108.135C92.4467 108.97 91.745 109.652 90.8974 110.102C88.7854 111.257 86.3701 111.737 83.977 111.477C81.4885 111.2 79.237 110 77.0092 108.886C76.8738 109.81 76.4825 110.677 75.8795 111.39C75.122 112.164 74.2056 112.765 73.1935 113.152C72.9881 114.771 72.996 116.857 72.8933 118.492C72.8933 119.045 72.8933 121.913 71.5582 121.091C71.124 120.717 70.7415 120.286 70.4206 119.811C69.9492 119.228 69.4454 118.671 68.9117 118.144C68.5246 117.789 68.5483 116.975 68.5325 116.509C68.5008 115.531 68.5325 114.552 68.6273 113.578C68.7142 112.567 68.8801 111.564 68.967 110.56C68.9404 109.982 68.8036 109.413 68.5641 108.886C68.3774 108.266 68.292 107.621 68.3113 106.974C68.4219 104.951 69.9703 103.237 71.7873 102.344C74.4241 101.203 77.3161 100.781 80.1692 101.12C82.6498 101.325 85.2094 101.61 87.5715 100.836C88.48 100.535 89.3411 100.046 90.2654 99.8243C90.7199 99.6672 91.2011 99.6017 91.6811 99.6315C92.1611 99.6614 92.6304 99.786 93.062 99.9981C94.8474 101.033 94.958 104.217 93.1963 105.299C93.0778 105.37 92.9356 105.449 92.8961 105.583C92.8692 105.74 92.9031 105.901 92.9909 106.034C93.1415 106.366 93.2135 106.728 93.2011 107.093C93.1888 107.457 93.0925 107.814 92.9198 108.135Z" fill="#263238"/>
<path d="M68.5246 108.633L64.8985 106.689C65.0151 106.445 65.1798 106.227 65.3827 106.049C65.5857 105.87 65.8227 105.734 66.0795 105.649C66.3362 105.564 66.6075 105.532 66.877 105.555C67.1465 105.578 67.4087 105.654 67.6477 105.781C68.1318 106.053 68.4928 106.501 68.656 107.032C68.8192 107.562 68.7722 108.136 68.5246 108.633Z" fill="#263238"/>
<path d="M82.16 132.254C82.16 132.254 76.788 131.172 74.9078 130.168C73.8033 129.593 72.8976 128.698 72.3087 127.601C72.5943 128.7 73.0965 129.732 73.786 130.634C75.1606 132.388 82.16 133.684 82.16 133.684V132.254Z" fill="#F28F8F"/>
<path d="M81.6307 117.781C81.6214 118.007 81.5459 118.225 81.4137 118.408C81.2814 118.592 81.0982 118.732 80.8868 118.812C80.6754 118.892 80.4451 118.909 80.2246 118.859C80.0041 118.809 79.803 118.696 79.6464 118.533C79.4898 118.37 79.3846 118.164 79.3438 117.942C79.303 117.72 79.3284 117.49 79.417 117.282C79.5055 117.074 79.6532 116.897 79.8417 116.772C80.0302 116.647 80.2512 116.581 80.4773 116.58C80.6322 116.582 80.7852 116.615 80.9273 116.677C81.0694 116.738 81.1978 116.828 81.3051 116.939C81.4125 117.051 81.4965 117.183 81.5524 117.328C81.6083 117.472 81.6349 117.626 81.6307 117.781Z" fill="#263238"/>
<path d="M80.4773 113.871L78.1073 115.19C77.9379 114.863 77.9009 114.484 78.0039 114.131C78.1069 113.778 78.342 113.478 78.6603 113.294C78.8171 113.211 78.9889 113.16 79.1657 113.144C79.3425 113.128 79.5207 113.147 79.6899 113.201C79.8591 113.254 80.0159 113.341 80.1511 113.456C80.2863 113.571 80.3972 113.712 80.4773 113.871Z" fill="#263238"/>
<path d="M81.7255 125.61L84.3878 126.605C84.3301 126.784 84.2369 126.95 84.1138 127.092C83.9907 127.234 83.8402 127.35 83.6713 127.432C83.5024 127.515 83.3186 127.563 83.1309 127.572C82.9432 127.582 82.7553 127.554 82.5787 127.49C82.2204 127.349 81.9311 127.073 81.7719 126.722C81.6127 126.372 81.5961 125.973 81.7255 125.61Z" fill="#F28F8F"/>
<path d="M91.1423 114.834L88.9698 113.16C89.0718 113.013 89.2025 112.888 89.354 112.794C89.5055 112.699 89.6747 112.636 89.8512 112.609C90.0278 112.581 90.208 112.59 90.3811 112.635C90.5541 112.679 90.7163 112.758 90.8579 112.867C91.1494 113.095 91.3417 113.427 91.3947 113.794C91.4477 114.16 91.3573 114.533 91.1423 114.834Z" fill="#263238"/>
<path d="M90.6525 117.56C90.6432 117.778 90.57 117.988 90.4421 118.165C90.3142 118.342 90.1372 118.477 89.933 118.554C89.7288 118.632 89.5065 118.647 89.2937 118.599C89.0808 118.551 88.8868 118.441 88.7357 118.283C88.5846 118.126 88.4832 117.927 88.4439 117.713C88.4046 117.498 88.4293 117.277 88.5148 117.076C88.6003 116.875 88.7429 116.704 88.9249 116.583C89.107 116.463 89.3203 116.399 89.5386 116.398C89.688 116.402 89.8353 116.434 89.9722 116.494C90.109 116.554 90.2327 116.64 90.3361 116.748C90.4396 116.856 90.5207 116.983 90.575 117.123C90.6293 117.262 90.6556 117.41 90.6525 117.56Z" fill="#263238"/>
<path d="M84.6801 116.644L85.0672 123.667L88.7328 122.418L84.6801 116.644Z" fill="#F28F8F"/>
<path d="M86.0073 141.576C85.32 143.156 84.056 143.859 81.7729 144.12C80.6251 144.199 79.473 144.045 78.3866 143.666C77.3002 143.288 76.3021 142.692 75.4529 141.915L78.2969 139.079L81.9072 141.805L82.2153 138.771L86.0073 141.576Z" fill="#505798"/>
<path opacity="0.2" d="M86.0073 141.576C85.32 143.156 84.056 143.859 81.7729 144.12C80.6251 144.199 79.473 144.045 78.3866 143.666C77.3002 143.288 76.3021 142.692 75.4529 141.915L78.2969 139.079L81.9072 141.805L82.2153 138.771L86.0073 141.576Z" fill="black"/>
<path d="M84.214 140.683C84.544 141.664 84.6704 142.701 84.5853 143.733C84.4809 144.653 84.1318 145.529 83.5741 146.268C83.2111 146.499 82.8002 146.642 82.3729 146.689C81.9456 146.736 81.5133 146.684 81.1093 146.537C80.3704 145.909 79.7761 145.128 79.3671 144.248C78.958 143.369 78.7439 142.411 78.7393 141.441L81.8993 141.805L84.214 140.683Z" fill="#505798"/>
<path d="M83.5741 146.269C83.5741 146.269 87.2792 166.706 87.4293 168.389C87.5794 170.071 85.2963 175.894 83.8901 175.949C82.4839 176.004 79.7031 170.695 79.6636 169.194C79.6241 167.693 81.1093 146.569 81.1093 146.569L83.5741 146.269Z" fill="#505798"/>
<path d="M81.1093 146.537C81.5076 146.713 81.945 146.78 82.3777 146.733C82.8103 146.686 83.2229 146.526 83.5741 146.269L83.6294 146.592C83.2753 146.877 82.8575 147.072 82.4118 147.16C81.966 147.248 81.5055 147.227 81.0698 147.098L81.1093 146.537Z" fill="#37474F"/>
<path d="M81.8993 141.805L71.4713 133.85V131.772C71.4713 131.772 69.0302 132.42 68.4851 136.694C70.1605 140.411 73.0224 143.468 76.6221 145.384L78.8104 141.434L81.8993 141.805Z" fill="#37474F"/>
<path d="M82.16 132.767C83.545 133.42 84.7473 134.405 85.6597 135.635C86.7025 137.357 86.6946 142.95 86.6946 142.95L84.1982 140.683L81.8835 141.805C82.1047 139.609 82.1679 135.848 82.1679 135.848L82.16 132.767Z" fill="#37474F"/>
</svg>
